<?xml version="1.0" encoding="UTF-8" standalone="no"?>
<svg
   xmlns:dc="http://purl.org/dc/elements/1.1/"
   xmlns:cc="http://creativecommons.org/ns#"
   xmlns:rdf="http://www.w3.org/1999/02/22-rdf-syntax-ns#"
   xmlns:svg="http://www.w3.org/2000/svg"
   xmlns="http://www.w3.org/2000/svg"
   xmlns:xlink="http://www.w3.org/1999/xlink"
   xmlns:sodipodi="http://sodipodi.sourceforge.net/DTD/sodipodi-0.dtd"
   xmlns:inkscape="http://www.inkscape.org/namespaces/inkscape"
   inkscape:export-ydpi="300"
   inkscape:export-xdpi="300"
   inkscape:export-filename="C:\Users\johan\Bohne.png"
   sodipodi:docname="original.svg"
   inkscape:version="1.0 (4035a4fb49, 2020-05-01)"
   id="svg8"
   version="1.1"
   viewBox="0 0 77.706579 108.77032"
   height="411.1004"
   width="293.69418">
  <defs
     id="defs2">
    <linearGradient
       inkscape:collect="always"
       id="linearGradient1271">
      <stop
         style="stop-color:#eb3f33;stop-opacity:1;"
         offset="0"
         id="stop1267" />
      <stop
         style="stop-color:#eb3f33;stop-opacity:0;"
         offset="1"
         id="stop1269" />
    </linearGradient>
    <linearGradient
       inkscape:collect="always"
       id="linearGradient1258">
      <stop
         style="stop-color:#f2857d;stop-opacity:1"
         offset="0"
         id="stop1254" />
      <stop
         style="stop-color:#eb3f33;stop-opacity:1"
         offset="1"
         id="stop1256" />
    </linearGradient>
    <linearGradient
       inkscape:collect="always"
       xlink:href="#linearGradient1258"
       id="linearGradient1260"
       x1="64.228516"
       y1="277.02285"
       x2="228.07843"
       y2="277.02285"
       gradientUnits="userSpaceOnUse" />
    <linearGradient
       inkscape:collect="always"
       xlink:href="#linearGradient1271"
       id="linearGradient1273"
       x1="61.567496"
       y1="266.55169"
       x2="230.52148"
       y2="266.55169"
       gradientUnits="userSpaceOnUse" />
  </defs>
  <sodipodi:namedview
     inkscape:snap-object-midpoints="true"
     units="px"
     fit-margin-bottom="20"
     fit-margin-right="20"
     fit-margin-left="20"
     fit-margin-top="20"
     lock-margins="false"
     inkscape:window-maximized="1"
     inkscape:window-y="-8"
     inkscape:window-x="-8"
     inkscape:window-height="1017"
     inkscape:window-width="1920"
     inkscape:snap-nodes="true"
     inkscape:object-paths="true"
     inkscape:snap-smooth-nodes="true"
     showgrid="false"
     inkscape:document-rotation="0"
     inkscape:current-layer="layer1"
     inkscape:document-units="mm"
     inkscape:cy="276.8879"
     inkscape:cx="-42.576759"
     inkscape:zoom="1.4142136"
     inkscape:pageshadow="2"
     inkscape:pageopacity="0.0"
     borderopacity="1.0"
     bordercolor="#666666"
     pagecolor="#ffffff"
     id="base"
     showguides="true"
     inkscape:guide-bbox="true">
    <sodipodi:guide
       position="7.5406243,38.920321"
       orientation="0,-1"
       id="guide899" />
    <sodipodi:guide
       id="guide881"
       orientation="1,0"
       position="38.820489,102.42969" />
    <sodipodi:guide
       position="49.410933,95.276569"
       orientation="0,-1"
       id="guide1062" />
    <sodipodi:guide
       position="36.247913,89.588027"
       orientation="0,-1"
       id="guide1064" />
  </sodipodi:namedview>
  <metadata
     id="metadata5">
    <rdf:RDF>
      <cc:Work
         rdf:about="">
        <dc:format>image/svg+xml</dc:format>
        <dc:type
           rdf:resource="http://purl.org/dc/dcmitype/StillImage" />
        <dc:title></dc:title>
      </cc:Work>
    </rdf:RDF>
  </metadata>
  <g
     transform="translate(-38.136244,-44.878254)"
     style="display:inline"
     id="layer1"
     inkscape:groupmode="layer"
     inkscape:label="Body">
    <g
       id="g1234">
      <path
         sodipodi:nodetypes="ccc"
         id="path72"
         d="m 55.975777,95.281378 -5.149454,9.723432 -5.149454,9.72344"
         style="fill:#be747c;stroke:#ffce5c;stroke-width:4;stroke-linecap:round;stroke-linejoin:miter;stroke-miterlimit:4;stroke-dasharray:none;stroke-opacity:1" />
      <path
         style="fill:#be747c;stroke:#ffce5c;stroke-width:4;stroke-linecap:round;stroke-linejoin:miter;stroke-miterlimit:4;stroke-dasharray:none;stroke-opacity:1"
         d="m 97.93211,95.281375 5.14947,9.723435 5.14948,9.72344"
         id="path897"
         sodipodi:nodetypes="ccc" />
      <path
         id="path903"
         d="m 70.40808,131.1211 v 18.26757"
         style="fill:none;stroke:#ffce5c;stroke-width:4;stroke-linecap:round;stroke-linejoin:miter;stroke-miterlimit:4;stroke-dasharray:none;stroke-opacity:1" />
      <path
         style="fill:none;stroke:#ffce5c;stroke-width:4;stroke-linecap:round;stroke-linejoin:miter;stroke-miterlimit:4;stroke-dasharray:none;stroke-opacity:1"
         d="m 83.570994,131.1211 v 18.26757"
         id="path905" />
      <path
         d="M 66.294605,54.093618 C 59.584927,57.960428 55.446669,65.139279 55.44661,72.912197 v 37.725093 c -1.26e-4,7.70526 4.066832,14.83237 10.684462,18.7239 6.67584,3.92577 14.931536,3.96209 21.64132,0.0952 6.709833,-3.8669 10.848119,-11.04597 10.848006,-18.81907 V 72.912197 h -0.1079 C 98.534939,65.22924 94.511937,58.107432 87.935926,54.188789 81.26008,50.263026 73.004384,50.22672 66.294605,54.093618 Z"
         style="fill:#ffe7ad;stroke:#ffce5c;stroke-width:2.09947;stroke-linecap:round;stroke-linejoin:bevel;stroke-miterlimit:4;stroke-dasharray:none;stroke-opacity:1"
         id="path1031"
         sodipodi:nodetypes="cccssccccc" />
      <path
         sodipodi:nodetypes="sssss"
         d="m 68.583792,59.100081 c -4.216396,2.212808 -4.137399,5.203559 -6.848888,5.069084 -2.435709,-0.1208 -0.148435,-4.190036 3.136594,-6.399604 3.442285,-2.31534 6.368359,-3.648691 8.550789,-3.051539 2.817041,0.770792 -3.335644,3.593347 -4.838495,4.382059 z"
         style="fill:#fff8e7;fill-opacity:1;stroke:none;stroke-width:0.335388;stroke-linecap:round;stroke-linejoin:bevel;stroke-miterlimit:4;stroke-dasharray:none;stroke-opacity:1"
         id="path1061" />
    </g>
  </g>
  <g
     inkscape:label="Face"
     id="layer4"
     inkscape:groupmode="layer"
     style="display:inline">
    <g
       id="g1049"
       transform="translate(-41.279426,-41.350028)"
       style="display:inline">
      <path
         id="path1033"
         d="m 71.047988,79.603041 c 0,0 7.723717,8.706265 17.270412,0.269784"
         style="fill:none;stroke:#000000;stroke-width:1.165;stroke-linecap:round;stroke-linejoin:miter;stroke-miterlimit:4;stroke-dasharray:none;stroke-opacity:1" />
      <g
         id="g1047">
        <g
           id="g1039">
          <ellipse
             ry="4.6437736"
             rx="2.6593986"
             style="fill:#fff8e7;fill-opacity:1;stroke:#fff5dc;stroke-width:1.45886;stroke-linecap:round;stroke-linejoin:bevel;stroke-miterlimit:4;stroke-dasharray:none;stroke-opacity:1"
             id="ellipse1035"
             cx="73.014366"
             cy="69.163048" />
          <circle
             r="2.80633"
             cy="71.147423"
             cx="73.014366"
             id="circle1037"
             style="fill:#000000;fill-opacity:1;stroke:#000000;stroke-width:1.165;stroke-linecap:round;stroke-linejoin:bevel;stroke-miterlimit:4;stroke-dasharray:none;stroke-opacity:1" />
        </g>
        <g
           id="g1045">
          <ellipse
             cy="68.854378"
             cx="87.131348"
             id="ellipse1041"
             style="fill:#fff8e7;fill-opacity:1;stroke:#fff5dc;stroke-width:1.45886;stroke-linecap:round;stroke-linejoin:bevel;stroke-miterlimit:4;stroke-dasharray:none;stroke-opacity:1"
             rx="2.6593986"
             ry="4.6437736" />
          <circle
             r="3.0067821"
             cy="70.593071"
             cx="87.13855"
             id="circle1043"
             style="fill:#0a0003;fill-opacity:1;stroke:#000000;stroke-width:1.165;stroke-linecap:round;stroke-linejoin:bevel;stroke-miterlimit:4;stroke-dasharray:none;stroke-opacity:1" />
        </g>
      </g>
    </g>
  </g>
  <g
     transform="translate(-38.136244,-44.878254)"
     inkscape:label="Pants"
     id="layer3"
     inkscape:groupmode="layer"
     style="display:inline">
    <g
       id="g1377">
      <g
         transform="translate(-0.17943297,0.67513337)"
         id="g1362">
        <path
           sodipodi:nodetypes="cscccccccccssccc"
           d="m 64.365234,263.99998 c 0,0 4.576321,31.50001 13.615952,43.51253 8.192409,10.88667 34.914524,21.25304 34.914524,21.25304 l 1.65793,16.85286 14.27058,0.10425 0.89889,-10.78711 17,1.03711 c 0,0 11.03077,-0.78963 16.53077,-2.78963 l 1.47866,11.78963 13.85181,-0.67462 c 2.58448,-10.96721 1.57232,-6.74706 2.8146,-13.58363 7.57509,-1.96593 22.37604,-12.37105 30.52095,-23.58179 6.43412,-8.85598 11.8674,-18.05512 14.23766,-25.87006 1.80496,-5.95112 2.89934,-10.01297 3.67447,-17.26258 L 146.72266,264 Z"
           style="fill:#6fd89e;stroke:#35c073;stroke-width:3.77953;stroke-linecap:butt;stroke-linejoin:miter;stroke-miterlimit:4;stroke-dasharray:none;stroke-opacity:1"
           id="path1305"
           transform="matrix(0.26458333,0,0,0.26458333,38.136244,44.878254)" />
        <path
           style="fill:none;stroke:#ffce5c;stroke-width:0.264583;stroke-linecap:round;stroke-linejoin:miter;stroke-miterlimit:4;stroke-dasharray:1.05833, 0.529166;stroke-dashoffset:0;stroke-opacity:1"
           d="m 61.911693,115.42278 c 0,0 0.297129,3.65574 -0.431815,6.49773 -0.459737,1.79241 -3.721231,1.08531 -3.721231,1.08531"
           id="path1322-7"
           sodipodi:nodetypes="csc" />
        <path
           sodipodi:nodetypes="csc"
           id="path1356"
           d="m 91.801109,115.37317 c 0,0 -0.280592,3.70535 0.448352,6.54734 0.459737,1.79241 3.291283,1.11838 3.291283,1.11838"
           style="fill:none;stroke:#ffce5c;stroke-width:0.265;stroke-linecap:round;stroke-linejoin:miter;stroke-miterlimit:4;stroke-dasharray:0.795, 0.795;stroke-dashoffset:0;stroke-opacity:1" />
      </g>
      <g
         transform="translate(-0.2635814,0.36984408)"
         id="g1335">
        <path
           style="fill:#7fdca9;stroke:#35c073;stroke-width:0.5;stroke-linecap:butt;stroke-linejoin:miter;stroke-miterlimit:4;stroke-dasharray:none;stroke-opacity:1"
           d="m 75.638985,114.72825 v 6.15157 h 2.440281 v -6.15157 z"
           id="path1310" />
        <circle
           style="fill:#ffce5c;fill-opacity:1;stroke:none;stroke-width:0.5;stroke-linecap:square;stroke-linejoin:miter;stroke-miterlimit:4;stroke-dasharray:none;stroke-opacity:1;paint-order:stroke fill markers"
           id="path1312"
           cx="76.859123"
           cy="116.0033"
           r="0.49110773" />
        <circle
           r="0.49110773"
           cy="117.80404"
           cx="76.859123"
           id="circle1314"
           style="fill:#ffce5c;fill-opacity:1;stroke:none;stroke-width:0.5;stroke-linecap:square;stroke-linejoin:miter;stroke-miterlimit:4;stroke-dasharray:none;stroke-opacity:1;paint-order:stroke fill markers" />
        <circle
           style="fill:#ffce5c;fill-opacity:1;stroke:none;stroke-width:0.5;stroke-linecap:square;stroke-linejoin:miter;stroke-miterlimit:4;stroke-dasharray:none;stroke-opacity:1;paint-order:stroke fill markers"
           id="circle1316"
           cx="76.859123"
           cy="119.60476"
           r="0.49110773" />
        <path
           style="fill:#7fdca9;stroke:#35c073;stroke-width:0.264583px;stroke-linecap:butt;stroke-linejoin:miter;stroke-opacity:1"
           d="m 68.679089,136.34651 3.308035,0.0978 0.01409,-1.8997 -3.365959,1.7e-4 z"
           id="path1318"
           sodipodi:nodetypes="ccccc" />
        <path
           id="path1320"
           d="m 82.172195,135.94618 c 0.198438,0.33073 3.214491,0.0276 3.214491,0.0276 l 0.154403,-1.85293 -3.618219,0.0857 c -0.175396,-0.0117 0.19086,1.77472 0.249325,1.73964 z"
           style="fill:#7fdca9;stroke:#35c073;stroke-width:0.264583px;stroke-linecap:butt;stroke-linejoin:miter;stroke-opacity:1"
           sodipodi:nodetypes="ccccc" />
        <path
           style="fill:none;stroke:#35c073;stroke-width:0.264583px;stroke-linecap:butt;stroke-linejoin:miter;stroke-opacity:1"
           d="m 60.824265,114.72825 c 0,0 0.699043,2.67753 0.132288,5.55625 -0.693598,3.52298 -4.382689,0.90341 -4.382689,0.90341"
           id="path1322"
           sodipodi:nodetypes="csc" />
        <path
           sodipodi:nodetypes="csc"
           id="path1324"
           d="m 92.967055,114.72825 c 0,0 -0.699043,2.67753 -0.132288,5.55625 0.693598,3.52298 4.382689,0.90341 4.382689,0.90341"
           style="fill:none;stroke:#35c073;stroke-width:0.264583px;stroke-linecap:butt;stroke-linejoin:miter;stroke-opacity:1" />
      </g>
    </g>
  </g>
  <g
     transform="translate(-38.136244,-44.878254)"
     style="display:inline"
     inkscape:label="Shirt"
     id="layer2"
     inkscape:groupmode="layer">
    <g
       transform="translate(38.136244,44.878254)"
       style="display:inline"
       id="g1293">
      <path
         sodipodi:nodetypes="ccscccsscsscc"
         transform="scale(0.26458333)"
         d="m 63.392578,186.29297 c 0.570191,33.18279 -6.442656,70.01873 3.67183,94.7418 0,0 51.711862,24.83409 79.658702,19.21523 27.15646,-5.45995 80.93705,-17.75 80.93705,-17.75 5.91635,-26.50463 2.75303,-63.06635 3.05678,-96.67042 l -4.14077,-0.22411 c 0,0 0.14279,20.99865 -6.11133,26.375 -7.43719,6.39337 -25.74164,11.00666 -33.81445,11.98828 -14.65766,1.78232 -39.92773,3.35352 -39.92773,3.35352 0,0 -26.64508,-1.2587 -41.30274,-3.04102 -8.072804,-0.98162 -26.375303,-5.59491 -33.812498,-11.98828 -6.25412,-5.37635 -4.300781,-26.125 -4.300781,-26.125 z"
         style="fill:#f2857d;stroke:#eb3f33;stroke-width:3.77953;stroke-linecap:butt;stroke-linejoin:miter;stroke-miterlimit:4;stroke-dasharray:none;stroke-opacity:1"
         id="path1236" />
      <g
         id="g1285">
        <g
           id="g1279">
          <path
             transform="scale(0.26458333)"
             d="M 159.16797,232.0293 C 150.87251,231.8402 146.29687,239.375 112.5,242 c -37.471134,2.91038 -38.163859,-2.90842 -50.888672,-2.69922 -0.274979,15.51262 0.650682,29.99565 5.453125,41.73438 0,0 51.711367,24.8337 79.658207,19.21484 27.15646,-5.45995 80.9375,-17.75 80.9375,-17.75 1.4249,-6.3834 2.31447,-13.36022 2.86132,-20.72852 C 220.15919,258.74689 201.35029,252.31355 180,240.5 c -11.12138,-6.15369 -16.48679,-8.37165 -20.83203,-8.4707 z"
             style="fill:url(#linearGradient1273);fill-opacity:1;stroke:none;stroke-width:0.999999px;stroke-linecap:butt;stroke-linejoin:miter;stroke-opacity:1"
             id="path1262" />
          <path
             sodipodi:nodetypes="ssccsccss"
             transform="scale(0.26458333)"
             d="m 193.43555,252.99219 c -11.23778,-0.22774 -26.75787,3.7381 -59.43946,11.00781 -52.319706,11.63804 -47.668468,-2.9519 -69.767574,-2.16797 0.809256,6.88241 1.852397,12.37559 4.210937,18.14063 1.75,0.5625 50.336367,25.8962 78.283207,20.27734 27.15646,-5.45995 79.4349,-18.98744 79.4349,-18.98744 0.90203,-4.04103 1.39649,-8.07315 1.92087,-12.53561 -1.96706,-1.83659 -2.82206,-2.77 -6.04718,-4.72695 -12.09816,-7.34098 -18.68001,-10.80687 -28.5957,-11.00781 z"
             style="fill:url(#linearGradient1260);fill-opacity:1;stroke:none;stroke-width:0.999999px;stroke-linecap:butt;stroke-linejoin:miter;stroke-opacity:1"
             id="path1241" />
        </g>
        <circle
           style="fill:#eb3f33;fill-opacity:1;stroke:none;stroke-width:1;stroke-linecap:square;stroke-linejoin:miter;stroke-miterlimit:4;stroke-dasharray:none;stroke-opacity:1;paint-order:stroke fill markers"
           id="path1275"
           cx="56.025517"
           cy="62.573959"
           r="2.9434896" />
      </g>
    </g>
  </g>
  <g
     inkscape:groupmode="layer"
     id="layer5"
     inkscape:label="Hat"
     style="display:inline" />
</svg>
