<?xml version="1.0" encoding="UTF-8" standalone="no"?>
<svg
   xmlns:osb="http://www.openswatchbook.org/uri/2009/osb"
   xmlns:dc="http://purl.org/dc/elements/1.1/"
   xmlns:cc="http://creativecommons.org/ns#"
   xmlns:rdf="http://www.w3.org/1999/02/22-rdf-syntax-ns#"
   xmlns:svg="http://www.w3.org/2000/svg"
   xmlns="http://www.w3.org/2000/svg"
   xmlns:sodipodi="http://sodipodi.sourceforge.net/DTD/sodipodi-0.dtd"
   xmlns:inkscape="http://www.inkscape.org/namespaces/inkscape"
   inkscape:export-ydpi="300"
   inkscape:export-xdpi="300"
   inkscape:export-filename="C:\Users\johan\Bohne.png"
   sodipodi:docname="original.svg"
   inkscape:version="1.0 (4035a4fb49, 2020-05-01)"
   id="svg8"
   version="1.1"
   viewBox="0 0 77.706579 108.77032"
   height="411.1004"
   width="293.69418">
  <defs
     id="defs2">
    <inkscape:path-effect
       effect="simplify"
       id="path-effect994"
       is_visible="true"
       lpeversion="1"
       steps="1"
       threshold="0.000736842"
       smooth_angles="360"
       helper_size="0"
       simplify_individual_paths="false"
       simplify_just_coalesce="false" />
    <linearGradient
       id="linearGradient966"
       osb:paint="solid">
      <stop
         style="stop-color:#bed558;stop-opacity:1;"
         offset="0"
         id="stop964" />
    </linearGradient>
    <linearGradient
       id="linearGradient960"
       osb:paint="solid"
       gradientTransform="matrix(0.63070008,0.0513857,-0.0513857,0.63070008,49.178037,36.968401)">
      <stop
         style="stop-color:#abb557;stop-opacity:1;"
         offset="0"
         id="stop958" />
    </linearGradient>
    <linearGradient
       id="linearGradient954"
       osb:paint="solid"
       gradientTransform="matrix(3.7795276,0,0,3.7795276,-144.13699,-169.6186)">
      <stop
         style="stop-color:#8b9556;stop-opacity:1;"
         offset="0"
         id="stop952" />
    </linearGradient>
    <linearGradient
       id="linearGradient948"
       osb:paint="solid">
      <stop
         style="stop-color:#756d54;stop-opacity:1;"
         offset="0"
         id="stop946" />
    </linearGradient>
    <linearGradient
       id="linearGradient942"
       osb:paint="solid">
      <stop
         style="stop-color:#6d545d;stop-opacity:1;"
         offset="0"
         id="stop940" />
    </linearGradient>
  </defs>
  <sodipodi:namedview
     inkscape:snap-object-midpoints="true"
     units="px"
     fit-margin-bottom="20"
     fit-margin-right="20"
     fit-margin-left="20"
     fit-margin-top="20"
     lock-margins="false"
     inkscape:window-maximized="1"
     inkscape:window-y="-8"
     inkscape:window-x="-8"
     inkscape:window-height="1017"
     inkscape:window-width="1920"
     inkscape:snap-nodes="true"
     inkscape:object-paths="true"
     inkscape:snap-smooth-nodes="true"
     showgrid="false"
     inkscape:document-rotation="0"
     inkscape:current-layer="layer3"
     inkscape:document-units="mm"
     inkscape:cy="172.43779"
     inkscape:cx="132.70667"
     inkscape:zoom="1.4142136"
     inkscape:pageshadow="2"
     inkscape:pageopacity="0.0"
     borderopacity="1.0"
     bordercolor="#666666"
     pagecolor="#ffffff"
     id="base"
     showguides="true"
     inkscape:guide-bbox="true">
    <sodipodi:guide
       position="7.5406243,38.920321"
       orientation="0,-1"
       id="guide899" />
    <sodipodi:guide
       id="guide881"
       orientation="1,0"
       position="38.820489,102.42969" />
    <sodipodi:guide
       position="38.820486,59.472453"
       orientation="0,-1"
       id="guide884" />
  </sodipodi:namedview>
  <metadata
     id="metadata5">
    <rdf:RDF>
      <cc:Work
         rdf:about="">
        <dc:format>image/svg+xml</dc:format>
        <dc:type
           rdf:resource="http://purl.org/dc/dcmitype/StillImage" />
        <dc:title />
      </cc:Work>
    </rdf:RDF>
  </metadata>
  <g
     transform="translate(-38.136244,-44.878254)"
     style="display:inline"
     id="layer1"
     inkscape:groupmode="layer"
     inkscape:label="Body">
    <path
       style="fill:#be747c;stroke:#be747c;stroke-width:4;stroke-linecap:round;stroke-linejoin:miter;stroke-miterlimit:4;stroke-dasharray:none;stroke-opacity:1"
       d="m 55.975777,95.281378 -5.149454,9.723432 -5.149454,9.72344"
       id="path72"
       sodipodi:nodetypes="ccc" />
    <path
       sodipodi:nodetypes="ccc"
       id="path897"
       d="m 97.93211,95.281375 5.14947,9.723435 5.14948,9.72344"
       style="fill:#be747c;stroke:#be747c;stroke-width:4;stroke-linecap:round;stroke-linejoin:miter;stroke-miterlimit:4;stroke-dasharray:none;stroke-opacity:1" />
    <path
       style="fill:none;stroke:#be747c;stroke-width:4;stroke-linecap:round;stroke-linejoin:miter;stroke-miterlimit:4;stroke-dasharray:none;stroke-opacity:1"
       d="m 70.40808,131.1211 v 18.26757"
       id="path903" />
    <path
       id="path905"
       d="m 83.570994,131.1211 v 18.26757"
       style="fill:none;stroke:#be747c;stroke-width:4;stroke-linecap:round;stroke-linejoin:miter;stroke-miterlimit:4;stroke-dasharray:none;stroke-opacity:1" />
    <path
       sodipodi:nodetypes="cccssccccc"
       id="path1031"
       style="fill:#d8acb2;stroke:#be747c;stroke-width:2.09947;stroke-linecap:round;stroke-linejoin:bevel;stroke-miterlimit:4;stroke-dasharray:none;stroke-opacity:1"
       d="M 66.294605,54.093618 C 59.584927,57.960428 55.446669,65.139279 55.44661,72.912197 v 37.725093 c -1.26e-4,7.70526 4.066832,14.83237 10.684462,18.7239 6.67584,3.92577 14.931536,3.96209 21.64132,0.0952 6.709833,-3.8669 10.848119,-11.04597 10.848006,-18.81907 V 72.912197 h -0.1079 C 98.534939,65.22924 94.511937,58.107432 87.935926,54.188789 81.26008,50.263026 73.004384,50.22672 66.294605,54.093618 Z" />
    <path
       id="path1061"
       style="fill:#e5c8cb;fill-opacity:1;stroke:none;stroke-width:0.335388;stroke-linecap:round;stroke-linejoin:bevel;stroke-miterlimit:4;stroke-dasharray:none;stroke-opacity:1"
       d="m 68.583792,59.100081 c -4.216396,2.212808 -4.137399,5.203559 -6.848888,5.069084 -2.435709,-0.1208 -0.148435,-4.190036 3.136594,-6.399604 3.442285,-2.31534 6.368359,-3.648691 8.550789,-3.051539 2.817041,0.770792 -3.335644,3.593347 -4.838495,4.382059 z"
       sodipodi:nodetypes="sssss" />
  </g>
  <g
     inkscape:label="Face"
     id="layer4"
     inkscape:groupmode="layer"
     style="display:inline">
    <g
       id="g1049"
       transform="translate(-41.279426,-41.350028)"
       style="display:inline">
      <path
         id="path1033"
         d="m 71.047988,79.603041 c 0,0 7.723717,8.706265 17.270412,0.269784"
         style="fill:none;stroke:#000000;stroke-width:1.165;stroke-linecap:round;stroke-linejoin:miter;stroke-miterlimit:4;stroke-dasharray:none;stroke-opacity:1" />
      <g
         id="g1047">
        <g
           id="g1039">
          <ellipse
             ry="4.6437736"
             rx="2.6593986"
             style="fill:#e5c8cb;fill-opacity:1;stroke:#e5c8cb;stroke-width:1.45886;stroke-linecap:round;stroke-linejoin:bevel;stroke-miterlimit:4;stroke-dasharray:none;stroke-opacity:1"
             id="ellipse1035"
             cx="73.014366"
             cy="69.163048" />
          <circle
             r="2.80633"
             cy="71.147423"
             cx="73.014366"
             id="circle1037"
             style="fill:#000000;fill-opacity:1;stroke:#000000;stroke-width:1.165;stroke-linecap:round;stroke-linejoin:bevel;stroke-miterlimit:4;stroke-dasharray:none;stroke-opacity:1" />
        </g>
        <g
           id="g1045">
          <ellipse
             cy="68.854378"
             cx="87.131348"
             id="ellipse1041"
             style="fill:#e5c8cb;fill-opacity:1;stroke:#e5c8cb;stroke-width:1.45886;stroke-linecap:round;stroke-linejoin:bevel;stroke-miterlimit:4;stroke-dasharray:none;stroke-opacity:1"
             rx="2.6593986"
             ry="4.6437736" />
          <circle
             r="3.0067821"
             cy="70.593071"
             cx="87.13855"
             id="circle1043"
             style="fill:#0a0003;fill-opacity:1;stroke:#000000;stroke-width:1.165;stroke-linecap:round;stroke-linejoin:bevel;stroke-miterlimit:4;stroke-dasharray:none;stroke-opacity:1" />
        </g>
      </g>
    </g>
  </g>
  <g
     transform="translate(-38.136244,-44.878254)"
     inkscape:label="Pants"
     id="layer3"
     inkscape:groupmode="layer"
     style="display:inline">
    <g
       id="g1125">
      <path
         transform="translate(-1.2708333e-6)"
         sodipodi:nodetypes="ccccccccc"
         id="path1084"
         d="m 71.063848,116.53321 0.872916,20.88306 5.019969,-2.77812 3.314406,2.64583 1.33021,-5.44354 8.856246,6.63416 c 1.449527,-4.11079 3.337734,-8.00702 5.25876,-11.90786 l 3.154991,-11.83849 z"
         style="display:inline;fill:url(#linearGradient948);stroke:#4e4938;stroke-width:1;stroke-linecap:butt;stroke-linejoin:miter;stroke-miterlimit:4;stroke-dasharray:none;stroke-opacity:1" />
      <path
         sodipodi:nodetypes="cccccccccccccc"
         id="path1091"
         d="m 55.932168,117.63867 -4.397204,13.95677 2.705971,-0.8599 2.11404,2.11667 0.930178,-1.38906 2.11404,1.05833 0.591931,-0.59531 3.128779,2.24896 4.752715,-3.17982 3.834366,0.92389 4.537509,-3.49876 -5.076081,-9.38567 -2.457454,-2.62735 z"
         style="fill:#6d545d;stroke:#47373d;stroke-width:1.131;stroke-linecap:butt;stroke-linejoin:miter;stroke-miterlimit:4;stroke-dasharray:none;stroke-opacity:1;fill-opacity:1" />
      <path
         sodipodi:nodetypes="ccccc"
         id="path1066"
         d="m 55.248296,114.72825 c 0.141484,1.22939 0.26029,2.264 0.683873,2.91042 h 42.211573 c 0.623906,-0.95183 0.673653,-1.91475 0.727604,-2.91042 z"
         style="display:inline;fill:#63452c;fill-opacity:1;stroke:#402c1c;stroke-width:1;stroke-linecap:butt;stroke-linejoin:miter;stroke-miterlimit:4;stroke-dasharray:none;stroke-opacity:1"
         transform="translate(-1.2708333e-6)" />
      <g
         id="g1114">
        <path
           style="fill:none;stroke:#deddda;stroke-width:0.264583px;stroke-linecap:butt;stroke-linejoin:miter;stroke-opacity:1"
           d="m 86.488848,123.26106 2.315104,3.50573"
           id="path1099" />
        <path
           style="fill:none;stroke:#deddda;stroke-width:0.264583px;stroke-linecap:butt;stroke-linejoin:miter;stroke-opacity:1"
           d="m 87.282598,121.78932 2.166276,3.02617"
           id="path1101" />
        <path
           style="fill:none;stroke:#deddda;stroke-width:0.264583px;stroke-linecap:butt;stroke-linejoin:miter;stroke-opacity:1"
           d="m 90.226087,123.17838 2.022134,2.84926"
           id="path1103" />
        <path
           style="fill:none;stroke:#deddda;stroke-width:0.264583px;stroke-linecap:butt;stroke-linejoin:miter;stroke-opacity:1"
           d="m 86.025827,125.69192 c 0.727604,-0.26458 6.713799,-3.29075 6.713799,-3.29075"
           id="path1105" />
        <path
           style="fill:none;stroke:#deddda;stroke-width:0.264583px;stroke-linecap:butt;stroke-linejoin:miter;stroke-opacity:1"
           d="m 84.802129,124.60052 5.192448,-2.49701"
           id="path1107" />
      </g>
    </g>
  </g>
  <g
     transform="translate(-38.136244,-44.878254)"
     style="display:inline"
     inkscape:label="Shirt"
     id="layer2"
     inkscape:groupmode="layer">
    <g
       id="g1064">
      <g
         id="g1048">
        <path
           style="fill:#986a44;stroke:#63452c;stroke-width:0.264583px;stroke-linecap:butt;stroke-linejoin:miter;stroke-opacity:1"
           d="M 86.268577,106.00562 97.651475,94.427515 h 1.710359 L 87.709635,106.52196 Z"
           id="path1028"
           sodipodi:nodetypes="ccccc" />
        <g
           id="g1040">
          <path
             id="path1030"
             d="m 56.444168,94.176021 1.242841,-1.16921 0.603801,2.628239 2.857339,-0.336402 -0.827759,1.93997 2.371241,-3.062505 0.841899,4.396587 1.028987,-0.608039 0.274421,2.842479 1.081971,-1.673174 1.505418,1.565384 1.160598,-2.594373 2.454217,2.443783 1.755277,-0.38581 0.286716,1.11747 3.875598,-1.538415 1.446273,3.445295 0.674275,0.2416 1.528091,-1.11443 1.828326,2.31707 1.398953,-0.72681 0.140316,2.8531 -19.503994,-4.34981 z"
             style="fill:#865e3c;stroke:#63452c;stroke-width:0.264583px;stroke-linecap:butt;stroke-linejoin:miter;stroke-opacity:1" />
          <path
             id="path1032"
             d="m 60.429812,98.264571 1.583623,-1.773232 0.538659,3.950311 z"
             style="fill:#b5835a;stroke:#b5835a;stroke-width:0.264583px;stroke-linecap:butt;stroke-linejoin:miter;stroke-opacity:1" />
          <path
             id="path1034"
             d="m 73.823408,102.78219 c 0.467719,-0.21047 2.478923,-1.44993 2.478923,-1.44993 l 2.361994,3.46114 z"
             style="fill:#b5835a;stroke:#b5835a;stroke-width:0.264583px;stroke-linecap:butt;stroke-linejoin:miter;stroke-opacity:1" />
        </g>
      </g>
      <g
         id="g1018"
         style="display:inline"
         transform="translate(-1.2708333e-6)">
        <path
           id="path970"
           style="fill:url(#linearGradient954);stroke:#656c3e;stroke-width:3.77953;stroke-linecap:butt;stroke-linejoin:miter;stroke-miterlimit:4;stroke-dasharray:none;stroke-opacity:1"
           d="m 62.474609,186.32227 -36.3125,57.27539 21.921875,12.02148 8.13086,-15.91016 3.888672,38.53711 32.173828,-6.36328 25.455076,5.65625 28.99024,-4.24218 33.58984,9.89843 13.78906,-10.95898 29.18946,11.45117 c 6.50854,-14.81866 7.45031,-24.11421 7.31054,-35.21094 l -106.24414,-38.06836 -23.4414,0.97657 -31.720708,-25.0625 z M 157.5,239.25 l 9,0.5 4.25,5 22.75,1.75 7.75,9.25 -32,-3.5 z"
           transform="matrix(0.26458333,0,0,0.26458333,38.136244,44.878254)" />
        <g
           id="g990">
          <path
             id="path975"
             d="m 58.575306,105.07096 1.190625,3.57187"
             style="fill:none;stroke:#deddda;stroke-width:0.264583px;stroke-linecap:butt;stroke-linejoin:miter;stroke-opacity:1" />
          <path
             id="path977"
             d="m 60.228952,104.74023 1.190625,3.37344"
             style="fill:none;stroke:#deddda;stroke-width:0.264583px;stroke-linecap:butt;stroke-linejoin:miter;stroke-opacity:1" />
          <path
             id="path979"
             d="m 57.252389,106.46002 4.960938,-1.05833"
             style="fill:none;stroke:#deddda;stroke-width:0.264583px;stroke-linecap:butt;stroke-linejoin:miter;stroke-opacity:1" />
          <path
             id="path981"
             d="m 58.476087,107.30338 3.075781,-0.8599"
             style="fill:none;stroke:#deddda;stroke-width:0.264583px;stroke-linecap:butt;stroke-linejoin:miter;stroke-opacity:1" />
          <path
             id="path983"
             d="m 58.492623,108.24596 3.720704,-1.00873"
             style="fill:none;stroke:#deddda;stroke-width:0.264583px;stroke-linecap:butt;stroke-linejoin:miter;stroke-opacity:1" />
        </g>
      </g>
    </g>
  </g>
  <g
     inkscape:groupmode="layer"
     id="layer5"
     inkscape:label="Hat"
     style="display:inline">
    <g
       transform="translate(-38.136245,-44.878255)"
       style="display:inline"
       id="g1139">
      <path
         sodipodi:nodetypes="cscccccccccccccccccccc"
         id="path1127"
         d="m 55.543339,62.787747 c 0,0 -5.000122,7.606771 -4.648001,7.606771 0.352121,0 11.575555,-4.097391 11.575555,-4.097391 l 5.67218,-2.969234 5.076756,1.774958 6.353328,0.264584 6.371906,0.600944 2.979376,-2.386882 4.436726,11.90625 5.843963,-6.732883 4.033232,0.713613 -3.731786,-6.191933 0.826596,-4.259109 -4.507156,-2.513542 -2.042303,-5.159374 -3.450786,2.84427 -6.831154,-5.55625 -11.056609,2.050521 -8.028366,0.06615 -5.211395,3.902604 -6.056486,0.396875 z"
         style="fill:#63452c;stroke:#312216;stroke-width:1.03183;stroke-linecap:butt;stroke-linejoin:miter;stroke-miterlimit:4;stroke-dasharray:none;stroke-opacity:1" />
      <path
         id="path1129"
         d="m 61.423759,61.285 1.02729,-4.368873 4.982817,2.458525 1.149926,-0.274571 3.55141,0.859423 1.313841,-3.658959 3.50769,4.651146"
         style="fill:#865e3c;stroke:#312216;stroke-width:0.264583px;stroke-linecap:butt;stroke-linejoin:miter;stroke-opacity:1" />
      <path
         id="path1131"
         d="m 85.232077,58.305858 6.393238,-1.344858 0.353634,3.593816 3.179162,0.679141 -0.268745,6.729192"
         style="fill:#865e3c;stroke:#312216;stroke-width:0.264583px;stroke-linecap:butt;stroke-linejoin:miter;stroke-opacity:1" />
      <path
         id="path1133"
         d="m 78.683639,54.800129 3.268523,-3.011194 2.88304,3.077339"
         style="fill:#865e3c;stroke:#312216;stroke-width:0.264583px;stroke-linecap:butt;stroke-linejoin:miter;stroke-opacity:1" />
    </g>
  </g>
</svg>
