<?xml version="1.0" encoding="UTF-8" standalone="no"?>
<svg
   xmlns:dc="http://purl.org/dc/elements/1.1/"
   xmlns:cc="http://creativecommons.org/ns#"
   xmlns:rdf="http://www.w3.org/1999/02/22-rdf-syntax-ns#"
   xmlns:svg="http://www.w3.org/2000/svg"
   xmlns="http://www.w3.org/2000/svg"
   xmlns:sodipodi="http://sodipodi.sourceforge.net/DTD/sodipodi-0.dtd"
   xmlns:inkscape="http://www.inkscape.org/namespaces/inkscape"
   width="293.69418"
   height="411.1004"
   viewBox="0 0 77.706579 108.77032"
   version="1.1"
   id="svg8"
   inkscape:version="1.0 (4035a4fb49, 2020-05-01)"
   sodipodi:docname="original.svg"
   inkscape:export-filename="C:\Users\johan\Bohne.png"
   inkscape:export-xdpi="300"
   inkscape:export-ydpi="300">
  <defs
     id="defs2">
    <mask
       id="mask1640"
       maskUnits="userSpaceOnUse">
      <path
         d="m55.234 114.73c0.55469 5.3895 2.9019 10.499 9.5756 14.763v17.295h9.57v-11.809h5.1547v11.809h9.57v-17.295c6.6737-4.2642 9.0204-9.3734 9.5751-14.763h-21.723z"
         fill="#343945"
         stroke="#000"
         id="path917" />
    </mask>
    <linearGradient
       id="linearGradient924"
       x1="148.37"
       x2="148.76"
       y1="186.88"
       y2="207.66"
       gradientUnits="userSpaceOnUse">
      <stop
         stop-color="#5f192d"
         offset="0"
         id="stop1228" />
      <stop
         stop-color="#7f192d"
         offset="1"
         id="stop1230" />
    </linearGradient>
  </defs>
  <sodipodi:namedview
     inkscape:guide-bbox="true"
     showguides="true"
     id="base"
     pagecolor="#ffffff"
     bordercolor="#666666"
     borderopacity="1.0"
     inkscape:pageopacity="0.0"
     inkscape:pageshadow="2"
     inkscape:zoom="1.3491797"
     inkscape:cx="195.06915"
     inkscape:cy="220.80913"
     inkscape:document-units="mm"
     inkscape:current-layer="layer5"
     inkscape:document-rotation="0"
     showgrid="false"
     inkscape:snap-smooth-nodes="true"
     inkscape:object-paths="true"
     inkscape:snap-nodes="true"
     inkscape:window-width="1920"
     inkscape:window-height="1017"
     inkscape:window-x="-8"
     inkscape:window-y="-8"
     inkscape:window-maximized="1"
     lock-margins="false"
     fit-margin-top="20"
     fit-margin-left="20"
     fit-margin-right="20"
     fit-margin-bottom="20"
     units="px"
     inkscape:snap-object-midpoints="true">
    <sodipodi:guide
       id="guide899"
       orientation="0,-1"
       position="7.5406243,38.920321" />
    <sodipodi:guide
       position="38.820489,102.42969"
       orientation="1,0"
       id="guide881" />
    <sodipodi:guide
       id="guide883"
       orientation="0,-1"
       position="44.31897,63.846306" />
  </sodipodi:namedview>
  <metadata
     id="metadata5">
    <rdf:RDF>
      <cc:Work
         rdf:about="">
        <dc:format>image/svg+xml</dc:format>
        <dc:type
           rdf:resource="http://purl.org/dc/dcmitype/StillImage" />
        <dc:title></dc:title>
      </cc:Work>
    </rdf:RDF>
  </metadata>
  <g
     inkscape:label="Body"
     inkscape:groupmode="layer"
     id="layer1"
     style="display:inline"
     transform="translate(-38.136244,-44.878254)">
    <g
       id="g1455">
      <path
         style="fill:#be747c;stroke:#be747c;stroke-width:4;stroke-linecap:round;stroke-linejoin:miter;stroke-miterlimit:4;stroke-dasharray:none;stroke-opacity:1"
         d="m 55.975777,95.281378 -5.149454,9.723432 -5.149454,9.72344"
         id="path72"
         sodipodi:nodetypes="ccc" />
      <path
         sodipodi:nodetypes="ccc"
         id="path897"
         d="m 97.93211,95.281375 5.14947,9.723435 5.14948,9.72344"
         style="fill:#be747c;stroke:#be747c;stroke-width:4;stroke-linecap:round;stroke-linejoin:miter;stroke-miterlimit:4;stroke-dasharray:none;stroke-opacity:1" />
      <path
         style="fill:none;stroke:#be747c;stroke-width:4;stroke-linecap:round;stroke-linejoin:miter;stroke-miterlimit:4;stroke-dasharray:none;stroke-opacity:1"
         d="m 70.40808,131.1211 v 18.26757"
         id="path903" />
      <path
         id="path905"
         d="m 83.570994,131.1211 v 18.26757"
         style="fill:none;stroke:#be747c;stroke-width:4;stroke-linecap:round;stroke-linejoin:miter;stroke-miterlimit:4;stroke-dasharray:none;stroke-opacity:1" />
      <path
         sodipodi:nodetypes="cccssccccc"
         id="path1031"
         style="fill:#d8acb2;stroke:#be747c;stroke-width:2.09947;stroke-linecap:round;stroke-linejoin:bevel;stroke-miterlimit:4;stroke-dasharray:none;stroke-opacity:1"
         d="M 66.294605,54.093618 C 59.584927,57.960428 55.446669,65.139279 55.44661,72.912197 v 37.725093 c -1.26e-4,7.70526 4.066832,14.83237 10.684462,18.7239 6.67584,3.92577 14.931536,3.96209 21.64132,0.0952 6.709833,-3.8669 10.848119,-11.04597 10.848006,-18.81907 V 72.912197 h -0.1079 C 98.534939,65.22924 94.511937,58.107432 87.935926,54.188789 81.26008,50.263026 73.004384,50.22672 66.294605,54.093618 Z" />
      <path
         id="path1061"
         style="fill:#e5c8cb;fill-opacity:1;stroke:none;stroke-width:0.335388;stroke-linecap:round;stroke-linejoin:bevel;stroke-miterlimit:4;stroke-dasharray:none;stroke-opacity:1"
         d="m 68.583792,59.100081 c -4.216396,2.212808 -4.137399,5.203559 -6.848888,5.069084 -2.435709,-0.1208 -0.148435,-4.190036 3.136594,-6.399604 3.442285,-2.31534 6.368359,-3.648691 8.550789,-3.051539 2.817041,0.770792 -3.335644,3.593347 -4.838495,4.382059 z"
         sodipodi:nodetypes="sssss" />
    </g>
  </g>
  <g
     style="display:inline"
     inkscape:groupmode="layer"
     id="layer4"
     inkscape:label="Gesicht">
    <g
       style="display:inline"
       transform="translate(-41.279426,-41.350028)"
       id="g1049">
      <path
         style="fill:none;stroke:#000000;stroke-width:1.165;stroke-linecap:round;stroke-linejoin:miter;stroke-miterlimit:4;stroke-dasharray:none;stroke-opacity:1"
         d="m 71.047988,79.603041 c 0,0 7.723717,8.706265 17.270412,0.269784"
         id="path1033" />
      <g
         id="g1047">
        <g
           id="g1039">
          <ellipse
             cy="69.163048"
             cx="73.014366"
             id="ellipse1035"
             style="fill:#e5c8cb;fill-opacity:1;stroke:#e5c8cb;stroke-width:1.45886;stroke-linecap:round;stroke-linejoin:bevel;stroke-miterlimit:4;stroke-dasharray:none;stroke-opacity:1"
             rx="2.6593986"
             ry="4.6437736" />
          <circle
             style="fill:#000000;fill-opacity:1;stroke:#000000;stroke-width:1.165;stroke-linecap:round;stroke-linejoin:bevel;stroke-miterlimit:4;stroke-dasharray:none;stroke-opacity:1"
             id="circle1037"
             cx="73.014366"
             cy="71.147423"
             r="2.80633" />
        </g>
        <g
           id="g1045">
          <ellipse
             ry="4.6437736"
             rx="2.6593986"
             style="fill:#e5c8cb;fill-opacity:1;stroke:#e5c8cb;stroke-width:1.45886;stroke-linecap:round;stroke-linejoin:bevel;stroke-miterlimit:4;stroke-dasharray:none;stroke-opacity:1"
             id="ellipse1041"
             cx="87.131348"
             cy="68.854378" />
          <circle
             style="fill:#0a0003;fill-opacity:1;stroke:#000000;stroke-width:1.165;stroke-linecap:round;stroke-linejoin:bevel;stroke-miterlimit:4;stroke-dasharray:none;stroke-opacity:1"
             id="circle1043"
             cx="87.13855"
             cy="70.593071"
             r="3.0067821" />
        </g>
      </g>
    </g>
  </g>
  <g
     inkscape:label="Hat"
     id="layer5"
     inkscape:groupmode="layer" />
  <g
     style="display:inline"
     inkscape:groupmode="layer"
     id="layer3"
     inkscape:label="Pants"
     transform="translate(-38.136244,-44.878254)">
    <path
       d="m 55.330853,114.97545 c 0.554682,5.38938 2.901857,10.49832 9.575228,14.76248 v 17.29446 h 9.569671 v -11.80877 h 2.577016 2.57754 v 11.80877 h 9.56967 v -17.29446 c 6.67363,-4.26416 9.02015,-9.3731 9.5747,-14.76248 H 77.052548 55.33043 Z"
       stroke="#000000"
       stroke-width="0.999961"
       id="path1048"
       style="display:inline;fill:#343945;stroke:#23262f;stroke-opacity:1"
       transform="translate(-1.2708333e-6)" />
  </g>
  <g
     inkscape:groupmode="layer"
     id="layer2"
     inkscape:label="Shirt"
     style="display:inline"
     transform="translate(-38.136244,-44.878254)">
    <g
       id="g1260"
       transform="matrix(0.99998044,0,0,0.99998044,0.0800541,0.04770258)">
      <path
         id="path1252"
         fill="#ffffff"
         d="m 54.44,89.158 22.517,9.0917 22.766,-9.2553 -22.689,2.7804 z" />
      <g
         id="g1258">
        <path
           id="path1254"
           fill="url(#linearGradient924)"
           d="m 146.72,183.68 -5.3125,0.61133 v 15.279 l 5.3125,1.5195 5.3125,-1.5195 v -15.279 z"
           transform="matrix(0.26458,0,0,0.26458,38.136,44.878)"
           style="fill:url(#linearGradient924)" />
        <rect
           id="rect1256"
           fill="#6f192d"
           ry="1.3439"
           height="3.1644001"
           width="5.164"
           y="91.149002"
           x="74.375" />
      </g>
    </g>
    <g
       id="g1266"
       fill="#ededed"
       transform="matrix(0.99998044,0,0,0.99998044,0.0800541,0.04770258)">
      <path
         id="path1262"
         d="m 44.57,110.15 -1.0729,1.8584 4.7062,2.7171 1.073,-1.8586 z" />
      <path
         id="path1264"
         d="m 109.06,110.68 1.0729,1.8584 -4.7062,2.7171 -1.073,-1.8586 z" />
    </g>
    <g
       id="g1282"
       transform="matrix(0.99998044,0,0,0.99998044,0.0800541,0.04770258)">
      <path
         id="path1268"
         stroke-width="3.7795"
         stroke="#23262f"
         fill="#343945"
         d="m 62.553,169.71 -40.618,75.627 22.613,13.055 12.585,-22.098 v 46.023 h 179.18 v -46.023 l 11.634,25.719 22.611,-13.055 -38.902,-79.839 -84.933,32.606 z"
         transform="matrix(0.26458,0,0,0.26458,38.136,44.878)" />
      <g
         id="g1280"
         fill="#7f7d8c">
        <circle
           id="circle1270"
           r="1.0174"
           cy="102.23"
           cx="76.973999" />
        <circle
           id="circle1272"
           r="1.0174"
           cy="105.41"
           cx="76.973999" />
        <circle
           id="circle1274"
           r="1.0174"
           cy="108.58"
           cx="76.973999" />
        <circle
           id="circle1276"
           r="1.0174"
           cy="111.76"
           cx="76.973999" />
        <circle
           id="circle1278"
           r="1.0174"
           cy="114.93"
           cx="76.973999" />
      </g>
    </g>
    <path
       id="path1310"
       stroke-width="0.49999"
       stroke="#383d4b"
       fill="#ededed"
       d="m 48.526203,111.85632 6.239278,-9.90781" />
  </g>
</svg>
