<?xml version="1.0" encoding="UTF-8" standalone="no"?>
<svg
   xmlns:osb="http://www.openswatchbook.org/uri/2009/osb"
   xmlns:dc="http://purl.org/dc/elements/1.1/"
   xmlns:cc="http://creativecommons.org/ns#"
   xmlns:rdf="http://www.w3.org/1999/02/22-rdf-syntax-ns#"
   xmlns:svg="http://www.w3.org/2000/svg"
   xmlns="http://www.w3.org/2000/svg"
   xmlns:sodipodi="http://sodipodi.sourceforge.net/DTD/sodipodi-0.dtd"
   xmlns:inkscape="http://www.inkscape.org/namespaces/inkscape"
   width="293.69418"
   height="411.1004"
   viewBox="0 0 77.706579 108.77032"
   version="1.1"
   id="svg8"
   inkscape:version="1.0 (4035a4fb49, 2020-05-01)"
   sodipodi:docname="original.svg"
   inkscape:export-filename="C:\Users\johan\Bohne.png"
   inkscape:export-xdpi="300"
   inkscape:export-ydpi="300">
  <defs
     id="defs2">
    <linearGradient
       gradientTransform="matrix(0.09260991,0,0,0.09260991,45.655104,61.188982)"
       osb:paint="solid"
       id="linearGradient966">
      <stop
         id="stop964"
         offset="0"
         style="stop-color:#645853;stop-opacity:1;" />
    </linearGradient>
    <linearGradient
       gradientTransform="matrix(-0.26458333,0,0,0.26458333,77.231497,43.351377)"
       osb:paint="solid"
       id="linearGradient960">
      <stop
         id="stop958"
         offset="0"
         style="stop-color:#cad8de;stop-opacity:1;" />
    </linearGradient>
    <linearGradient
       gradientTransform="matrix(0.55364423,0,0,0.55364423,60.435878,-156.64545)"
       osb:paint="solid"
       id="linearGradient954">
      <stop
         id="stop952"
         offset="0"
         style="stop-color:#4daba7;stop-opacity:1;" />
    </linearGradient>
    <linearGradient
       gradientTransform="matrix(0.55364423,0,0,0.55364423,34.350082,46.635395)"
       osb:paint="solid"
       id="linearGradient948">
      <stop
         id="stop946"
         offset="0"
         style="stop-color:#241909;stop-opacity:1;" />
    </linearGradient>
    <linearGradient
       osb:paint="solid"
       id="linearGradient942">
      <stop
         id="stop940"
         offset="0"
         style="stop-color:#0f1108;stop-opacity:1;" />
    </linearGradient>
  </defs>
  <sodipodi:namedview
     inkscape:guide-bbox="true"
     showguides="true"
     id="base"
     pagecolor="#ffffff"
     bordercolor="#666666"
     borderopacity="1.0"
     inkscape:pageopacity="0.0"
     inkscape:pageshadow="2"
     inkscape:zoom="4"
     inkscape:cx="161.6146"
     inkscape:cy="256.41228"
     inkscape:document-units="mm"
     inkscape:current-layer="layer3"
     inkscape:document-rotation="0"
     showgrid="false"
     inkscape:snap-smooth-nodes="true"
     inkscape:object-paths="true"
     inkscape:snap-nodes="true"
     inkscape:window-width="1920"
     inkscape:window-height="1017"
     inkscape:window-x="-8"
     inkscape:window-y="-8"
     inkscape:window-maximized="1"
     lock-margins="false"
     fit-margin-top="20"
     fit-margin-left="20"
     fit-margin-right="20"
     fit-margin-bottom="20"
     units="px"
     inkscape:snap-object-midpoints="true">
    <sodipodi:guide
       id="guide899"
       orientation="0,-1"
       position="7.5406243,38.920321" />
    <sodipodi:guide
       position="38.820489,102.42969"
       orientation="1,0"
       id="guide881" />
    <sodipodi:guide
       id="guide884"
       orientation="0,-1"
       position="38.820486,59.472453" />
  </sodipodi:namedview>
  <metadata
     id="metadata5">
    <rdf:RDF>
      <cc:Work
         rdf:about="">
        <dc:format>image/svg+xml</dc:format>
        <dc:type
           rdf:resource="http://purl.org/dc/dcmitype/StillImage" />
        <dc:title />
      </cc:Work>
    </rdf:RDF>
  </metadata>
  <g
     sodipodi:insensitive="true"
     inkscape:label="Body"
     inkscape:groupmode="layer"
     id="layer1"
     style="display:inline"
     transform="translate(-38.136244,-44.878254)">
    <path
       sodipodi:nodetypes="ccc"
       id="path72"
       d="m 55.975777,95.281378 -5.149454,9.723432 -5.149454,9.72344"
       style="fill:#be747c;stroke:#be747c;stroke-width:4;stroke-linecap:round;stroke-linejoin:miter;stroke-miterlimit:4;stroke-dasharray:none;stroke-opacity:1" />
    <path
       style="fill:#be747c;stroke:#be747c;stroke-width:4;stroke-linecap:round;stroke-linejoin:miter;stroke-miterlimit:4;stroke-dasharray:none;stroke-opacity:1"
       d="m 97.93211,95.281375 5.14947,9.723435 5.14948,9.72344"
       id="path897"
       sodipodi:nodetypes="ccc" />
    <path
       id="path903"
       d="m 70.40808,131.1211 v 18.26757"
       style="fill:none;stroke:#be747c;stroke-width:4;stroke-linecap:round;stroke-linejoin:miter;stroke-miterlimit:4;stroke-dasharray:none;stroke-opacity:1" />
    <path
       style="fill:none;stroke:#be747c;stroke-width:4;stroke-linecap:round;stroke-linejoin:miter;stroke-miterlimit:4;stroke-dasharray:none;stroke-opacity:1"
       d="m 83.570994,131.1211 v 18.26757"
       id="path905" />
    <path
       d="M 66.294605,54.093618 C 59.584927,57.960428 55.446669,65.139279 55.44661,72.912197 v 37.725093 c -1.26e-4,7.70526 4.066832,14.83237 10.684462,18.7239 6.67584,3.92577 14.931536,3.96209 21.64132,0.0952 6.709833,-3.8669 10.848119,-11.04597 10.848006,-18.81907 V 72.912197 h -0.1079 C 98.534939,65.22924 94.511937,58.107432 87.935926,54.188789 81.26008,50.263026 73.004384,50.22672 66.294605,54.093618 Z"
       style="fill:#d8acb2;stroke:#be747c;stroke-width:2.09947;stroke-linecap:round;stroke-linejoin:bevel;stroke-miterlimit:4;stroke-dasharray:none;stroke-opacity:1"
       id="path1031"
       sodipodi:nodetypes="cccssccccc" />
    <path
       sodipodi:nodetypes="sssss"
       d="m 68.583792,59.100081 c -4.216396,2.212808 -4.137399,5.203559 -6.848888,5.069084 -2.435709,-0.1208 -0.148435,-4.190036 3.136594,-6.399604 3.442285,-2.31534 6.368359,-3.648691 8.550789,-3.051539 2.817041,0.770792 -3.335644,3.593347 -4.838495,4.382059 z"
       style="fill:#e5c8cb;fill-opacity:1;stroke:none;stroke-width:0.335388;stroke-linecap:round;stroke-linejoin:bevel;stroke-miterlimit:4;stroke-dasharray:none;stroke-opacity:1"
       id="path1061" />
  </g>
  <g
     style="display:inline"
     inkscape:groupmode="layer"
     id="layer4"
     inkscape:label="Face">
    <g
       style="display:inline"
       transform="translate(-41.279426,-41.350028)"
       id="g1049">
      <path
         style="fill:none;stroke:#000000;stroke-width:1.165;stroke-linecap:round;stroke-linejoin:miter;stroke-miterlimit:4;stroke-dasharray:none;stroke-opacity:1"
         d="m 71.047988,79.603041 c 0,0 7.723717,8.706265 17.270412,0.269784"
         id="path1033" />
      <g
         id="g1047">
        <g
           id="g1039">
          <ellipse
             cy="69.163048"
             cx="73.014366"
             id="ellipse1035"
             style="fill:#e5c8cb;fill-opacity:1;stroke:#e5c8cb;stroke-width:1.45886;stroke-linecap:round;stroke-linejoin:bevel;stroke-miterlimit:4;stroke-dasharray:none;stroke-opacity:1"
             rx="2.6593986"
             ry="4.6437736" />
          <circle
             style="fill:#000000;fill-opacity:1;stroke:#000000;stroke-width:1.165;stroke-linecap:round;stroke-linejoin:bevel;stroke-miterlimit:4;stroke-dasharray:none;stroke-opacity:1"
             id="circle1037"
             cx="73.014366"
             cy="71.147423"
             r="2.80633" />
        </g>
        <g
           id="g1045">
          <ellipse
             ry="4.6437736"
             rx="2.6593986"
             style="fill:#e5c8cb;fill-opacity:1;stroke:#e5c8cb;stroke-width:1.45886;stroke-linecap:round;stroke-linejoin:bevel;stroke-miterlimit:4;stroke-dasharray:none;stroke-opacity:1"
             id="ellipse1041"
             cx="87.131348"
             cy="68.854378" />
          <circle
             style="fill:#0a0003;fill-opacity:1;stroke:#000000;stroke-width:1.165;stroke-linecap:round;stroke-linejoin:bevel;stroke-miterlimit:4;stroke-dasharray:none;stroke-opacity:1"
             id="circle1043"
             cx="87.13855"
             cy="70.593071"
             r="3.0067821" />
        </g>
      </g>
    </g>
  </g>
  <g
     style="display:inline"
     inkscape:groupmode="layer"
     id="layer3"
     inkscape:label="Pants"
     transform="translate(-38.136244,-44.878254)">
    <g
       id="g1075"
       style="display:inline"
       transform="translate(-1.2708333e-6)">
      <path
         id="path1037"
         style="fill:#1f2411;fill-opacity:1;stroke:#0f1108;stroke-width:3.77953;stroke-linecap:butt;stroke-linejoin:miter;stroke-miterlimit:4;stroke-dasharray:none;stroke-opacity:1"
         d="m 64.5,264 c 7.994906,43.71141 46.23803,96.47547 50,123.5 l 15.25,1 -0.25,-51.5 17.22266,0.5 17.22265,-0.5 -0.25,51.5 15.25,-1 c 3.76197,-27.02453 42.0051,-79.78859 50,-123.5 h -82.22265 z"
         transform="matrix(0.26458333,0,0,0.26458333,38.136244,44.878254)" />
      <g
         id="g1062">
        <path
           id="path1042"
           d="m 91.924236,114.72825 c 0.09354,6.48218 4.838747,6.77073 4.838747,6.77073 l 1.948374,-6.77073 z"
           style="fill:#000000;stroke:#000000;stroke-width:0.264583px;stroke-linecap:butt;stroke-linejoin:miter;stroke-opacity:1" />
        <path
           style="fill:#000000;stroke:#000000;stroke-width:0.264583px;stroke-linecap:butt;stroke-linejoin:miter;stroke-opacity:1"
           d="m 61.98899,114.72825 c -0.09354,6.48218 -4.838747,6.77073 -4.838747,6.77073 l -1.948374,-6.77073 z"
           id="path1044" />
      </g>
      <g
         id="g1058">
        <path
           id="path1046"
           d="m 76.956733,114.72825 c 0,0 -3.811521,0.47196 -2.618833,1.50094 1.192692,1.02899 2.618833,-1.50094 2.618833,-1.50094 z"
           style="fill:none;stroke:url(#linearGradient960);stroke-width:0.265;stroke-linecap:round;stroke-linejoin:bevel;stroke-miterlimit:4;stroke-dasharray:none;stroke-opacity:1" />
        <path
           sodipodi:nodetypes="csc"
           style="fill:none;stroke:url(#linearGradient960);stroke-width:0.264583px;stroke-linecap:round;stroke-linejoin:round;stroke-opacity:1"
           d="m 77.084892,114.72825 c 0,0 3.683363,0.47196 2.490675,1.50094 -1.192692,1.02899 -2.490675,-1.50094 -2.490675,-1.50094 z"
           id="path1048" />
        <path
           id="path1050"
           d="m 76.956733,114.72825 c 0,1.71142 -1.402755,1.31386 -1.239054,2.74041 0.163703,1.42655 -0.42095,1.8475 -0.42095,1.8475"
           style="fill:none;stroke:url(#linearGradient960);stroke-width:0.264583px;stroke-linecap:butt;stroke-linejoin:miter;stroke-opacity:1" />
        <path
           sodipodi:nodetypes="csc"
           style="fill:none;stroke:url(#linearGradient960);stroke-width:0.265;stroke-linecap:round;stroke-linejoin:bevel;stroke-miterlimit:4;stroke-dasharray:none;stroke-opacity:1"
           d="m 76.956734,114.72825 c 0,1.71142 1.402755,1.31386 1.239054,2.74041 -0.163703,1.42655 0.42095,1.8475 0.42095,1.8475"
           id="path1052" />
      </g>
    </g>
  </g>
  <g
     inkscape:groupmode="layer"
     id="layer2"
     inkscape:label="Shirt"
     style="display:inline"
     transform="translate(-38.136244,-44.878254)">
    <g
       id="g1029"
       style="display:inline"
       transform="translate(-1.2708333e-6)">
      <path
         id="path970"
         style="fill:url(#linearGradient960);stroke:#98b3bf;stroke-width:3.77953;stroke-linecap:butt;stroke-linejoin:miter;stroke-miterlimit:4;stroke-dasharray:none;stroke-opacity:1"
         d="M 62.576172,186.32227 34.1875,218.875 58,233.6875 l 4.863281,-8.25 C 63.035817,240.66431 62.257247,257.53183 64.5,264 h 82.22266 82.78515 c 2.24276,-6.46817 0.90364,-23.33569 1.07617,-38.5625 l 4.86133,8.25 23.8125,-14.8125 -27.38867,-32.55273 c -27.80618,6.06579 -54.82129,16.31193 -85.14648,16.5 -30.3252,-0.18809 -56.340307,-10.43421 -84.146488,-16.5 z"
         sodipodi:nodetypes="ccccccccccccc"
         transform="matrix(0.26458333,0,0,0.26458333,38.136244,44.878254)" />
      <g
         id="g1022">
        <path
           sodipodi:nodetypes="csaaaaaaaaaaaaasc"
           id="path1005"
           d="m 55.274894,106.19936 c 0.317358,1.2e-4 1.18278,-1.07596 2.165829,-1.07879 0.987812,-0.003 1.780206,1.05833 2.768021,1.05833 0.987816,0 1.780206,-1.05833 2.768022,-1.05833 0.987815,0 1.780206,1.05833 2.768021,1.05833 0.987815,0 1.780206,-1.05833 2.768021,-1.05833 0.987816,0 1.780206,1.05833 2.768022,1.05833 0.987815,0 1.780205,-1.05833 2.768021,-1.05833 0.987815,0 1.780206,1.05833 2.768021,1.05833 0.987815,0 1.780206,-1.05833 2.768021,-1.05833 0.987816,0 1.780206,1.05833 2.768022,1.05833 0.987815,0 1.780205,-1.05833 2.768021,-1.05833 0.987815,0 1.780206,1.05833 2.768021,1.05833 0.987815,0 1.780206,-1.05833 2.768021,-1.05833 0.987816,0 1.78021,1.05577 2.768022,1.05833 0.994721,0.003 1.805054,-1.05164 2.792869,-1.05127 0.866498,3.2e-4 2.174428,0.93234 2.427377,0.93017"
           style="fill:none;stroke:url(#linearGradient966);stroke-width:0.264583px;stroke-linecap:butt;stroke-linejoin:miter;stroke-opacity:1" />
        <path
           style="fill:none;stroke:url(#linearGradient954);stroke-width:0.264583px;stroke-linecap:butt;stroke-linejoin:miter;stroke-opacity:1"
           d="m 55.274894,106.72853 c 0.317358,1.2e-4 1.18278,-1.07596 2.165829,-1.07879 0.987812,-0.003 1.780206,1.05833 2.768021,1.05833 0.987816,0 1.780206,-1.05833 2.768022,-1.05833 0.987815,0 1.780206,1.05833 2.768021,1.05833 0.987815,0 1.780206,-1.05833 2.768021,-1.05833 0.987816,0 1.780206,1.05833 2.768022,1.05833 0.987815,0 1.780205,-1.05833 2.768021,-1.05833 0.987815,0 1.780206,1.05833 2.768021,1.05833 0.987815,0 1.780206,-1.05833 2.768021,-1.05833 0.987816,0 1.780206,1.05833 2.768022,1.05833 0.987815,0 1.780205,-1.05833 2.768021,-1.05833 0.987815,0 1.780206,1.05833 2.768021,1.05833 0.987815,0 1.780206,-1.05833 2.768021,-1.05833 0.987816,0 1.78021,1.05577 2.768022,1.05833 0.994721,0.003 1.805054,-1.05164 2.792869,-1.05127 0.866498,3.2e-4 2.174428,0.93234 2.427377,0.93017"
           id="path1015"
           sodipodi:nodetypes="csaaaaaaaaaaaaasc" />
        <path
           sodipodi:nodetypes="csaaaaaaaaaaaaasc"
           id="path1017"
           d="m 55.274894,107.2577 c 0.317358,1.2e-4 1.18278,-1.07596 2.165829,-1.07879 0.987812,-0.003 1.780206,1.05833 2.768021,1.05833 0.987816,0 1.780206,-1.05833 2.768022,-1.05833 0.987815,0 1.780206,1.05833 2.768021,1.05833 0.987815,0 1.780206,-1.05833 2.768021,-1.05833 0.987816,0 1.780206,1.05833 2.768022,1.05833 0.987815,0 1.780205,-1.05833 2.768021,-1.05833 0.987815,0 1.780206,1.05833 2.768021,1.05833 0.987815,0 1.780206,-1.05833 2.768021,-1.05833 0.987816,0 1.780206,1.05833 2.768022,1.05833 0.987815,0 1.780205,-1.05833 2.768021,-1.05833 0.987815,0 1.780206,1.05833 2.768021,1.05833 0.987815,0 1.780206,-1.05833 2.768021,-1.05833 0.987816,0 1.78021,1.05577 2.768022,1.05833 0.994721,0.003 1.805054,-1.05164 2.792869,-1.05127 0.866498,3.2e-4 2.174428,0.93234 2.427377,0.93017"
           style="fill:none;stroke:url(#linearGradient966);stroke-width:0.264583px;stroke-linecap:butt;stroke-linejoin:miter;stroke-opacity:1" />
      </g>
    </g>
  </g>
  <g
     style="display:inline"
     inkscape:label="Hat"
     id="layer5"
     inkscape:groupmode="layer" />
</svg>
