<?xml version="1.0" encoding="UTF-8" standalone="no"?>
<svg
   xmlns:dc="http://purl.org/dc/elements/1.1/"
   xmlns:cc="http://creativecommons.org/ns#"
   xmlns:rdf="http://www.w3.org/1999/02/22-rdf-syntax-ns#"
   xmlns:svg="http://www.w3.org/2000/svg"
   xmlns="http://www.w3.org/2000/svg"
   xmlns:sodipodi="http://sodipodi.sourceforge.net/DTD/sodipodi-0.dtd"
   xmlns:inkscape="http://www.inkscape.org/namespaces/inkscape"
   width="293.69418"
   height="411.1004"
   viewBox="0 0 77.706579 108.77032"
   version="1.1"
   id="svg8"
   inkscape:version="1.0 (4035a4fb49, 2020-05-01)"
   sodipodi:docname="original.svg"
   inkscape:export-filename="C:\Users\johan\Bohne.png"
   inkscape:export-xdpi="300"
   inkscape:export-ydpi="300">
  <defs
     id="defs2" />
  <sodipodi:namedview
     inkscape:guide-bbox="true"
     showguides="true"
     id="base"
     pagecolor="#ffffff"
     bordercolor="#666666"
     borderopacity="1.0"
     inkscape:pageopacity="0.0"
     inkscape:pageshadow="2"
     inkscape:zoom="2.0000001"
     inkscape:cx="160.13323"
     inkscape:cy="243.49398"
     inkscape:document-units="mm"
     inkscape:current-layer="layer3"
     inkscape:document-rotation="0"
     showgrid="false"
     inkscape:snap-smooth-nodes="true"
     inkscape:object-paths="true"
     inkscape:snap-nodes="true"
     inkscape:window-width="1920"
     inkscape:window-height="1017"
     inkscape:window-x="-8"
     inkscape:window-y="-8"
     inkscape:window-maximized="1"
     lock-margins="false"
     fit-margin-top="20"
     fit-margin-left="20"
     fit-margin-right="20"
     fit-margin-bottom="20"
     units="px"
     inkscape:snap-object-midpoints="true">
    <sodipodi:guide
       id="guide899"
       orientation="0,-1"
       position="7.5406243,38.920321" />
    <sodipodi:guide
       position="38.820489,102.42969"
       orientation="1,0"
       id="guide881" />
    <sodipodi:guide
       id="guide884"
       orientation="0,-1"
       position="38.820486,59.472453" />
  </sodipodi:namedview>
  <metadata
     id="metadata5">
    <rdf:RDF>
      <cc:Work
         rdf:about="">
        <dc:format>image/svg+xml</dc:format>
        <dc:type
           rdf:resource="http://purl.org/dc/dcmitype/StillImage" />
        <dc:title></dc:title>
      </cc:Work>
    </rdf:RDF>
  </metadata>
  <g
     inkscape:label="Body"
     inkscape:groupmode="layer"
     id="layer1"
     style="display:inline"
     transform="translate(-38.136244,-44.878254)">
    <path
       sodipodi:nodetypes="ccc"
       id="path72"
       d="m 55.975777,95.281378 -5.149454,9.723432 -5.149454,9.72344"
       style="fill:#be747c;stroke:#be747c;stroke-width:4;stroke-linecap:round;stroke-linejoin:miter;stroke-miterlimit:4;stroke-dasharray:none;stroke-opacity:1" />
    <path
       style="fill:#be747c;stroke:#be747c;stroke-width:4;stroke-linecap:round;stroke-linejoin:miter;stroke-miterlimit:4;stroke-dasharray:none;stroke-opacity:1"
       d="m 97.93211,95.281375 5.14947,9.723435 5.14948,9.72344"
       id="path897"
       sodipodi:nodetypes="ccc" />
    <path
       id="path903"
       d="m 70.40808,131.1211 v 18.26757"
       style="fill:none;stroke:#be747c;stroke-width:4;stroke-linecap:round;stroke-linejoin:miter;stroke-miterlimit:4;stroke-dasharray:none;stroke-opacity:1" />
    <path
       style="fill:none;stroke:#be747c;stroke-width:4;stroke-linecap:round;stroke-linejoin:miter;stroke-miterlimit:4;stroke-dasharray:none;stroke-opacity:1"
       d="m 83.570994,131.1211 v 18.26757"
       id="path905" />
    <path
       d="M 66.294605,54.093618 C 59.584927,57.960428 55.446669,65.139279 55.44661,72.912197 v 37.725093 c -1.26e-4,7.70526 4.066832,14.83237 10.684462,18.7239 6.67584,3.92577 14.931536,3.96209 21.64132,0.0952 6.709833,-3.8669 10.848119,-11.04597 10.848006,-18.81907 V 72.912197 h -0.1079 C 98.534939,65.22924 94.511937,58.107432 87.935926,54.188789 81.26008,50.263026 73.004384,50.22672 66.294605,54.093618 Z"
       style="fill:#d8acb2;stroke:#be747c;stroke-width:2.09947;stroke-linecap:round;stroke-linejoin:bevel;stroke-miterlimit:4;stroke-dasharray:none;stroke-opacity:1"
       id="path1031"
       sodipodi:nodetypes="cccssccccc" />
    <path
       sodipodi:nodetypes="sssss"
       d="m 68.583792,59.100081 c -4.216396,2.212808 -4.137399,5.203559 -6.848888,5.069084 -2.435709,-0.1208 -0.148435,-4.190036 3.136594,-6.399604 3.442285,-2.31534 6.368359,-3.648691 8.550789,-3.051539 2.817041,0.770792 -3.335644,3.593347 -4.838495,4.382059 z"
       style="fill:#e5c8cb;fill-opacity:1;stroke:none;stroke-width:0.335388;stroke-linecap:round;stroke-linejoin:bevel;stroke-miterlimit:4;stroke-dasharray:none;stroke-opacity:1"
       id="path1061" />
  </g>
  <g
     style="display:inline"
     inkscape:groupmode="layer"
     id="layer4"
     inkscape:label="Face">
    <g
       style="display:inline"
       transform="translate(-41.279426,-41.350028)"
       id="g1049">
      <path
         style="fill:none;stroke:#000000;stroke-width:1.165;stroke-linecap:round;stroke-linejoin:miter;stroke-miterlimit:4;stroke-dasharray:none;stroke-opacity:1"
         d="m 71.047988,79.603041 c 0,0 7.723717,8.706265 17.270412,0.269784"
         id="path1033" />
      <g
         id="g1047">
        <g
           id="g1039">
          <ellipse
             cy="69.163048"
             cx="73.014366"
             id="ellipse1035"
             style="fill:#e5c8cb;fill-opacity:1;stroke:#e5c8cb;stroke-width:1.45886;stroke-linecap:round;stroke-linejoin:bevel;stroke-miterlimit:4;stroke-dasharray:none;stroke-opacity:1"
             rx="2.6593986"
             ry="4.6437736" />
          <circle
             style="fill:#000000;fill-opacity:1;stroke:#000000;stroke-width:1.165;stroke-linecap:round;stroke-linejoin:bevel;stroke-miterlimit:4;stroke-dasharray:none;stroke-opacity:1"
             id="circle1037"
             cx="73.014366"
             cy="71.147423"
             r="2.80633" />
        </g>
        <g
           id="g1045">
          <ellipse
             ry="4.6437736"
             rx="2.6593986"
             style="fill:#e5c8cb;fill-opacity:1;stroke:#e5c8cb;stroke-width:1.45886;stroke-linecap:round;stroke-linejoin:bevel;stroke-miterlimit:4;stroke-dasharray:none;stroke-opacity:1"
             id="ellipse1041"
             cx="87.131348"
             cy="68.854378" />
          <circle
             style="fill:#0a0003;fill-opacity:1;stroke:#000000;stroke-width:1.165;stroke-linecap:round;stroke-linejoin:bevel;stroke-miterlimit:4;stroke-dasharray:none;stroke-opacity:1"
             id="circle1043"
             cx="87.13855"
             cy="70.593071"
             r="3.0067821" />
        </g>
      </g>
    </g>
  </g>
  <g
     inkscape:groupmode="layer"
     id="layer2"
     inkscape:label="Shirt"
     style="display:inline"
     transform="translate(-38.136244,-44.878254)" />
  <g
     style="display:inline"
     inkscape:groupmode="layer"
     id="layer3"
     inkscape:label="Pants"
     transform="translate(-38.136244,-44.878254)">
    <g
       id="g1112"
       style="display:inline"
       transform="translate(-1.2708333e-6)">
      <path
         id="path1094"
         style="display:inline;fill:#a51d2d;fill-opacity:1;stroke:#72141f;stroke-width:1;stroke-linecap:butt;stroke-linejoin:miter;stroke-miterlimit:4;stroke-dasharray:none;stroke-opacity:1"
         d="m 55.342549,114.72825 3.063895,12.31191 2.041736,8.20673 13.983125,1.30483 0.0031,-3.2184 c 1.767814,-0.42016 3.436247,-0.3803 5.044655,0 l 0.0031,3.2184 13.983126,-1.30483 2.04225,-8.20673 c 1.021147,-4.10397 2.420894,-8.29287 3.285428,-12.31191 h -21.83623 z"
         sodipodi:nodetypes="cccccccccccc" />
      <path
         style="fill:none;stroke:#f6f5f4;stroke-width:0.665;stroke-linecap:round;stroke-linejoin:miter;stroke-miterlimit:4;stroke-dasharray:none;stroke-opacity:1"
         d="m 57.359604,115.92517 4.349811,18.1476"
         id="path1105" />
      <path
         id="path1107"
         d="m 96.694995,115.92517 -4.349811,18.1476"
         style="fill:none;stroke:#f6f5f4;stroke-width:0.665;stroke-linecap:round;stroke-linejoin:miter;stroke-miterlimit:4;stroke-dasharray:none;stroke-opacity:1" />
    </g>
    <g
       id="g1168">
      <g
         transform="translate(-1.2708333e-6)"
         style="display:inline"
         id="g1070">
        <path
           sodipodi:nodetypes="ccccccccccc"
           transform="matrix(0.26458333,0,0,0.26458333,38.136244,44.878254)"
           d="m 63.242188,186.32227 c 0.113574,10.7013 5.124305,27.18396 0.08398,31.80273 -1.543159,37.19535 0.106062,38.09832 1.705078,45.875 h 81.691414 82.53109 c 1.59902,-7.77668 3.02727,-6.95608 1.48411,-44.15143 -5.04032,-4.61877 -0.16018,-22.825 -0.0467,-33.5263 h -5.5493 c -7.67571,4.7354 -44.56741,15.41999 -78.41926,20.50585 -32.37563,-4.78524 -69.992262,-15.77045 -77.667976,-20.50585 z"
           style="fill:#a51d2d;stroke:#72141f;stroke-width:3.77953;stroke-linecap:butt;stroke-linejoin:miter;stroke-miterlimit:4;stroke-dasharray:none;stroke-opacity:1"
           id="path940" />
        <path
           id="path945"
           d="m 56.108068,102.75585 0.242307,10.79507"
           style="fill:none;stroke:#f6f5f4;stroke-width:0.665;stroke-linecap:round;stroke-linejoin:miter;stroke-miterlimit:4;stroke-dasharray:none;stroke-opacity:1" />
        <path
           style="fill:none;stroke:#f6f5f4;stroke-width:0.638163;stroke-linecap:round;stroke-linejoin:miter;stroke-miterlimit:4;stroke-dasharray:none;stroke-opacity:1"
           d="m 97.260092,103.5145 0.242307,9.94136"
           id="path947" />
        <g
           transform="matrix(0.06581838,0,0,0.06581838,59.964204,99.349185)"
           id="g896">
          <path
             id="rect850"
             style="fill:#ffffff;fill-opacity:1;stroke:none;stroke-width:2.08528;stroke-linecap:round"
             d="m 50.312872,34.482958 c -12.427712,0 -22.432492,10.005153 -22.432492,22.432863 v 30.931861 c 0,0.333014 0.0083,0.66389 0.02249,0.993271 a 44.686885,44.686885 0 0 0 22.097032,5.846036 44.686885,44.686885 0 0 0 22.736841,-6.217108 c 0.0058,-0.206781 0.009,-0.414019 0.009,-0.622199 V 56.915821 c 0,-12.42771 -10.005158,-22.432863 -22.43286,-22.432863 z"
             inkscape:export-xdpi="300"
             inkscape:export-ydpi="300" />
          <circle
             r="41.854259"
             cy="49.999996"
             cx="49.999996"
             id="circle871"
             style="fill:#a51d2d;fill-opacity:1;stroke:#ffffff;stroke-width:1.35868;stroke-linecap:round;stroke-opacity:1"
             inkscape:export-xdpi="300"
             inkscape:export-ydpi="300" />
          <g
             id="g909"
             transform="matrix(0.59136286,0,0,0.59136286,-12.474208,-8.1031264)"
             inkscape:export-xdpi="300"
             inkscape:export-ydpi="300">
            <path
               transform="scale(0.26458333)"
               d="m 399.28516,327.53711 c -74.94529,0 -135.2793,60.33601 -135.2793,135.28125 v 149.56836 a 232.85714,232.85714 0 0 0 135.2793,43.32812 232.85714,232.85714 0 0 0 135.28125,-43.33007 V 462.81836 c 0,-74.94524 -60.33602,-135.28125 -135.28125,-135.28125 z"
               style="fill:#ffffff;fill-opacity:1;stroke:none;stroke-width:11.4787;stroke-linecap:round;stroke-opacity:1"
               id="rect873" />
            <ellipse
               ry="9.3549099"
               rx="6.4255953"
               cy="129.17336"
               cx="95.816963"
               id="path881"
               style="fill:#ffffff;fill-opacity:1;stroke:#a51d2d;stroke-width:1.64691;stroke-linecap:round;stroke-opacity:1" />
            <circle
               r="4.6255217"
               cy="132.10269"
               cx="95.816956"
               id="path885"
               style="fill:#a51d2d;fill-opacity:1;stroke:#a51d2d;stroke-width:2.57634;stroke-linecap:round;stroke-opacity:1" />
            <ellipse
               style="fill:#ffffff;fill-opacity:1;stroke:#a51d2d;stroke-width:1.64691;stroke-linecap:round;stroke-opacity:1"
               id="ellipse887"
               cx="116.03869"
               cy="129.17336"
               rx="6.4255953"
               ry="9.3549099" />
            <circle
               style="fill:#a51d2d;fill-opacity:1;stroke:#a51d2d;stroke-width:2.57634;stroke-linecap:round;stroke-opacity:1"
               id="circle889"
               cx="116.03868"
               cy="132.10269"
               r="4.6255217" />
            <path
               id="path901"
               d="m 92.208558,145.01555 c 10.970212,10.61624 19.283682,5.42187 19.283682,5.42187"
               style="fill:none;stroke:#a51d2d;stroke-width:1.065;stroke-linecap:round;stroke-linejoin:miter;stroke-miterlimit:4;stroke-dasharray:none;stroke-opacity:1" />
          </g>
          <path
             style="fill:none;fill-opacity:1;stroke:#ffffff;stroke-width:1.44337;stroke-linecap:round;stroke-miterlimit:4;stroke-dasharray:none;stroke-opacity:1"
             d="M 94.686887,50.000001 A 44.686886,44.686886 0 0 1 49.999999,94.686887 44.686886,44.686886 0 0 1 5.3131134,50.000001 44.686886,44.686886 0 0 1 49.999999,5.3131128 44.686886,44.686886 0 0 1 94.686887,50.000001 Z"
             id="path869"
             inkscape:export-xdpi="300"
             inkscape:export-ydpi="300" />
          <path
             sodipodi:type="star"
             style="fill:#ffffff;fill-opacity:1;stroke:#a51d2d;stroke-width:1.27868;stroke-linecap:round;stroke-miterlimit:4;stroke-dasharray:none;stroke-opacity:1"
             id="path993"
             sodipodi:sides="8"
             sodipodi:cx="104.50786"
             sodipodi:cy="76.872536"
             sodipodi:r1="18.757471"
             sodipodi:r2="8.628437"
             sodipodi:arg1="0.52479577"
             sodipodi:arg2="0.91749485"
             inkscape:flatsided="false"
             inkscape:rounded="0"
             inkscape:randomized="0"
             d="m 120.74107,86.270709 -10.98875,-2.546491 -0.41136,11.272442 -5.96958,-9.570859 -8.261695,7.679943 2.546491,-10.988746 -11.272442,-0.411363 9.570859,-5.969575 -7.679943,-8.261698 10.988746,2.546492 0.411363,-11.272442 5.969571,9.570858 8.2617,-7.679943 -2.54649,10.988747 11.27244,0.411362 -9.57086,5.969576 z"
             transform="matrix(0.70635906,0.1647485,-0.1647485,0.70635906,-11.155439,-47.692576)"
             inkscape:export-xdpi="300"
             inkscape:export-ydpi="300" />
          <g
             id="g946"
             transform="matrix(0.51631165,0,0,0.51631165,-4.3014283,-10.430012)"
             style="stroke:#000000;stroke-width:1.40481;stroke-miterlimit:4;stroke-dasharray:none;stroke-opacity:1"
             inkscape:export-xdpi="300"
             inkscape:export-ydpi="300">
            <g
               transform="matrix(0.52972574,0,0,0.52972574,81.37147,82.123415)"
               id="g930"
               style="stroke:#000000;stroke-width:2.65195;stroke-miterlimit:4;stroke-dasharray:none;stroke-opacity:1">
              <rect
                 style="fill:#ffffff;fill-opacity:1;stroke:#a51d2d;stroke-width:2.65195;stroke-linecap:round;stroke-miterlimit:4;stroke-dasharray:none;stroke-opacity:1"
                 id="rect921"
                 width="25.925144"
                 height="5.6126599"
                 x="32.072342"
                 y="23.519718"
                 ry="2.80633" />
              <rect
                 ry="2.80633"
                 y="17.907059"
                 x="32.072342"
                 height="5.6126599"
                 width="25.925144"
                 id="rect923"
                 style="fill:#ffffff;fill-opacity:1;stroke:#a51d2d;stroke-width:2.65195;stroke-linecap:round;stroke-miterlimit:4;stroke-dasharray:none;stroke-opacity:1" />
              <rect
                 style="fill:#ffffff;fill-opacity:1;stroke:#a51d2d;stroke-width:2.65195;stroke-linecap:round;stroke-miterlimit:4;stroke-dasharray:none;stroke-opacity:1"
                 id="rect925"
                 width="25.925144"
                 height="5.6126599"
                 x="32.072342"
                 y="12.294399"
                 ry="2.80633" />
            </g>
            <path
               d="m 105.1718,55.846056 a 13.79613,13.79613 0 0 0 -13.796056,13.796056 13.79613,13.79613 0 0 0 3.81372,9.522415 l 2.033984,6.157249 c 0.487701,1.476229 1.251842,2.80603 2.806552,2.80603 h 10.28361 c 1.5547,0 2.31885,-1.329801 2.80654,-2.80603 l 2.03399,-6.15673 a 13.79613,13.79613 0 0 0 3.81372,-9.522934 13.79613,13.79613 0 0 0 -13.79606,-13.796056 z"
               style="fill:#ffffff;fill-opacity:1;stroke:#a51d2d;stroke-width:1.40481;stroke-linecap:round;stroke-miterlimit:4;stroke-dasharray:none;stroke-opacity:1"
               id="rect932" />
          </g>
        </g>
      </g>
      <rect
         style="fill:#a51d2d;fill-opacity:1;fill-rule:evenodd;stroke:#72141f;stroke-width:1;stroke-linecap:round;stroke-linejoin:round;stroke-miterlimit:4;stroke-dasharray:none;stroke-opacity:1"
         id="rect1118"
         width="3.4395833"
         height="2.6458333"
         x="93.507828"
         y="73.889816"
         transform="rotate(28.786372)" />
      <rect
         transform="matrix(-0.87642124,0.48154523,0.48154523,0.87642124,0,0)"
         y="148.00342"
         x="-41.380337"
         height="2.6458333"
         width="3.4395833"
         id="rect1120"
         style="fill:#a51d2d;fill-opacity:1;fill-rule:evenodd;stroke:#72141f;stroke-width:1;stroke-linecap:round;stroke-linejoin:round;stroke-miterlimit:4;stroke-dasharray:none;stroke-opacity:1" />
    </g>
  </g>
  <g
     style="display:inline"
     inkscape:label="Hat"
     id="layer5"
     inkscape:groupmode="layer" />
</svg>
