<?xml version="1.0" encoding="UTF-8" standalone="no"?>
<svg
   xmlns:osb="http://www.openswatchbook.org/uri/2009/osb"
   xmlns:dc="http://purl.org/dc/elements/1.1/"
   xmlns:cc="http://creativecommons.org/ns#"
   xmlns:rdf="http://www.w3.org/1999/02/22-rdf-syntax-ns#"
   xmlns:svg="http://www.w3.org/2000/svg"
   xmlns="http://www.w3.org/2000/svg"
   xmlns:xlink="http://www.w3.org/1999/xlink"
   xmlns:sodipodi="http://sodipodi.sourceforge.net/DTD/sodipodi-0.dtd"
   xmlns:inkscape="http://www.inkscape.org/namespaces/inkscape"
   width="293.69418"
   height="411.1004"
   viewBox="0 0 77.706579 108.77032"
   version="1.1"
   id="svg8"
   inkscape:version="1.0 (4035a4fb49, 2020-05-01)"
   sodipodi:docname="original.svg"
   inkscape:export-filename="C:\Users\johan\Bohne.png"
   inkscape:export-xdpi="300"
   inkscape:export-ydpi="300">
  <defs
     id="defs2">
    <linearGradient
       id="linearGradient3100"
       inkscape:collect="always">
      <stop
         id="stop3096"
         offset="0"
         style="stop-color:#22170f;stop-opacity:1;" />
      <stop
         id="stop3098"
         offset="1"
         style="stop-color:#22170f;stop-opacity:0;" />
    </linearGradient>
    <inkscape:path-effect
       simplify_just_coalesce="false"
       simplify_individual_paths="false"
       helper_size="0"
       smooth_angles="360"
       threshold="0.000736842"
       steps="1"
       lpeversion="1"
       is_visible="true"
       id="path-effect3091"
       effect="simplify" />
    <inkscape:path-effect
       simplify_just_coalesce="false"
       simplify_individual_paths="false"
       helper_size="0"
       smooth_angles="360"
       threshold="0.000736842"
       steps="1"
       lpeversion="1"
       is_visible="true"
       id="path-effect3087"
       effect="simplify" />
    <linearGradient
       id="linearGradient3022"
       inkscape:collect="always">
      <stop
         id="stop3018"
         offset="0"
         style="stop-color:#777777;stop-opacity:1;" />
      <stop
         id="stop3020"
         offset="1"
         style="stop-color:#777777;stop-opacity:0;" />
    </linearGradient>
    <inkscape:path-effect
       simplify_just_coalesce="false"
       simplify_individual_paths="false"
       helper_size="0"
       smooth_angles="360"
       threshold="0.000736842"
       steps="1"
       lpeversion="1"
       is_visible="true"
       id="path-effect948"
       effect="simplify" />
    <inkscape:path-effect
       simplify_just_coalesce="false"
       simplify_individual_paths="false"
       helper_size="0"
       smooth_angles="360"
       threshold="0.000736842"
       steps="1"
       lpeversion="1"
       is_visible="true"
       id="path-effect944"
       effect="simplify" />
    <inkscape:path-effect
       simplify_just_coalesce="false"
       simplify_individual_paths="false"
       helper_size="0"
       smooth_angles="360"
       threshold="0.000736842"
       steps="1"
       lpeversion="1"
       is_visible="true"
       id="path-effect940"
       effect="simplify" />
    <linearGradient
       id="linearGradient934">
      <stop
         id="stop932"
         offset="0"
         style="stop-color:#4c0271;stop-opacity:1;" />
    </linearGradient>
    <linearGradient
       gradientTransform="translate(14.571939,-2.4661412)"
       osb:paint="solid"
       id="linearGradient915">
      <stop
         id="stop913"
         offset="0"
         style="stop-color:#ff3f3f;stop-opacity:1;" />
    </linearGradient>
    <linearGradient
       gradientTransform="rotate(33.196276,86.719274,125.11358)"
       osb:paint="solid"
       id="linearGradient909">
      <stop
         id="stop907"
         offset="0"
         style="stop-color:#a206ef;stop-opacity:1;" />
    </linearGradient>
    <linearGradient
       gradientTransform="rotate(-87.26955,94.204931,89.868925)"
       osb:paint="solid"
       id="linearGradient903">
      <stop
         id="stop901"
         offset="0"
         style="stop-color:#f3ea5f;stop-opacity:1;" />
    </linearGradient>
    <linearGradient
       gradientTransform="matrix(0.01852198,0,0,0.01852198,53.308728,58.318298)"
       osb:paint="solid"
       id="linearGradient897">
      <stop
         id="stop895"
         offset="0"
         style="stop-color:#2bd1fc;stop-opacity:1;" />
    </linearGradient>
    <linearGradient
       gradientTransform="rotate(-27.267644,53.376277,66.35251)"
       osb:paint="solid"
       id="linearGradient887">
      <stop
         id="stop885"
         offset="0"
         style="stop-color:#ff48c4;stop-opacity:1;" />
    </linearGradient>
    <linearGradient
       gradientTransform="translate(0.82326522,-0.06614583)"
       gradientUnits="userSpaceOnUse"
       y2="116.97365"
       x2="76.956734"
       y1="116.97365"
       x1="75.310203"
       id="linearGradient3024"
       xlink:href="#linearGradient3022"
       inkscape:collect="always" />
    <linearGradient
       y2="116.97365"
       x2="76.956734"
       y1="116.97365"
       x1="75.310203"
       gradientTransform="translate(0.82326522,2.0505209)"
       gradientUnits="userSpaceOnUse"
       id="linearGradient3028"
       xlink:href="#linearGradient3022"
       inkscape:collect="always" />
    <linearGradient
       y2="116.97365"
       x2="76.956734"
       y1="116.97365"
       x1="75.310203"
       gradientTransform="translate(0.82326522,4.1671877)"
       gradientUnits="userSpaceOnUse"
       id="linearGradient3032"
       xlink:href="#linearGradient3022"
       inkscape:collect="always" />
    <linearGradient
       y2="116.97365"
       x2="76.956734"
       y1="116.97365"
       x1="75.310203"
       gradientTransform="translate(0.82326522,6.2838545)"
       gradientUnits="userSpaceOnUse"
       id="linearGradient3036"
       xlink:href="#linearGradient3022"
       inkscape:collect="always" />
    <linearGradient
       gradientTransform="translate(-4.3431701,-0.32044009)"
       gradientUnits="userSpaceOnUse"
       y2="73.011688"
       x2="79.101002"
       y1="73.011688"
       x1="64.008975"
       id="linearGradient3102"
       xlink:href="#linearGradient3100"
       inkscape:collect="always" />
    <linearGradient
       y2="73.011688"
       x2="79.101002"
       y1="73.011688"
       x1="64.008975"
       gradientTransform="translate(15.092607,-0.62911289)"
       gradientUnits="userSpaceOnUse"
       id="linearGradient3106"
       xlink:href="#linearGradient3100"
       inkscape:collect="always" />
    <clipPath
       clipPathUnits="userSpaceOnUse"
       id="clipPath935">
      <path
         id="path937"
         style="fill:url(#linearGradient897);fill-opacity:1;stroke:#027592;stroke-width:1;stroke-linecap:square;stroke-linejoin:miter;stroke-miterlimit:4;stroke-dasharray:none;stroke-opacity:1"
         d="m 57.841201,88.434492 c 0,0 -2.670094,10.064771 -7.499799,14.828038 -4.228125,4.16996 -5.142838,5.01054 -5.142838,5.01054 0,0 4.547525,2.92696 6.598047,2.92696 h 2.050521 l 4.742863,-11.04636 c -1.333621,5.68444 -1.051016,8.40659 -0.22841,11.04636 h 21.738209 21.887036 c 0.80758,-2.73449 0.69622,-6.36411 -0.37672,-11.04636 l 4.74235,11.04636 h 2.05052 c 2.05052,0 6.59804,-2.92696 6.59804,-2.92696 0,0 -0.91471,-0.84058 -5.14283,-5.01054 -4.82971,-4.763267 -7.37118,-14.828038 -7.37118,-14.828038 L 80.099794,102.00577 Z"
         sodipodi:nodetypes="cscscccccccscsccc" />
    </clipPath>
  </defs>
  <sodipodi:namedview
     inkscape:guide-bbox="true"
     showguides="true"
     id="base"
     pagecolor="#ffffff"
     bordercolor="#666666"
     borderopacity="1.0"
     inkscape:pageopacity="0.0"
     inkscape:pageshadow="2"
     inkscape:zoom="2.0000001"
     inkscape:cx="14.756069"
     inkscape:cy="210.67179"
     inkscape:document-units="mm"
     inkscape:current-layer="layer5"
     inkscape:document-rotation="0"
     showgrid="false"
     inkscape:snap-smooth-nodes="true"
     inkscape:object-paths="true"
     inkscape:snap-nodes="true"
     inkscape:window-width="1920"
     inkscape:window-height="1017"
     inkscape:window-x="-8"
     inkscape:window-y="-8"
     inkscape:window-maximized="1"
     lock-margins="false"
     fit-margin-top="20"
     fit-margin-left="20"
     fit-margin-right="20"
     fit-margin-bottom="20"
     units="px"
     inkscape:snap-object-midpoints="true">
    <sodipodi:guide
       id="guide899"
       orientation="0,-1"
       position="7.5406243,38.920321" />
    <sodipodi:guide
       position="38.820489,102.42969"
       orientation="1,0"
       id="guide881" />
  </sodipodi:namedview>
  <metadata
     id="metadata5">
    <rdf:RDF>
      <cc:Work
         rdf:about="">
        <dc:format>image/svg+xml</dc:format>
        <dc:type
           rdf:resource="http://purl.org/dc/dcmitype/StillImage" />
        <dc:title></dc:title>
      </cc:Work>
    </rdf:RDF>
  </metadata>
  <g
     inkscape:label="Body"
     inkscape:groupmode="layer"
     id="layer1"
     style="display:inline"
     transform="translate(-38.136244,-44.878254)">
    <g
       id="g917">
      <path
         style="fill:#be747c;stroke:#3d3846;stroke-width:4;stroke-linecap:round;stroke-linejoin:miter;stroke-miterlimit:4;stroke-dasharray:none;stroke-opacity:1"
         d="m 55.975777,95.281378 -5.149454,9.723432 -5.149454,9.72344"
         id="path72"
         sodipodi:nodetypes="ccc" />
      <path
         sodipodi:nodetypes="ccc"
         id="path897"
         d="m 97.93211,95.281375 5.14947,9.723435 5.14948,9.72344"
         style="fill:#be747c;stroke:#3d3846;stroke-width:4;stroke-linecap:round;stroke-linejoin:miter;stroke-miterlimit:4;stroke-dasharray:none;stroke-opacity:1" />
      <path
         style="fill:none;stroke:#3d3846;stroke-width:4;stroke-linecap:round;stroke-linejoin:miter;stroke-miterlimit:4;stroke-dasharray:none;stroke-opacity:1"
         d="m 70.40808,131.1211 v 18.26757"
         id="path903" />
      <path
         id="path905"
         d="m 83.570994,131.1211 v 18.26757"
         style="fill:none;stroke:#3d3846;stroke-width:4;stroke-linecap:round;stroke-linejoin:miter;stroke-miterlimit:4;stroke-dasharray:none;stroke-opacity:1" />
      <path
         sodipodi:nodetypes="cccssccccc"
         id="path1031"
         style="fill:#77767b;stroke:#3d3846;stroke-width:2.09947;stroke-linecap:round;stroke-linejoin:bevel;stroke-miterlimit:4;stroke-dasharray:none;stroke-opacity:1"
         d="M 66.294605,54.093618 C 59.584927,57.960428 55.446669,65.139279 55.44661,72.912197 v 37.725093 c -1.26e-4,7.70526 4.066832,14.83237 10.684462,18.7239 6.67584,3.92577 14.931536,3.96209 21.64132,0.0952 6.709833,-3.8669 10.848119,-11.04597 10.848006,-18.81907 V 72.912197 h -0.1079 C 98.534939,65.22924 94.511937,58.107432 87.935926,54.188789 81.26008,50.263026 73.004384,50.22672 66.294605,54.093618 Z" />
    </g>
    <path
       sodipodi:nodetypes="sssss"
       d="m 68.583792,59.100081 c -4.216396,2.212808 -4.137399,5.203559 -6.848888,5.069084 -2.435709,-0.1208 -0.148435,-4.190036 3.136594,-6.399604 3.442285,-2.31534 6.368359,-3.648691 8.550789,-3.051539 2.817041,0.770792 -3.335644,3.593347 -4.838495,4.382059 z"
       style="fill:#f6f5f4;fill-opacity:1;stroke:none;stroke-width:0.335388;stroke-linecap:round;stroke-linejoin:bevel;stroke-miterlimit:4;stroke-dasharray:none;stroke-opacity:1"
       id="path1061" />
  </g>
  <g
     style="display:inline"
     inkscape:groupmode="layer"
     id="layer4"
     inkscape:label="Face">
    <g
       style="display:inline"
       transform="translate(-41.279426,-41.350028)"
       id="g1049">
      <path
         style="fill:none;stroke:#000000;stroke-width:1.165;stroke-linecap:round;stroke-linejoin:miter;stroke-miterlimit:4;stroke-dasharray:none;stroke-opacity:1"
         d="m 71.047988,79.603041 c 0,0 7.723717,8.706265 17.270412,0.269784"
         id="path1033" />
      <g
         id="g1047">
        <g
           id="g1039">
          <ellipse
             cy="69.163048"
             cx="73.014366"
             id="ellipse1035"
             style="fill:#f6f5f4;fill-opacity:1;stroke:#f6f5f4;stroke-width:1.45886;stroke-linecap:round;stroke-linejoin:bevel;stroke-miterlimit:4;stroke-dasharray:none;stroke-opacity:1"
             rx="2.6593986"
             ry="4.6437736" />
          <circle
             style="fill:#000000;fill-opacity:1;stroke:#000000;stroke-width:1.165;stroke-linecap:round;stroke-linejoin:bevel;stroke-miterlimit:4;stroke-dasharray:none;stroke-opacity:1"
             id="circle1037"
             cx="73.014366"
             cy="71.147423"
             r="2.80633" />
        </g>
        <g
           id="g1045">
          <ellipse
             ry="4.6437736"
             rx="2.6593986"
             style="fill:#f6f5f4;fill-opacity:1;stroke:#f6f5f4;stroke-width:1.45886;stroke-linecap:round;stroke-linejoin:bevel;stroke-miterlimit:4;stroke-dasharray:none;stroke-opacity:1"
             id="ellipse1041"
             cx="87.131348"
             cy="68.854378" />
          <circle
             style="fill:#0a0003;fill-opacity:1;stroke:#000000;stroke-width:1.165;stroke-linecap:round;stroke-linejoin:bevel;stroke-miterlimit:4;stroke-dasharray:none;stroke-opacity:1"
             id="circle1043"
             cx="87.13855"
             cy="70.593071"
             r="3.0067821" />
        </g>
      </g>
    </g>
  </g>
  <g
     inkscape:groupmode="layer"
     id="layer2"
     inkscape:label="Shirt"
     style="display:inline"
     transform="translate(-38.136244,-44.878254)">
    <g
       id="g956"
       transform="translate(0.16536723)">
      <path
         id="path919"
         style="fill:url(#linearGradient897);fill-opacity:1;stroke:#027592;stroke-width:1;stroke-linecap:square;stroke-linejoin:miter;stroke-miterlimit:4;stroke-dasharray:none;stroke-opacity:1"
         d="m 54.698023,91.962718 c 0,0 -2.670096,10.064772 -7.499801,14.828032 -4.228125,4.16996 -5.142838,5.01055 -5.142838,5.01055 0,0 4.547526,2.92695 6.598046,2.92695 h 2.050521 l 4.742863,-11.04635 c -1.333621,5.68444 -1.051016,8.40658 -0.22841,11.04635 h 21.738209 21.887034 c 0.80758,-2.73449 0.696222,-6.36411 -0.376722,-11.04635 l 4.742345,11.04635 h 2.05052 c 2.05052,0 6.59805,-2.92695 6.59805,-2.92695 0,0 -0.91472,-0.84059 -5.14284,-5.01055 -4.82971,-4.76326 -7.371174,-14.828032 -7.371174,-14.828032 L 76.956613,105.53398 Z"
         sodipodi:nodetypes="cscscccccccscsccc" />
      <g
         style="opacity:0.614243"
         clip-path="url(#clipPath935)"
         transform="translate(-3.1431825,3.5282261)"
         id="g2973"
         mask="none">
        <path
           sodipodi:nodetypes="sssss"
           d="m 56.492845,100.09971 c -5.665093,5.70074 -6.715417,11.77113 -7.672794,11.10031 -0.957377,-0.67082 -2.265671,-12.643616 5.539272,-14.560502 5.505435,-1.352131 10.204403,-9.945723 11.161781,-9.274908 0.957379,0.670816 -3.994577,7.669753 -9.028259,12.7351 z"
           style="opacity:0.994;fill:url(#linearGradient887);fill-opacity:1;stroke:url(#linearGradient887);stroke-width:1;stroke-linecap:square;stroke-linejoin:miter;stroke-miterlimit:4;stroke-dasharray:none;stroke-opacity:1;paint-order:stroke fill markers"
           id="path2936" />
        <path
           id="path2939"
           style="opacity:0.994;fill:url(#linearGradient903);fill-opacity:1;stroke:url(#linearGradient903);stroke-width:1;stroke-linecap:square;stroke-linejoin:miter;stroke-miterlimit:4;stroke-dasharray:none;stroke-opacity:1;paint-order:stroke fill markers"
           d="m 62.596868,102.43353 c 0.537082,8.01893 4.40032,12.8177 3.264256,13.09325 -1.136065,0.27555 -10.988484,-6.65189 -7.271332,-13.7775 2.621994,-5.026248 -0.725038,-14.231003 0.411024,-14.506557 1.136062,-0.275555 3.118836,8.065644 3.596052,15.190807 z"
           sodipodi:nodetypes="sssss" />
        <path
           sodipodi:nodetypes="sssss"
           d="m 66.269609,99.650407 c 0.537082,8.018933 4.40032,12.817703 3.264256,13.093253 -1.136065,0.27555 -10.988484,-6.65189 -7.271332,-13.777503 2.621994,-5.026248 -0.725038,-14.231003 0.411024,-14.506557 1.136062,-0.275555 3.118836,8.065644 3.596052,15.190807 z"
           style="opacity:0.994;fill:url(#linearGradient909);fill-opacity:1;stroke:url(#linearGradient909);stroke-width:1;stroke-linecap:square;stroke-linejoin:miter;stroke-miterlimit:4;stroke-dasharray:none;stroke-opacity:1;paint-order:stroke fill markers"
           id="path2941" />
        <path
           id="path2943"
           style="opacity:0.994;fill:url(#linearGradient915);fill-opacity:1;stroke:url(#linearGradient915);stroke-width:1;stroke-linecap:square;stroke-linejoin:miter;stroke-miterlimit:4;stroke-dasharray:none;stroke-opacity:1;paint-order:stroke fill markers"
           d="m 70.595765,103.05881 c 0.537082,8.01893 4.40032,12.8177 3.264256,13.09325 -1.136065,0.27555 -10.988484,-6.65189 -7.271332,-13.7775 2.621994,-5.026248 -0.725038,-14.231003 0.411024,-14.506557 1.136062,-0.275555 3.118836,8.065644 3.596052,15.190807 z"
           sodipodi:nodetypes="sssss" />
        <path
           sodipodi:nodetypes="sssss"
           d="m 74.237084,100.02536 c 0.537082,8.01893 4.40032,12.8177 3.264256,13.09325 -1.136065,0.27555 -10.988484,-6.65189 -7.271332,-13.777501 2.621994,-5.026248 -0.725038,-14.231003 0.411024,-14.506557 1.136062,-0.275555 3.118836,8.065644 3.596052,15.190808 z"
           style="opacity:0.994;fill:url(#linearGradient887);fill-opacity:1;stroke:url(#linearGradient887);stroke-width:1;stroke-linecap:square;stroke-linejoin:miter;stroke-miterlimit:4;stroke-dasharray:none;stroke-opacity:1;paint-order:stroke fill markers"
           id="path2945" />
        <path
           id="path2947"
           style="opacity:0.994;fill:url(#linearGradient897);fill-opacity:1;stroke:url(#linearGradient897);stroke-width:1;stroke-linecap:square;stroke-linejoin:miter;stroke-miterlimit:4;stroke-dasharray:none;stroke-opacity:1;paint-order:stroke fill markers"
           d="m 78.441819,102.63862 c 0.537082,8.01893 4.40032,12.8177 3.264256,13.09325 -1.136065,0.27555 -10.988484,-6.65189 -7.271332,-13.7775 2.621994,-5.026246 -0.725038,-14.231001 0.411024,-14.506555 1.136062,-0.275555 3.118836,8.065644 3.596052,15.190805 z"
           sodipodi:nodetypes="sssss" />
        <path
           sodipodi:nodetypes="sssss"
           d="m 82.419541,100.59951 c 0.537082,8.01893 4.40032,12.8177 3.264256,13.09325 -1.136065,0.27555 -10.988484,-6.65189 -7.271332,-13.777497 2.621994,-5.026246 -0.725038,-14.231001 0.411024,-14.506555 1.136062,-0.275555 3.118836,8.065644 3.596052,15.190802 z"
           style="opacity:0.994;fill:url(#linearGradient903);fill-opacity:1;stroke:url(#linearGradient903);stroke-width:1;stroke-linecap:square;stroke-linejoin:miter;stroke-miterlimit:4;stroke-dasharray:none;stroke-opacity:1;paint-order:stroke fill markers"
           id="path2949" />
        <path
           id="path2951"
           style="opacity:0.994;fill:url(#linearGradient909);fill-opacity:1;stroke:url(#linearGradient909);stroke-width:1;stroke-linecap:square;stroke-linejoin:miter;stroke-miterlimit:4;stroke-dasharray:none;stroke-opacity:1;paint-order:stroke fill markers"
           d="m 86.574461,102.83251 c 0.537082,8.01893 4.40032,12.8177 3.264256,13.09325 -1.136065,0.27555 -10.988484,-6.65189 -7.271332,-13.77749 2.621994,-5.026248 -0.725038,-14.231003 0.411024,-14.506557 1.136062,-0.275555 3.118836,8.065644 3.596052,15.190797 z"
           sodipodi:nodetypes="sssss" />
        <path
           sodipodi:nodetypes="sssss"
           d="m 90.946654,99.440114 c -1.775962,7.838216 0.555498,13.540586 -0.611941,13.480136 -1.16744,-0.0605 -8.630454,-9.51366 -3.032709,-15.280516 3.948524,-4.067823 3.370362,-13.845137 4.5378,-13.784685 1.167439,0.06045 0.68487,8.620482 -0.89315,15.585065 z"
           style="opacity:0.994;fill:url(#linearGradient915);fill-opacity:1;stroke:url(#linearGradient915);stroke-width:1;stroke-linecap:square;stroke-linejoin:miter;stroke-miterlimit:4;stroke-dasharray:none;stroke-opacity:1;paint-order:stroke fill markers"
           id="path2953" />
        <path
           id="path2955"
           style="opacity:0.994;fill:url(#linearGradient887);fill-opacity:1;stroke:url(#linearGradient887);stroke-width:1;stroke-linecap:square;stroke-linejoin:miter;stroke-miterlimit:4;stroke-dasharray:none;stroke-opacity:1;paint-order:stroke fill markers"
           d="m 94.591304,101.24049 c -1.775962,7.83822 0.555498,13.54059 -0.611941,13.48014 -1.16744,-0.0605 -8.630454,-9.51366 -3.032709,-15.280516 3.948524,-4.067823 3.370362,-13.845137 4.5378,-13.784685 1.167439,0.06045 0.68487,8.620482 -0.89315,15.585061 z"
           sodipodi:nodetypes="sssss" />
        <path
           sodipodi:nodetypes="sssss"
           d="m 104.69133,98.581098 c -1.77596,7.838222 0.5555,13.540592 -0.61194,13.480142 -1.16744,-0.0605 -8.630454,-9.51366 -3.03271,-15.280518 3.94853,-4.067823 3.37036,-13.845137 4.5378,-13.784685 1.16744,0.06045 0.68487,8.620482 -0.89315,15.585061 z"
           style="opacity:0.994;fill:url(#linearGradient903);fill-opacity:1;stroke:url(#linearGradient903);stroke-width:1;stroke-linecap:square;stroke-linejoin:miter;stroke-miterlimit:4;stroke-dasharray:none;stroke-opacity:1;paint-order:stroke fill markers"
           id="path2957" />
        <path
           id="path2959"
           style="opacity:0.994;fill:url(#linearGradient909);fill-opacity:1;stroke:url(#linearGradient909);stroke-width:1;stroke-linecap:square;stroke-linejoin:miter;stroke-miterlimit:4;stroke-dasharray:none;stroke-opacity:1;paint-order:stroke fill markers"
           d="m 104.84248,96.853834 c 4.12348,6.898456 9.74586,9.416716 8.8592,10.178566 -0.88668,0.76182 -12.8113,-0.93002 -12.73939,-8.966571 0.0507,-5.668818 -7.11465,-12.346209 -6.227996,-13.108059 0.886652,-0.761851 6.444316,5.766501 10.108186,11.896064 z"
           sodipodi:nodetypes="sssss" />
      </g>
      <path
         sodipodi:nodetypes="cscscccccccscsccc"
         d="m 54.698023,91.962718 c 0,0 -2.670096,10.064772 -7.499801,14.828032 -4.228125,4.16996 -5.142838,5.01055 -5.142838,5.01055 0,0 4.547526,2.92695 6.598046,2.92695 h 2.050521 l 4.742863,-11.04635 c -1.333621,5.68444 -1.051016,8.40658 -0.22841,11.04635 h 21.738209 21.887034 c 0.80758,-2.73449 0.696222,-6.36411 -0.376722,-11.04635 l 4.742345,11.04635 h 2.05052 c 2.05052,0 6.59805,-2.92695 6.59805,-2.92695 0,0 -0.91472,-0.84059 -5.14284,-5.01055 -4.82971,-4.76326 -7.371174,-14.828032 -7.371174,-14.828032 L 76.956613,105.53398 Z"
         style="fill:none;fill-opacity:1;stroke:#027592;stroke-width:1;stroke-linecap:square;stroke-linejoin:miter;stroke-miterlimit:4;stroke-dasharray:none;stroke-opacity:1"
         id="path939" />
    </g>
  </g>
  <g
     style="display:inline"
     inkscape:groupmode="layer"
     id="layer3"
     inkscape:label="Pants"
     transform="translate(-38.136244,-44.878254)">
    <g
       id="g3072"
       style="display:inline"
       transform="translate(-1.2708333e-6)">
      <path
         style="fill:#ffffff;stroke:#77767b;stroke-width:1;stroke-linecap:square;stroke-linejoin:miter;stroke-miterlimit:4;stroke-dasharray:none;stroke-opacity:1"
         d="m 55.071095,114.72825 c 0.256857,5.59043 4.002938,11.67047 11.059976,15.55898 0,0 2.705142,6.69902 0.447881,12.48686 -0.946842,2.42779 -1.536027,4.56933 -1.536027,4.56933 0,0 0.968125,2.19084 5.365154,2.04525 4.231693,-0.14011 3.976081,-2.77813 3.976081,-2.77813 l -0.171074,-13.9359 c 2.743648,0.84356 4.160623,0.73622 6.479741,-0.12787 l -0.44576,15.24637 c 0,0 -0.189237,1.79396 3.323929,1.59553 3.513167,-0.19844 5.299105,-1.12448 5.299105,-1.12448 0,0 -2.410463,-2.42656 -2.116667,-10.31875 0.212407,-5.70585 0.270042,-7.20234 0.270042,-7.20234 7.249845,-3.80477 12.423014,-8.71584 11.98554,-16.01485 z"
         id="path3012"
         sodipodi:nodetypes="ccscsccccscsccc" />
      <g
         id="g3060">
        <g
           id="g3050">
          <circle
             style="opacity:0.994;fill:url(#linearGradient3024);fill-opacity:1;stroke:none;stroke-width:1;stroke-linecap:square;stroke-linejoin:miter;stroke-miterlimit:4;stroke-dasharray:none;stroke-opacity:1;paint-order:stroke fill markers"
             id="path3016"
             cx="76.956734"
             cy="116.9075"
             r="0.82326573" />
          <circle
             r="0.82326573"
             cy="119.02418"
             cx="76.956734"
             id="circle3026"
             style="opacity:0.994;fill:url(#linearGradient3028);fill-opacity:1;stroke:none;stroke-width:1;stroke-linecap:square;stroke-linejoin:miter;stroke-miterlimit:4;stroke-dasharray:none;stroke-opacity:1;paint-order:stroke fill markers" />
          <circle
             style="opacity:0.994;fill:url(#linearGradient3032);fill-opacity:1;stroke:none;stroke-width:1;stroke-linecap:square;stroke-linejoin:miter;stroke-miterlimit:4;stroke-dasharray:none;stroke-opacity:1;paint-order:stroke fill markers"
             id="circle3030"
             cx="76.956734"
             cy="121.14082"
             r="0.82326573" />
          <circle
             r="0.82326573"
             cy="123.25748"
             cx="76.956734"
             id="circle3034"
             style="opacity:0.994;fill:url(#linearGradient3036);fill-opacity:1;stroke:none;stroke-width:1;stroke-linecap:square;stroke-linejoin:miter;stroke-miterlimit:4;stroke-dasharray:none;stroke-opacity:1;paint-order:stroke fill markers" />
        </g>
        <g
           id="g3044">
          <path
             style="fill:none;stroke:#77767b;stroke-width:0.265;stroke-linecap:butt;stroke-linejoin:miter;stroke-miterlimit:4;stroke-dasharray:0.53, 0.265;stroke-dashoffset:0;stroke-opacity:1"
             d="m 61.241694,114.72825 c 0,0 0.50354,2.72251 0.312463,3.91212 -0.847365,5.27552 -4.467536,2.94003 -4.467536,2.94003"
             id="path3038"
             sodipodi:nodetypes="csc" />
          <path
             sodipodi:nodetypes="csc"
             id="path3040"
             d="m 93.39718,114.72825 c 0,0 -0.50354,2.72251 -0.312463,3.91212 0.847365,5.27552 4.467536,2.94003 4.467536,2.94003"
             style="fill:none;stroke:#77767b;stroke-width:0.265;stroke-linecap:butt;stroke-linejoin:miter;stroke-miterlimit:4;stroke-dasharray:0.53, 0.265;stroke-dashoffset:0;stroke-opacity:1" />
        </g>
      </g>
    </g>
  </g>
  <g
     style="display:inline"
     inkscape:label="Hat"
     id="layer5"
     inkscape:groupmode="layer">
    <g
       id="g923"
       style="display:inline"
       transform="translate(-38.136245,-44.878255)">
      <ellipse
         style="opacity:0.994;fill:url(#linearGradient3102);fill-opacity:1;stroke:#4a2e1c;stroke-width:1;stroke-linecap:square;stroke-linejoin:miter;stroke-miterlimit:4;stroke-dasharray:none;stroke-dashoffset:0;stroke-opacity:1;paint-order:stroke fill markers"
         id="path3094"
         cx="67.211784"
         cy="72.691277"
         rx="7.4133883"
         ry="7.4601607" />
      <ellipse
         ry="7.4601607"
         rx="7.4133883"
         cy="72.382607"
         cx="86.647568"
         id="ellipse3104"
         style="opacity:0.994;fill:url(#linearGradient3106);fill-opacity:1;stroke:#4a2e1c;stroke-width:1;stroke-linecap:square;stroke-linejoin:miter;stroke-miterlimit:4;stroke-dasharray:none;stroke-dashoffset:0;stroke-opacity:1;paint-order:stroke fill markers" />
      <path
         style="fill:none;stroke:#4a2e1c;stroke-width:1;stroke-linecap:butt;stroke-linejoin:miter;stroke-miterlimit:4;stroke-dasharray:none;stroke-opacity:1"
         d="m 74.625172,72.691277 h 4.615354"
         id="path3108" />
      <path
         id="path3110"
         style="fill:#63452c;stroke:#332417;stroke-width:0.999999px;stroke-linecap:butt;stroke-linejoin:miter;stroke-opacity:1"
         d="m 125.5,139 c -18.33284,3.46745 -23.23216,9.41493 -19.92773,16.87695 11.39348,-11.67114 24.53255,-5.93035 41.15084,-7.625 15.42518,0.92903 30.10126,1.09631 45.15189,7 -4.75805,-8.88341 -10.61907,-16.579 -23.92969,-16.25195 h -21.22265 z"
         transform="matrix(0.26458333,0,0,0.26458333,38.136244,44.878254)"
         sodipodi:nodetypes="ccccccc" />
    </g>
  </g>
</svg>
