<?xml version="1.0" encoding="UTF-8" standalone="no"?>
<svg
   xmlns:osb="http://www.openswatchbook.org/uri/2009/osb"
   xmlns:dc="http://purl.org/dc/elements/1.1/"
   xmlns:cc="http://creativecommons.org/ns#"
   xmlns:rdf="http://www.w3.org/1999/02/22-rdf-syntax-ns#"
   xmlns:svg="http://www.w3.org/2000/svg"
   xmlns="http://www.w3.org/2000/svg"
   xmlns:sodipodi="http://sodipodi.sourceforge.net/DTD/sodipodi-0.dtd"
   xmlns:inkscape="http://www.inkscape.org/namespaces/inkscape"
   width="100mm"
   height="100mm"
   viewBox="0 0 100 100"
   version="1.1"
   id="svg8"
   inkscape:version="1.0 (4035a4fb49, 2020-05-01)"
   sodipodi:docname="original.svg">
  <defs
     id="defs2">
    <inkscape:path-effect
       simplify_just_coalesce="false"
       simplify_individual_paths="false"
       helper_size="0"
       smooth_angles="360"
       threshold="0.000736842"
       steps="1"
       lpeversion="1"
       is_visible="true"
       id="path-effect1286"
       effect="simplify" />
    <inkscape:path-effect
       simplify_just_coalesce="false"
       simplify_individual_paths="false"
       helper_size="0"
       smooth_angles="360"
       threshold="0.000736842"
       steps="1"
       lpeversion="1"
       is_visible="true"
       id="path-effect1205"
       effect="simplify" />
    <inkscape:path-effect
       effect="simplify"
       id="path-effect1276"
       is_visible="true"
       lpeversion="1"
       steps="1"
       threshold="0.000736842"
       smooth_angles="360"
       helper_size="0"
       simplify_individual_paths="false"
       simplify_just_coalesce="false" />
    <inkscape:path-effect
       effect="simplify"
       id="path-effect1265"
       is_visible="true"
       lpeversion="1"
       steps="1"
       threshold="0.000736842"
       smooth_angles="360"
       helper_size="0"
       simplify_individual_paths="false"
       simplify_just_coalesce="false" />
    <clipPath
       clipPathUnits="userSpaceOnUse"
       id="clipPath857">
      <circle
         style="fill:#cdab8f;fill-rule:evenodd;stroke-width:0.821605;stroke-linecap:round;paint-order:stroke fill markers"
         id="circle859"
         cx="50.914845"
         cy="50.113037"
         r="40.491337" />
    </clipPath>
    <clipPath
       clipPathUnits="userSpaceOnUse"
       id="clipPath863">
      <circle
         style="fill:#cdab8f;fill-rule:evenodd;stroke-width:0.821605;stroke-linecap:round;paint-order:stroke fill markers"
         id="circle865"
         cx="50.914845"
         cy="50.113037"
         r="40.491337" />
    </clipPath>
    <inkscape:path-effect
       simplify_just_coalesce="false"
       simplify_individual_paths="false"
       helper_size="0"
       smooth_angles="360"
       threshold="0.000736842"
       steps="1"
       lpeversion="1"
       is_visible="true"
       id="path-effect1279"
       effect="simplify" />
    <inkscape:path-effect
       effect="simplify"
       id="path-effect1275"
       is_visible="true"
       lpeversion="1"
       steps="1"
       threshold="0.000736842"
       smooth_angles="360"
       helper_size="0"
       simplify_individual_paths="false"
       simplify_just_coalesce="false" />
    <linearGradient
       id="linearGradient1155"
       osb:paint="solid">
      <stop
         style="stop-color:#cccccc;stop-opacity:1;"
         offset="0"
         id="stop1153" />
    </linearGradient>
    <linearGradient
       id="linearGradient1149"
       osb:paint="solid"
       gradientTransform="matrix(0.26774476,0,0,0.12729294,-1.365451,12.509803)">
      <stop
         style="stop-color:#878787;stop-opacity:1;"
         offset="0"
         id="stop1147" />
    </linearGradient>
    <linearGradient
       id="linearGradient1143"
       osb:paint="solid"
       gradientTransform="matrix(0.26774476,0,0,0.12729294,-1.365451,12.509803)">
      <stop
         style="stop-color:#dddddd;stop-opacity:1;"
         offset="0"
         id="stop1141" />
    </linearGradient>
    <linearGradient
       id="linearGradient1137"
       osb:paint="solid">
      <stop
         style="stop-color:#1fe633;stop-opacity:1;"
         offset="0"
         id="stop1135" />
    </linearGradient>
    <linearGradient
       id="linearGradient1131"
       osb:paint="solid">
      <stop
         style="stop-color:#77ff77;stop-opacity:1;"
         offset="0"
         id="stop1129" />
    </linearGradient>
    <clipPath
       clipPathUnits="userSpaceOnUse"
       id="clipPath1270">
      <path
         clip-path="url(#clipPath857)"
         id="path1272"
         d="M 5.8799295,63.209243 32.072344,28.597838 78.710874,93.677969 27.395127,97.286108 Z"
         style="fill:#5e5c64;stroke:none;stroke-width:0.264583px;stroke-linecap:butt;stroke-linejoin:miter;stroke-opacity:1" />
    </clipPath>
    <clipPath
       clipPathUnits="userSpaceOnUse"
       id="clipPath1281">
      <path
         clip-path="url(#clipPath863)"
         id="path1283"
         d="M 62.54107,19.64431 35.279578,92.207986 115.05953,77.240894 Z"
         style="fill:#77767b;stroke:none;stroke-width:0.264583px;stroke-linecap:butt;stroke-linejoin:miter;stroke-opacity:1" />
    </clipPath>
    <linearGradient
       gradientTransform="matrix(-0.26458333,0,0,0.26458333,73.141828,44.547524)"
       osb:paint="solid"
       id="linearGradient966">
      <stop
         id="stop964"
         offset="0"
         style="stop-color:#acc12f;stop-opacity:1;" />
    </linearGradient>
    <linearGradient
       gradientTransform="matrix(-1,0,0,1,153.91346,-3.2291673e-6)"
       osb:paint="solid"
       id="linearGradient960">
      <stop
         id="stop958"
         offset="0"
         style="stop-color:#96a13a;stop-opacity:1;" />
    </linearGradient>
    <linearGradient
       gradientTransform="matrix(-1,0,0,1,153.91346,-3.2291673e-6)"
       osb:paint="solid"
       id="linearGradient954">
      <stop
         id="stop952"
         offset="0"
         style="stop-color:#6c7d47;stop-opacity:1;" />
    </linearGradient>
    <linearGradient
       osb:paint="solid"
       id="linearGradient948">
      <stop
         id="stop946"
         offset="0"
         style="stop-color:#575c55;stop-opacity:1;" />
    </linearGradient>
    <linearGradient
       gradientTransform="matrix(-3.7795276,0,0,3.7795276,437.58322,-169.61861)"
       osb:paint="solid"
       id="linearGradient942">
      <stop
         id="stop940"
         offset="0"
         style="stop-color:#45425a;stop-opacity:1;" />
    </linearGradient>
    <clipPath
       id="clipPath1148"
       clipPathUnits="userSpaceOnUse">
      <path
         id="path1150"
         style="fill:url(#linearGradient960);stroke:url(#linearGradient954);stroke-width:1;stroke-linecap:butt;stroke-linejoin:miter;stroke-miterlimit:4;stroke-dasharray:none;stroke-opacity:1"
         d="m 54.658233,94.176021 -6.287988,9.435599 4.494299,2.58486 1.297595,-2.14044 0.110587,10.67221 h 22.683888 22.684402 l 0.110588,-10.67221 1.297076,2.14044 4.4943,-2.58486 -6.122105,-9.435599 -22.464141,2.899873 z"
         sodipodi:nodetypes="ccccccccccccc" />
    </clipPath>
    <clipPath
       id="clipPath1279"
       clipPathUnits="userSpaceOnUse">
      <circle
         style="fill:#99c1f1;fill-rule:evenodd;stroke-width:0.821605;stroke-linecap:round;paint-order:stroke fill markers"
         id="circle1281"
         cx="50.914845"
         cy="50.113037"
         r="40.491337" />
    </clipPath>
    <clipPath
       id="clipPath1291"
       clipPathUnits="userSpaceOnUse">
      <circle
         style="fill:#99c1f1;fill-rule:evenodd;stroke-width:0.821605;stroke-linecap:round;paint-order:stroke fill markers"
         id="circle1293"
         cx="50.914845"
         cy="50.113037"
         r="40.491337" />
    </clipPath>
  </defs>
  <sodipodi:namedview
     id="base"
     pagecolor="#ffffff"
     bordercolor="#666666"
     borderopacity="1.0"
     inkscape:pageopacity="0.0"
     inkscape:pageshadow="2"
     inkscape:zoom="1.979899"
     inkscape:cx="189.89479"
     inkscape:cy="177.37813"
     inkscape:document-units="mm"
     inkscape:current-layer="layer1"
     inkscape:document-rotation="0"
     showgrid="false"
     showguides="true"
     inkscape:guide-bbox="true"
     inkscape:window-width="1920"
     inkscape:window-height="1017"
     inkscape:window-x="-8"
     inkscape:window-y="-8"
     inkscape:window-maximized="1" />
  <metadata
     id="metadata5">
    <rdf:RDF>
      <cc:Work
         rdf:about="">
        <dc:format>image/svg+xml</dc:format>
        <dc:type
           rdf:resource="http://purl.org/dc/dcmitype/StillImage" />
        <dc:title />
      </cc:Work>
    </rdf:RDF>
  </metadata>
  <g
     inkscape:label="Ebene 1"
     inkscape:groupmode="layer"
     id="layer1">
    <path
       id="path861"
       style="fill:#f5c211;paint-order:stroke fill markers"
       fill="#c01c28"
       d="m 99.75256,74.185173 -5.7934,5.8395 5.7934,5.8395 h -23.463 v -11.679 z" />
    <path
       id="path863"
       fill="#a51d2d"
       d="m 91.745735,82.903903 -17.67,3.4745 v -3.4745 z"
       style="fill:#e5a50a" />
    <path
       id="path857"
       style="fill:#f5c211;paint-order:stroke fill markers"
       fill="#c01c28"
       d="m 1.8098601,74.395173 5.7934,5.8395 -5.7934,5.8395 H 25.27286 v -11.679 z" />
    <path
       id="path859"
       fill="#a51d2d"
       d="m 10.51326,83.171173 17.67,3.4745 v -3.4745 z"
       style="fill:#e5a50a" />
    <circle
       style="fill:#63452c;fill-rule:evenodd;stroke-width:0.873125;stroke-linecap:round;paint-order:stroke fill markers"
       id="path841"
       cx="50.914845"
       cy="50.113037"
       r="43.030396" />
    <circle
       r="40.491337"
       cy="50.113037"
       cx="50.914845"
       id="circle843"
       style="fill:#99c1f1;fill-rule:evenodd;stroke-width:0.821605;stroke-linecap:round;paint-order:stroke fill markers" />
    <path
       clip-path="url(#clipPath1291)"
       d="m 94.212507,33.275055 c -2.049891,-1.653578 -3.711111,-4.114826 -6.446463,-4.651001 -3.401108,-0.262745 -6.165186,2.406241 -9.515677,2.55532 -2.558759,0.124022 -5.134333,-0.818811 -7.666907,-0.07029 -2.584936,0.656032 -4.805982,2.40166 -6.404013,4.494689 -0.923503,1.316829 -1.550873,3.226398 -0.403324,4.614608 1.809687,2.454687 4.702497,3.826697 7.519063,4.791283 5.127684,1.692557 10.721234,-0.159224 15.800102,1.796958 1.980923,0.790814 4.231428,0.85418 6.198747,-0.01157 2.253247,-0.905931 4.705919,-2.59455 5.029965,-5.196453 0.178846,-2.004509 -0.519544,-4.055396 -1.704211,-5.654149 -1.118027,-0.740042 -2.575355,-0.928319 -2.407282,-2.669395 z"
       style="fill:#cce0f8;fill-opacity:1;stroke:none;stroke-width:0.264583px;stroke-linecap:butt;stroke-linejoin:miter;stroke-opacity:1"
       id="path1284" />
    <path
       style="fill:#77767b;stroke:none;stroke-width:0.264583px;stroke-linecap:butt;stroke-linejoin:miter;stroke-opacity:1"
       d="M 62.54107,19.64431 35.279578,92.207986 115.05953,77.240894 Z"
       id="path853"
       clip-path="url(#clipPath863)" />
    <path
       style="fill:#5e5c64;stroke:none;stroke-width:0.264583px;stroke-linecap:butt;stroke-linejoin:miter;stroke-opacity:1"
       d="M 5.8799295,63.209243 32.072344,28.597838 78.710874,93.677969 27.395127,97.286108 Z"
       id="path851"
       clip-path="url(#clipPath857)" />
    <g
       transform="matrix(0.50703093,0,0,0.50703093,-48.577124,-28.62924)"
       inkscape:label="Pants"
       id="layer3"
       style="display:inline" />
    <rect
       id="rect869"
       style="fill:#f6d32d;paint-order:stroke fill markers"
       fill="#e01b24"
       ry="0"
       height="11.679"
       width="80.565002"
       y="71.493179"
       x="10.513259" />
    <path
       clip-path="url(#clipPath1279)"
       d="m 19.276786,20.221726 c 3.332114,-1.403132 6.925411,-0.275628 10.225707,0.607515 4.812449,1.523851 9.809484,-1.309805 14.606684,0.229639 2.952119,0.849687 4.358795,4.252727 3.828388,7.101852 -0.24896,2.160082 -2.116928,3.792595 -4.209788,4.101882 -2.534167,0.425267 -5.24089,-0.259639 -7.643215,0.911418 -2.700879,1.17491 -5.200989,3.08655 -8.257909,3.184608 -2.476294,0.269176 -4.918312,-0.27541 -7.329425,-0.754033 -1.776369,-0.412139 -3.438788,0.427905 -5.136459,0.781065 -2.247277,0.312151 -4.691357,0.244716 -6.7232638,-0.86675 -1.2536236,-1.121778 -1.394212,-2.99847 -1.4972355,-4.583187 0.097876,-2.624114 1.0237874,-5.552096 3.5135273,-6.842851 1.806645,-1.081405 3.626005,-2.163182 5.292445,-3.444149 1.060514,-0.387448 2.213599,-0.417417 3.330544,-0.427009 z"
       style="fill:#cce0f8;fill-opacity:1;stroke:none;stroke-width:0.264583px;stroke-linecap:butt;stroke-linejoin:miter;stroke-opacity:1"
       id="path1203" />
    <path
       id="path1263"
       style="fill:#ffffff;stroke:none;stroke-width:0.264583px;stroke-linecap:butt;stroke-linejoin:miter;stroke-opacity:1"
       d="m 14.165285,50.113035 c 2.401598,-0.02956 5.103484,-0.153424 6.958466,1.679076 1.632993,1.435826 3.38697,3.173012 5.741846,3.056057 1.727649,0.09421 3.515188,-0.18071 4.967236,-1.177384 2.644921,-0.808984 5.633546,-1.025297 8.177989,0.244296 2.340888,1.014673 5.032353,1.31568 7.529949,0.806135 1.486386,-0.961451 3.339023,-1.793356 4.088905,-3.50012 0.621089,-2.523278 0.364127,-5.177577 0.198605,-7.745712 -0.561176,-5.390249 -3.048429,-10.30374 -5.344091,-15.12499 -1.423401,-3.004957 -4.586039,-4.77311 -7.811849,-5.102058 -2.565075,-0.302955 -5.172505,-0.33876 -7.746591,-0.188739 -4.951905,1.330868 -9.796316,3.350832 -13.981153,6.348307 -3.091697,2.091372 -4.74808,5.662904 -5.380464,9.247811 -0.721298,3.248454 -1.363305,6.684297 -0.264171,9.931178 0.350652,1.474042 1.345925,2.771643 2.865323,1.526143 z"
       clip-path="url(#clipPath1270)" />
    <path
       id="path1274"
       style="fill:#deddda;stroke:none;stroke-width:0.264583px;stroke-linecap:butt;stroke-linejoin:miter;stroke-opacity:1"
       d="m 51.04848,38.353177 c 2.283029,-0.835515 4.752283,-1.295277 7.186877,-1.209286 2.028512,0.03361 3.420401,1.832939 5.405762,2.042813 1.482909,0.2854 3.39642,0.57942 4.437167,-0.819303 1.137297,-1.312535 2.621381,-2.548264 4.472199,-2.45329 1.933002,0.135621 3.881874,0.05367 5.753345,-0.491368 2.665846,-0.719218 5.550412,-2.085202 6.695385,-4.759132 0.304278,-1.583969 0.09257,-3.224905 0.07624,-4.830254 -0.231272,-2.066266 -1.630043,-3.743515 -2.727786,-5.430517 -1.810559,-2.586121 -4.218801,-4.80555 -7.186687,-5.973724 -2.433045,-0.950952 -4.794431,-2.118516 -7.312587,-2.828732 -2.714778,-0.71158 -5.325357,0.824014 -7.6149,2.095796 -2.599278,1.552967 -5.071368,3.602348 -6.285791,6.452279 -1.602387,3.325007 -3.774046,6.632493 -3.768194,10.454792 -0.07225,2.069745 -0.368977,4.245016 0.281126,6.244561 0.242946,0.478952 0.599458,0.941269 0.587847,1.505365 z"
       clip-path="url(#clipPath1281)" />
    <g
       transform="matrix(0.13994842,0,0,0.13994842,38.964084,47.82207)"
       id="g1128">
      <g
         inkscape:label="Body"
         id="layer1-6"
         style="display:inline"
         transform="translate(-38.136244,-44.878254)">
        <path
           sodipodi:nodetypes="ccc"
           id="path72"
           d="m 55.975777,95.281378 -5.149454,9.723432 -5.149454,9.72344"
           style="fill:#be747c;stroke:#be747c;stroke-width:4;stroke-linecap:round;stroke-linejoin:miter;stroke-miterlimit:4;stroke-dasharray:none;stroke-opacity:1" />
        <path
           style="fill:none;stroke:#be747c;stroke-width:4;stroke-linecap:round;stroke-linejoin:miter;stroke-miterlimit:4;stroke-dasharray:none;stroke-opacity:1"
           d="m 97.93211,95.281375 11.05783,-1.257752 10.28199,-7.166106"
           id="path897"
           sodipodi:nodetypes="ccc" />
        <path
           id="path903"
           d="m 70.40808,131.1211 v 18.26757"
           style="fill:none;stroke:#be747c;stroke-width:4;stroke-linecap:round;stroke-linejoin:miter;stroke-miterlimit:4;stroke-dasharray:none;stroke-opacity:1" />
        <path
           style="fill:none;stroke:#be747c;stroke-width:4;stroke-linecap:round;stroke-linejoin:miter;stroke-miterlimit:4;stroke-dasharray:none;stroke-opacity:1"
           d="m 83.570994,131.1211 v 18.26757"
           id="path905" />
        <path
           d="M 66.294605,54.093618 C 59.584927,57.960428 55.446669,65.139279 55.44661,72.912197 v 37.725093 c -1.26e-4,7.70526 4.066832,14.83237 10.684462,18.7239 6.67584,3.92577 14.931536,3.96209 21.64132,0.0952 6.709833,-3.8669 10.848119,-11.04597 10.848006,-18.81907 V 72.912197 h -0.1079 C 98.534939,65.22924 94.511937,58.107432 87.935926,54.188789 81.26008,50.263026 73.004384,50.22672 66.294605,54.093618 Z"
           style="fill:#d8acb2;stroke:#be747c;stroke-width:2.09947;stroke-linecap:round;stroke-linejoin:bevel;stroke-miterlimit:4;stroke-dasharray:none;stroke-opacity:1"
           id="path1031"
           sodipodi:nodetypes="cccssccccc" />
        <path
           sodipodi:nodetypes="sssss"
           d="m 68.583792,59.100081 c -4.216396,2.212808 -4.137399,5.203559 -6.848888,5.069084 -2.435709,-0.1208 -0.148435,-4.190036 3.136594,-6.399604 3.442285,-2.31534 6.368359,-3.648691 8.550789,-3.051539 2.817041,0.770792 -3.335644,3.593347 -4.838495,4.382059 z"
           style="fill:#e5c8cb;fill-opacity:1;stroke:none;stroke-width:0.335388;stroke-linecap:round;stroke-linejoin:bevel;stroke-miterlimit:4;stroke-dasharray:none;stroke-opacity:1"
           id="path1061" />
      </g>
      <g
         style="display:inline"
         id="layer4"
         inkscape:label="Face">
        <g
           style="display:inline"
           transform="translate(-41.279426,-41.350028)"
           id="g1049">
          <path
             style="fill:none;stroke:#000000;stroke-width:1.165;stroke-linecap:round;stroke-linejoin:miter;stroke-miterlimit:4;stroke-dasharray:none;stroke-opacity:1"
             d="m 71.047988,79.603041 c 0,0 7.723717,8.706265 17.270412,0.269784"
             id="path1033" />
          <g
             id="g1047">
            <g
               id="g1039">
              <ellipse
                 cy="69.163048"
                 cx="73.014366"
                 id="ellipse1035"
                 style="fill:#e5c8cb;fill-opacity:1;stroke:#e5c8cb;stroke-width:1.45886;stroke-linecap:round;stroke-linejoin:bevel;stroke-miterlimit:4;stroke-dasharray:none;stroke-opacity:1"
                 rx="2.6593986"
                 ry="4.6437736" />
              <circle
                 style="fill:#000000;fill-opacity:1;stroke:#000000;stroke-width:1.165;stroke-linecap:round;stroke-linejoin:bevel;stroke-miterlimit:4;stroke-dasharray:none;stroke-opacity:1"
                 id="circle1037"
                 cx="73.014366"
                 cy="71.147423"
                 r="2.80633" />
            </g>
            <g
               id="g1045">
              <ellipse
                 ry="4.6437736"
                 rx="2.6593986"
                 style="fill:#e5c8cb;fill-opacity:1;stroke:#e5c8cb;stroke-width:1.45886;stroke-linecap:round;stroke-linejoin:bevel;stroke-miterlimit:4;stroke-dasharray:none;stroke-opacity:1"
                 id="ellipse1041"
                 cx="87.131348"
                 cy="68.854378" />
              <circle
                 style="fill:#0a0003;fill-opacity:1;stroke:#000000;stroke-width:1.165;stroke-linecap:round;stroke-linejoin:bevel;stroke-miterlimit:4;stroke-dasharray:none;stroke-opacity:1"
                 id="circle1043"
                 cx="87.13855"
                 cy="70.593071"
                 r="3.0067821" />
            </g>
          </g>
        </g>
      </g>
      <g
         style="display:inline"
         id="layer3-7"
         inkscape:label="Pants"
         transform="translate(-38.136244,-44.878254)">
        <g
           id="g1090"
           style="display:inline"
           transform="translate(-1.2708333e-6)">
          <path
             id="path970"
             style="fill:url(#linearGradient942);stroke:#292735;stroke-width:3.77953;stroke-linecap:butt;stroke-linejoin:miter;stroke-miterlimit:4;stroke-dasharray:none;stroke-opacity:1"
             d="m 64.789062,264 c 3.803853,23.77663 8.089912,47.64533 49.585938,64.27344 l 1.94727,66.29297 h 11.39062 l 1.6875,-63.64649 c 5.77419,1.37069 11.54808,2.00426 17.32227,1.875 5.77418,0.12926 11.54807,-0.50431 17.32226,-1.875 l 1.6875,63.64649 h 11.64063 l 1.69922,-66.29297 C 208.19392,315.71119 225.47112,287.77663 229.27497,264 h -82.55231 z"
             transform="matrix(0.26458333,0,0,0.26458333,38.136244,44.878254)"
             sodipodi:nodetypes="ccccccccccccc" />
          <g
             id="g1071">
            <g
               id="g1024">
              <path
                 style="fill:none;stroke:#292735;stroke-width:0.265;stroke-linecap:butt;stroke-linejoin:miter;stroke-miterlimit:4;stroke-dasharray:none;stroke-opacity:1"
                 d="m 68.583115,138.03727 c 1.526499,0.62971 2.59696,0.39543 3.638915,0.10715"
                 id="path1006"
                 sodipodi:nodetypes="cc" />
              <path
                 sodipodi:nodetypes="cc"
                 id="path1008"
                 d="m 68.583115,143.90718 c 1.526499,0.62971 2.59696,0.39543 3.638915,0.10715"
                 style="fill:none;stroke:#292735;stroke-width:0.265;stroke-linecap:butt;stroke-linejoin:miter;stroke-miterlimit:4;stroke-dasharray:none;stroke-opacity:1" />
            </g>
            <g
               id="g1020">
              <path
                 sodipodi:nodetypes="cc"
                 id="path1010"
                 d="m 81.759135,138.03727 c 1.526499,0.62971 2.59696,0.39543 3.638915,0.10715"
                 style="fill:none;stroke:#292735;stroke-width:0.265;stroke-linecap:butt;stroke-linejoin:miter;stroke-miterlimit:4;stroke-dasharray:none;stroke-opacity:1" />
              <path
                 style="fill:none;stroke:#292735;stroke-width:0.265;stroke-linecap:butt;stroke-linejoin:miter;stroke-miterlimit:4;stroke-dasharray:none;stroke-opacity:1"
                 d="m 81.759135,143.90718 c 1.526499,0.62971 2.59696,0.39543 3.638915,0.10715"
                 id="path1012"
                 sodipodi:nodetypes="cc" />
            </g>
            <g
               id="g1054">
              <path
                 style="fill:none;stroke:#292735;stroke-width:1.465;stroke-linecap:butt;stroke-linejoin:miter;stroke-miterlimit:4;stroke-dasharray:none;stroke-opacity:1"
                 d="m 76.956733,114.72825 v 6.90313"
                 id="path1026" />
              <path
                 style="fill:none;stroke:url(#linearGradient966);stroke-width:0.265;stroke-linecap:butt;stroke-linejoin:miter;stroke-miterlimit:4;stroke-dasharray:0.53, 0.265, 0.1325, 0.265;stroke-dashoffset:0;stroke-opacity:1"
                 d="m 76.956733,114.72825 v 6.90313"
                 id="path1028" />
            </g>
            <g
               id="g1046">
              <path
                 style="fill:#292735;fill-opacity:1;stroke:none;stroke-width:0.264583px;stroke-linecap:butt;stroke-linejoin:miter;stroke-opacity:1"
                 d="m 55.27835,114.72825 2.306566,8.30163 c 0,0 4.245355,-0.43341 5.42216,-1.95163 1.302425,-1.68028 0.595313,-6.35 0.595313,-6.35 z"
                 id="path1032"
                 sodipodi:nodetypes="ccacc" />
              <path
                 style="fill:none;stroke:url(#linearGradient966);stroke-width:0.264583px;stroke-linecap:butt;stroke-linejoin:miter;stroke-opacity:1"
                 d="m 57.679999,121.93702 c 0,0 3.28408,-0.0489 4.263277,-1.14754 1.188427,-1.33338 0.790687,-5.29974 0.790687,-5.29974"
                 id="path1036"
                 sodipodi:nodetypes="cac" />
            </g>
            <g
               id="g1050">
              <path
                 sodipodi:nodetypes="ccacc"
                 id="path1034"
                 d="m 98.798579,114.72825 -2.306566,7.64682 c 0,0 -4.204128,0.10671 -5.42216,-1.29682 -1.393418,-1.60563 -0.595313,-6.35 -0.595313,-6.35 z"
                 style="fill:#292735;fill-opacity:1;stroke:none;stroke-width:0.264583px;stroke-linecap:butt;stroke-linejoin:miter;stroke-opacity:1" />
              <path
                 sodipodi:nodetypes="cac"
                 id="path1038"
                 d="m 95.640197,121.63637 c 0,0 -2.831793,0.0811 -3.68438,-0.84689 -1.26586,-1.37775 -0.790687,-5.55699 -0.790687,-5.55699"
                 style="fill:none;stroke:url(#linearGradient966);stroke-width:0.264583px;stroke-linecap:butt;stroke-linejoin:miter;stroke-opacity:1" />
            </g>
          </g>
        </g>
        <g
           id="g1121">
          <path
             sodipodi:nodetypes="csssc"
             d="m 98.867154,116.74173 c 1.671656,0.44084 1.12215,8.16371 0.708175,12.581 -0.413975,4.41729 -1.391428,6.73489 -2.330721,5.52628 -0.939293,-1.20861 -1.576585,-6.19924 -1.519613,-11.0759 0.05697,-4.87666 1.753151,-9.04486 1.753151,-9.50971"
             style="fill:none;fill-opacity:1;fill-rule:evenodd;stroke:#a51d2d;stroke-width:1.12397;stroke-linecap:butt;stroke-miterlimit:4;stroke-dasharray:none;stroke-dashoffset:0;stroke-opacity:1;paint-order:stroke fill markers"
             id="path1112" />
          <path
             sodipodi:nodetypes="csssc"
             d="m 97.968742,119.46111 c 1.452762,0.59687 0.67284,8.87588 0.11745,12.73499 -0.55561,3.86063 -1.285776,5.38955 -2.155134,3.49426 -0.869358,-1.89529 -1.36154,-6.57563 -1.184607,-11.26484 0.176933,-4.68921 0.975642,-8.13271 1.922371,-8.28797"
             style="fill:none;fill-opacity:1;fill-rule:evenodd;stroke:#c01c28;stroke-width:1.12397;stroke-linecap:butt;stroke-miterlimit:4;stroke-dasharray:none;stroke-dashoffset:0;stroke-opacity:1;paint-order:stroke fill markers"
             id="path1114" />
          <path
             sodipodi:nodetypes="cssc"
             d="m 99.874842,125.78878 c 0.261208,4.18916 -0.03903,8.75055 -0.745284,11.32266 -0.706257,2.57211 -1.659944,2.57738 -2.36732,0.0131 -0.707378,-2.56428 -1.280139,-7.09045 -1.020755,-11.2825"
             style="fill:none;fill-opacity:1;fill-rule:evenodd;stroke:#a51d2d;stroke-width:1.12397;stroke-linecap:round;stroke-miterlimit:4;stroke-dasharray:none;stroke-dashoffset:0;stroke-opacity:1;paint-order:stroke fill markers"
             id="path1116" />
        </g>
      </g>
      <g
         id="layer2"
         inkscape:label="Shirt"
         style="display:inline"
         transform="translate(-38.136244,-44.878254)">
        <g
           id="g1184"
           style="display:inline"
           transform="translate(-1.2708333e-6)">
          <path
             style="fill:#45425a;fill-opacity:1;stroke:#292735;stroke-width:0.265;stroke-linecap:butt;stroke-linejoin:miter;stroke-miterlimit:4;stroke-dasharray:none;stroke-opacity:1"
             d="m 49.76549,102.91684 -4.592143,8.75207 3.36067,1.71697 4.596718,-8.69122 z"
             id="path1131"
             sodipodi:nodetypes="ccccc" />
          <path
             sodipodi:nodetypes="ccccccc"
             id="path1133"
             d="m 106.52799,92.443435 1.66945,-0.355884 8.52057,-5.723116 2.25921,3.000102 -9.32304,6.617059 -2.52192,-0.02745 z"
             style="fill:#45425a;fill-opacity:1;stroke:#292735;stroke-width:0.265;stroke-linecap:butt;stroke-linejoin:miter;stroke-miterlimit:4;stroke-dasharray:none;stroke-opacity:1" />
          <path
             id="path1126"
             style="fill:url(#linearGradient960);stroke:url(#linearGradient954);stroke-width:3.77953;stroke-linecap:butt;stroke-linejoin:miter;stroke-miterlimit:4;stroke-dasharray:none;stroke-opacity:1"
             d="m 62.445312,186.32227 -23.765624,35.66211 16.986328,9.76953 4.904296,-8.08985 L 60.988281,264 h 85.734379 85.73632 l 0.19573,-65.70075 29.92216,-3.90314 -3.75002,-16.87783 -25.87742,6.35752 -7.94163,1.40975 -78.28469,11.99687 z"
             transform="matrix(0.26458333,0,0,0.26458333,38.136244,44.878254)"
             sodipodi:nodetypes="cccccccccccccc" />
          <g
             id="g1168">
            <g
               style="fill:none;stroke:url(#linearGradient954)"
               id="g1158"
               clip-path="url(#clipPath1148)"
               transform="translate(0.48988719,0.57168001)">
              <path
                 sodipodi:nodetypes="cc"
                 id="path1152"
                 d="M 55.278348,114.72825 67.041972,103.88033"
                 style="fill:none;stroke:url(#linearGradient954);stroke-width:3;stroke-linecap:round;stroke-linejoin:miter;stroke-miterlimit:4;stroke-dasharray:none;stroke-opacity:1" />
              <path
                 style="fill:none;stroke:url(#linearGradient954);stroke-width:3;stroke-linecap:round;stroke-linejoin:miter;stroke-miterlimit:4;stroke-dasharray:none;stroke-opacity:1"
                 d="M 55.278348,120.15221 67.041972,109.30429"
                 id="path1154"
                 sodipodi:nodetypes="cc" />
              <path
                 sodipodi:nodetypes="cc"
                 id="path1156"
                 d="M 49.564798,114.39752 61.328422,103.5496"
                 style="fill:none;stroke:url(#linearGradient954);stroke-width:3;stroke-linecap:round;stroke-linejoin:miter;stroke-miterlimit:4;stroke-dasharray:none;stroke-opacity:1" />
            </g>
            <g
               transform="translate(0.48988712,-0.48665333)"
               clip-path="url(#clipPath1148)"
               id="g1144">
              <path
                 style="fill:none;stroke:url(#linearGradient966);stroke-width:3;stroke-linecap:round;stroke-linejoin:miter;stroke-miterlimit:4;stroke-dasharray:none;stroke-opacity:1"
                 d="M 55.278348,114.72825 67.041972,103.88033"
                 id="path1135"
                 sodipodi:nodetypes="cc" />
              <path
                 sodipodi:nodetypes="cc"
                 id="path1137"
                 d="M 55.278348,120.15221 67.041972,109.30429"
                 style="fill:none;stroke:url(#linearGradient966);stroke-width:3;stroke-linecap:round;stroke-linejoin:miter;stroke-miterlimit:4;stroke-dasharray:none;stroke-opacity:1" />
              <path
                 style="fill:none;stroke:url(#linearGradient966);stroke-width:3;stroke-linecap:round;stroke-linejoin:miter;stroke-miterlimit:4;stroke-dasharray:none;stroke-opacity:1"
                 d="M 49.564798,114.39752 61.328422,103.5496"
                 id="path1139"
                 sodipodi:nodetypes="cc" />
            </g>
          </g>
        </g>
      </g>
      <g
         style="display:inline"
         inkscape:label="Hat"
         id="layer5" />
    </g>
    <path
       id="path1130"
       d="M 39.221794,64.411961 42.50286,62.8664 h 4.302708 l 1.870887,0.944202"
       style="fill:none;stroke:#28272a;stroke-width:0.265;stroke-linecap:round;stroke-linejoin:miter;stroke-miterlimit:4;stroke-dasharray:none;stroke-opacity:1" />
  </g>
</svg>
