<?xml version="1.0" encoding="UTF-8" standalone="no"?>
<svg
   xmlns:osb="http://www.openswatchbook.org/uri/2009/osb"
   xmlns:dc="http://purl.org/dc/elements/1.1/"
   xmlns:cc="http://creativecommons.org/ns#"
   xmlns:rdf="http://www.w3.org/1999/02/22-rdf-syntax-ns#"
   xmlns:svg="http://www.w3.org/2000/svg"
   xmlns="http://www.w3.org/2000/svg"
   xmlns:xlink="http://www.w3.org/1999/xlink"
   xmlns:sodipodi="http://sodipodi.sourceforge.net/DTD/sodipodi-0.dtd"
   xmlns:inkscape="http://www.inkscape.org/namespaces/inkscape"
   width="68.430717mm"
   height="87.936012mm"
   viewBox="0 0 68.430718 87.936012"
   version="1.1"
   id="svg8"
   sodipodi:docname="original.svg"
   inkscape:version="1.0 (4035a4fb49, 2020-05-01)">
  <defs
     id="defs2">
    <linearGradient
       id="linearGradient1110"
       osb:paint="solid">
      <stop
         style="stop-color:#43b68e;stop-opacity:1;"
         offset="0"
         id="stop1108" />
    </linearGradient>
    <linearGradient
       id="linearGradient1104"
       osb:paint="solid"
       gradientTransform="matrix(1,0,0,0.78784593,0,18.037055)">
      <stop
         style="stop-color:#403233;stop-opacity:1;"
         offset="0"
         id="stop1102" />
    </linearGradient>
    <linearGradient
       id="linearGradient1098"
       osb:paint="solid">
      <stop
         style="stop-color:#f19a3e;stop-opacity:1;"
         offset="0"
         id="stop1096" />
    </linearGradient>
    <linearGradient
       id="linearGradient1092"
       osb:paint="solid"
       gradientTransform="matrix(0.07000434,0,0,0.07000434,26.610143,8.3623709)">
      <stop
         style="stop-color:#2b755c;stop-opacity:1;"
         offset="0"
         id="stop1090" />
    </linearGradient>
    <linearGradient
       id="linearGradient1086"
       osb:paint="solid">
      <stop
         style="stop-color:#abedc6;stop-opacity:1;"
         offset="0"
         id="stop1084" />
    </linearGradient>
    <linearGradient
       id="linearGradient1080"
       osb:paint="solid">
      <stop
         style="stop-color:#b9ffb7;stop-opacity:1;"
         offset="0"
         id="stop1078" />
    </linearGradient>
    <inkscape:path-effect
       effect="simplify"
       id="path-effect1218"
       is_visible="true"
       lpeversion="1"
       steps="1"
       threshold="0.000736842"
       smooth_angles="360"
       helper_size="0"
       simplify_individual_paths="false"
       simplify_just_coalesce="false" />
    <inkscape:path-effect
       effect="simplify"
       id="path-effect1203"
       is_visible="true"
       lpeversion="1"
       steps="1"
       threshold="0.000736842"
       smooth_angles="360"
       helper_size="0"
       simplify_individual_paths="false"
       simplify_just_coalesce="false" />
    <linearGradient
       id="linearGradient913">
      <stop
         style="stop-color:#198c8e;stop-opacity:1;"
         offset="0"
         id="stop911" />
    </linearGradient>
    <linearGradient
       id="linearGradient1739">
      <stop
         id="stop1737"
         offset="0"
         style="stop-color:#fceade;stop-opacity:1;" />
    </linearGradient>
    <linearGradient
       id="linearGradient1729">
      <stop
         id="stop1727"
         offset="0"
         style="stop-color:#f7ccae;stop-opacity:1;" />
    </linearGradient>
    <linearGradient
       id="linearGradient1723">
      <stop
         id="stop1721"
         offset="0"
         style="stop-color:#e63456;stop-opacity:1;" />
    </linearGradient>
    <linearGradient
       gradientTransform="matrix(0.07000434,0,0,0.07000434,48.226458,56.752292)"
       id="linearGradient1717">
      <stop
         id="stop1715"
         offset="0"
         style="stop-color:#ea526f;stop-opacity:1;" />
    </linearGradient>
    <linearGradient
       gradientTransform="matrix(-1.0151145,0,0,1.0151145,876.5021,136.12751)"
       id="linearGradient1676">
      <stop
         id="stop1674"
         offset="0"
         style="stop-color:#ff8a5b;stop-opacity:1;" />
    </linearGradient>
    <linearGradient
       id="linearGradient1670">
      <stop
         id="stop1668"
         offset="0"
         style="stop-color:#25ced1;stop-opacity:1;" />
    </linearGradient>
    <inkscape:path-effect
       simplify_just_coalesce="false"
       simplify_individual_paths="false"
       helper_size="0"
       smooth_angles="360"
       threshold="0.000736842"
       steps="1"
       lpeversion="1"
       is_visible="true"
       id="path-effect1079"
       effect="simplify" />
    <inkscape:path-effect
       simplify_just_coalesce="false"
       simplify_individual_paths="false"
       helper_size="0"
       smooth_angles="360"
       threshold="0.000736842"
       steps="1"
       lpeversion="1"
       is_visible="true"
       id="path-effect1075"
       effect="simplify" />
    <inkscape:path-effect
       simplify_just_coalesce="false"
       simplify_individual_paths="false"
       helper_size="0"
       smooth_angles="360"
       threshold="0.000736842"
       steps="1"
       lpeversion="1"
       is_visible="true"
       id="path-effect1057"
       effect="simplify" />
    <inkscape:path-effect
       simplify_just_coalesce="false"
       simplify_individual_paths="false"
       helper_size="0"
       smooth_angles="360"
       threshold="0.000736842"
       steps="1"
       lpeversion="1"
       is_visible="true"
       id="path-effect1053"
       effect="simplify" />
    <inkscape:path-effect
       simplify_just_coalesce="false"
       simplify_individual_paths="false"
       helper_size="0"
       smooth_angles="360"
       threshold="0.000736842"
       steps="1"
       lpeversion="1"
       is_visible="true"
       id="path-effect946"
       effect="simplify" />
    <inkscape:path-effect
       simplify_just_coalesce="false"
       simplify_individual_paths="false"
       helper_size="0"
       smooth_angles="360"
       threshold="0.000736842"
       steps="1"
       lpeversion="1"
       is_visible="true"
       id="path-effect942"
       effect="simplify" />
    <linearGradient
       id="linearGradient916">
      <stop
         id="stop914"
         offset="0"
         style="stop-color:#1e8053;stop-opacity:1;" />
    </linearGradient>
    <clipPath
       id="clipPath1860"
       clipPathUnits="userSpaceOnUse">
      <path
         id="path1862"
         style="fill:#ffffff;stroke:url(#linearGradient1864);stroke-width:1.053;stroke-linecap:butt;stroke-linejoin:miter;stroke-miterlimit:4;stroke-dasharray:none;stroke-opacity:1"
         d="m 53.860937,113.3347 0.0748,1.65855 18.852563,19.2785 c 1.47105,0.81123 2.880176,1.11572 4.235152,0.97512 1.354974,0.1406 2.7641,-0.16389 4.235149,-0.97512 l 18.908239,-19.31093 c 0.0711,-0.57249 0.13145,-1.13812 0.17904,-1.63844 l -23.322428,0.0493 z"
         sodipodi:nodetypes="ccccccccc" />
    </clipPath>
    <linearGradient
       gradientTransform="matrix(0.27860679,0,0,0.27860679,36.145515,42.183506)"
       y2="299.07434"
       x2="231.45505"
       y1="299.07434"
       x1="61.990265"
       gradientUnits="userSpaceOnUse"
       id="linearGradient1864"
       xlink:href="#linearGradient1729"
       inkscape:collect="always" />
    <clipPath
       clipPathUnits="userSpaceOnUse"
       id="clipPath1197">
      <path
         d="m 69.523404,55.358379 v 14.039453 l -2.682523,2.466515 a 1.2541355,1.2541355 0 0 0 -0.553453,1.03973 1.2541355,1.2541355 0 0 0 1.254186,1.254186 1.2541355,1.2541355 0 0 0 1.004072,-0.503327 l 3.984771,-3.66386 V 55.358379 Z"
         style="fill:#c061cb;fill-rule:evenodd;stroke:#613583;stroke-width:1;stroke-linecap:round;paint-order:stroke fill markers"
         id="path1199" />
    </clipPath>
    <clipPath
       clipPathUnits="userSpaceOnUse"
       id="clipPath1208">
      <rect
         y="15.902537"
         x="30.869631"
         height="69.356445"
         width="48.776688"
         id="rect1210"
         style="fill:#f9f06b;fill-rule:evenodd;stroke:#c01c28;stroke-width:1;stroke-linecap:round;paint-order:stroke fill markers" />
    </clipPath>
    <clipPath
       clipPathUnits="userSpaceOnUse"
       id="clipPath1223">
      <rect
         y="15.902537"
         x="30.869631"
         height="69.356445"
         width="48.776688"
         id="rect1225"
         style="fill:#f9f06b;fill-rule:evenodd;stroke:#c01c28;stroke-width:1;stroke-linecap:round;paint-order:stroke fill markers" />
    </clipPath>
    <linearGradient
       inkscape:collect="always"
       xlink:href="#linearGradient1110"
       id="linearGradient1112"
       x1="29.819631"
       y1="50.580755"
       x2="80.696318"
       y2="50.580755"
       gradientUnits="userSpaceOnUse" />
  </defs>
  <sodipodi:namedview
     fit-margin-left="5"
     fit-margin-bottom="5"
     fit-margin-right="5"
     fit-margin-top="5"
     id="base"
     pagecolor="#ffffff"
     bordercolor="#666666"
     borderopacity="1.0"
     inkscape:pageopacity="0.0"
     inkscape:pageshadow="2"
     inkscape:zoom="3.0944466"
     inkscape:cx="91.769544"
     inkscape:cy="220.09066"
     inkscape:document-units="mm"
     inkscape:current-layer="layer1"
     inkscape:document-rotation="0"
     showgrid="false"
     inkscape:window-width="1920"
     inkscape:window-height="1017"
     inkscape:window-x="-8"
     inkscape:window-y="-8"
     inkscape:window-maximized="1"
     inkscape:snap-object-midpoints="true"
     showguides="true"
     inkscape:guide-bbox="true"
     inkscape:snap-midpoints="true"
     inkscape:object-paths="true">
    <sodipodi:guide
       position="34.215359,80.31935"
       orientation="1,0"
       id="guide1116" />
  </sodipodi:namedview>
  <metadata
     id="metadata5">
    <rdf:RDF>
      <cc:Work
         rdf:about="">
        <dc:format>image/svg+xml</dc:format>
        <dc:type
           rdf:resource="http://purl.org/dc/dcmitype/StillImage" />
        <dc:title />
      </cc:Work>
    </rdf:RDF>
  </metadata>
  <g
     transform="translate(-21.042617,-6.612748)"
     inkscape:label="Ebene 1"
     inkscape:groupmode="layer"
     id="layer1">
    <g
       id="g1196">
      <path
         sodipodi:nodetypes="cscscscscscscscscscscscscscscscscscscscscscscscscscscscscscscscscscscscscscscscscscscscscscscscsc"
         d="m 28.130117,14.229414 c 0,0 2.058522,-2.116666 3.390982,-2.116666 1.332459,0 3.390982,2.116666 3.390982,2.116666 0,0 2.058522,-2.116666 3.390982,-2.116666 1.33246,0 3.390982,2.116666 3.390982,2.116666 0,0 2.058523,-2.116666 3.390982,-2.116666 1.33246,0 3.390982,2.116666 3.390982,2.116666 0,0 2.058523,-2.116666 3.390982,-2.116666 1.33246,0 3.390983,2.116666 3.390983,2.116666 0,0 2.058522,-2.116666 3.390982,-2.116666 1.332459,0 3.390982,2.116666 3.390982,2.116666 0,0 2.058522,-2.116666 3.390982,-2.116666 1.33246,0 3.390982,2.116666 3.390982,2.116666 0,0 2.058523,-2.116666 3.390982,-2.116666 1.33246,0 3.390982,2.116666 3.390982,2.116666 0,0 2.058523,-2.116666 3.390982,-2.116666 1.33246,0 3.390983,2.116666 3.390983,2.116666 0,0 1.5875,1.360094 1.5875,2.288495 0,0.928402 -1.5875,2.288495 -1.5875,2.288495 0,0 1.5875,1.360094 1.5875,2.288496 0,0.928401 -1.5875,2.288495 -1.5875,2.288495 0,0 1.5875,1.360093 1.5875,2.288495 0,0.928402 -1.5875,2.288495 -1.5875,2.288495 0,0 1.5875,1.360094 1.5875,2.288495 0,0.928402 -1.5875,2.288495 -1.5875,2.288495 0,0 1.5875,1.360094 1.5875,2.288496 0,0.928401 -1.5875,2.288495 -1.5875,2.288495 0,0 1.5875,1.360093 1.5875,2.288495 0,0.928402 -1.5875,2.288495 -1.5875,2.288495 0,0 1.5875,1.360094 1.5875,2.288495 0,0.928402 -1.5875,2.288496 -1.5875,2.288496 0,0 1.5875,1.360093 1.5875,2.288495 0,0.928401 -1.5875,2.288495 -1.5875,2.288495 0,0 1.5875,1.360094 1.5875,2.288495 0,0.928402 -1.5875,2.288495 -1.5875,2.288495 0,0 1.5875,1.360094 1.5875,2.288496 0,0.928401 -1.5875,2.288495 -1.5875,2.288495 0,0 1.5875,1.360093 1.5875,2.288495 0,0.928402 -1.5875,2.288495 -1.5875,2.288495 0,0 1.5875,1.360094 1.5875,2.288495 0,0.928402 -1.5875,2.288496 -1.5875,2.288496 0,0 1.5875,1.360093 1.5875,2.288495 0,0.928401 -1.5875,2.288495 -1.5875,2.288495 0,0 1.5875,1.360093 1.5875,2.288495 0,0.928402 -1.5875,2.288495 -1.5875,2.288495 0,0 1.5875,1.360094 1.5875,2.288495 0,0.928402 -1.5875,2.288496 -1.5875,2.288496 0,0 1.5875,1.360093 1.5875,2.288495 0,0.928401 -1.5875,2.288495 -1.5875,2.288495 0,0 -2.142921,1.5875 -3.390982,1.5875 -1.248062,0 -3.390982,-1.5875 -3.390982,-1.5875 0,0 -2.142921,1.5875 -3.390982,1.5875 -1.248062,0 -3.390983,-1.5875 -3.390983,-1.5875 0,0 -2.14292,1.5875 -3.390982,1.5875 -1.248061,0 -3.390982,-1.5875 -3.390982,-1.5875 0,0 -2.14292,1.5875 -3.390982,1.5875 -1.248061,0 -3.390982,-1.5875 -3.390982,-1.5875 0,0 -2.142921,1.5875 -3.390982,1.5875 -1.248062,0 -3.390982,-1.5875 -3.390982,-1.5875 0,0 -2.142921,1.5875 -3.390982,1.5875 -1.248062,0 -3.390983,-1.5875 -3.390983,-1.5875 0,0 -2.14292,1.5875 -3.390982,1.5875 -1.248061,0 -3.390982,-1.5875 -3.390982,-1.5875 0,0 -2.14292,1.5875 -3.390982,1.5875 -1.248061,0 -3.390982,-1.5875 -3.390982,-1.5875 0,0 -1.5875,-1.360093 -1.5875,-2.288495 0,-0.928402 1.5875,-2.288495 1.5875,-2.288495 0,0 -1.5875,-1.360094 -1.5875,-2.288496 0,-0.928402 1.5875,-2.288495 1.5875,-2.288495 0,0 -1.5875,-1.360093 -1.5875,-2.288495 0,-0.928402 1.5875,-2.288495 1.5875,-2.288495 0,0 -1.5875,-1.360093 -1.5875,-2.288495 0,-0.928402 1.5875,-2.288496 1.5875,-2.288496 0,0 -1.5875,-1.360093 -1.5875,-2.288495 0,-0.928402 1.5875,-2.288495 1.5875,-2.288495 0,0 -1.5875,-1.360093 -1.5875,-2.288495 0,-0.928402 1.5875,-2.288495 1.5875,-2.288495 0,0 -1.5875,-1.360093 -1.5875,-2.288495 0,-0.928402 1.5875,-2.288496 1.5875,-2.288496 0,0 -1.5875,-1.360093 -1.5875,-2.288495 0,-0.928402 1.5875,-2.288495 1.5875,-2.288495 0,0 -1.5875,-1.360093 -1.5875,-2.288495 0,-0.928402 1.5875,-2.288495 1.5875,-2.288495 0,0 -1.5875,-1.360094 -1.5875,-2.288496 0,-0.928402 1.5875,-2.288495 1.5875,-2.288495 0,0 -1.5875,-1.360093 -1.5875,-2.288495 0,-0.928402 1.5875,-2.288495 1.5875,-2.288495 0,0 -1.5875,-1.360093 -1.5875,-2.288495 0,-0.928402 1.5875,-2.288496 1.5875,-2.288496 0,0 -1.5875,-1.360093 -1.5875,-2.288495 0,-0.928402 1.5875,-2.288495 1.5875,-2.288495 0,0 -1.5875,-1.360093 -1.5875,-2.288495 0,-0.928402 1.5875,-2.288495 1.5875,-2.288495 0,0 -1.5875,-1.360093 -1.5875,-2.288495 0,-0.928402 1.5875,-2.288496 1.5875,-2.288496 0,0 -1.5875,-1.360093 -1.5875,-2.288495 0,-0.928402 1.5875,-2.288495 1.5875,-2.288495 z"
         style="fill:url(#linearGradient1092);fill-rule:evenodd;stroke:url(#linearGradient1092);stroke-width:1;stroke-linecap:round;paint-order:stroke fill markers"
         id="rect1229" />
      <rect
         y="15.902536"
         x="30.869631"
         height="69.356438"
         width="48.776688"
         id="rect835"
         style="fill:url(#linearGradient1080);fill-rule:evenodd;stroke:url(#linearGradient1112);stroke-width:2.1;stroke-linecap:round;stroke-miterlimit:4;stroke-dasharray:none;stroke-opacity:1;paint-order:stroke fill markers" />
      <path
         id="path1218"
         d="m 39.04443,55.724936 v 4.4225 h -0.879911 l 0.52543,-4.4225 z"
         style="fill:#403233;fill-opacity:1;stroke:none;stroke-width:0.264583px;stroke-linecap:butt;stroke-linejoin:miter;stroke-opacity:1" />
      <path
         id="path1212"
         d="m 72.675022,60.147436 v 4.931801 h 1.208217 z"
         style="fill:#403233;fill-opacity:1;stroke:#403233;stroke-width:0.264583px;stroke-linecap:butt;stroke-linejoin:miter;stroke-opacity:1" />
      <path
         id="path1214"
         d="m 38.164519,60.147436 v 4.931801 h -1.047408 z"
         style="fill:#403233;fill-opacity:1;stroke:none;stroke-width:0.264583px;stroke-linecap:butt;stroke-linejoin:miter;stroke-opacity:1" />
      <path
         style="fill:#403233;fill-opacity:1;stroke:none;stroke-width:0.264583px;stroke-linecap:butt;stroke-linejoin:miter;stroke-opacity:1"
         d="m 71.795111,55.724936 v 4.4225 h 0.879911 l -0.52543,-4.4225 z"
         id="path1220" />
      <path
         id="path1224"
         d="m 71.005889,51.302436 v 4.4225 H 71.8858 l -0.52543,-4.4225 z"
         style="fill:#403233;fill-opacity:1;stroke:none;stroke-width:0.264583px;stroke-linecap:butt;stroke-linejoin:miter;stroke-opacity:1" />
      <path
         style="fill:#403233;fill-opacity:1;stroke:none;stroke-width:0.244383px;stroke-linecap:butt;stroke-linejoin:miter;stroke-opacity:1"
         d="m 39.661598,51.545877 v 4.179059 h -0.794409 l 0.474373,-4.179059 z"
         id="path1226" />
      <path
         id="path1230"
         d="m 70.125976,47.061314 v 4.4225 h 0.879911 l -0.52543,-4.4225 z"
         style="fill:#403233;fill-opacity:1;stroke:none;stroke-width:0.264583px;stroke-linecap:butt;stroke-linejoin:miter;stroke-opacity:1" />
      <path
         sodipodi:nodetypes="ccccc"
         id="path1236"
         d="M 40.868617,42.767523 40.21481,47.061314 H 70.303216 L 69.647334,42.767523 Z"
         style="fill:#403233;fill-opacity:1;stroke:#000000;stroke-width:0.264583px;stroke-linecap:butt;stroke-linejoin:miter;stroke-opacity:1" />
      <path
         style="fill:#403233;fill-opacity:1;stroke:none;stroke-width:0.264583px;stroke-linecap:butt;stroke-linejoin:miter;stroke-opacity:1"
         d="m 40.392051,47.061314 v 4.4225 H 39.51214 l 0.52543,-4.4225 z"
         id="path1232" />
      <path
         id="path1238"
         d="m 41.24711,42.764329 v 4.300178"
         style="fill:none;stroke:#201919;stroke-width:0.264583px;stroke-linecap:butt;stroke-linejoin:miter;stroke-opacity:1" />
      <path
         id="path1240"
         d="m 69.274176,42.767523 v 4.183531"
         style="fill:none;stroke:#201919;stroke-width:0.264583px;stroke-linecap:butt;stroke-linejoin:miter;stroke-opacity:1" />
      <path
         id="path1118"
         d="M 73.88324,65.079239 69.647334,42.767523 H 40.868617 l -3.751506,22.311716 z"
         style="fill:none;stroke:#201919;stroke-width:0.565;stroke-linecap:butt;stroke-linejoin:miter;stroke-miterlimit:4;stroke-dasharray:none;stroke-opacity:1" />
      <g
         id="g1446"
         transform="rotate(-0.63050962,-912.46668,-48.964101)">
        <g
           id="g1440"
           transform="matrix(0.23474454,0,0,0.23474454,53.986263,51.16775)">
          <g
             inkscape:label="Body"
             id="g1412"
             style="display:inline"
             transform="translate(-38.136244,-44.878254)">
            <path
               id="path1404"
               d="m 70.40808,131.1211 v 18.26757"
               style="fill:none;stroke:#be747c;stroke-width:4;stroke-linecap:round;stroke-linejoin:miter;stroke-miterlimit:4;stroke-dasharray:none;stroke-opacity:1" />
            <path
               style="fill:none;stroke:#be747c;stroke-width:4;stroke-linecap:round;stroke-linejoin:miter;stroke-miterlimit:4;stroke-dasharray:none;stroke-opacity:1"
               d="m 83.570994,131.1211 v 18.26757"
               id="path1406" />
            <path
               d="M 66.294605,54.093618 C 59.584927,57.960428 55.446669,65.139279 55.44661,72.912197 v 37.725093 c -1.26e-4,7.70526 4.066832,14.83237 10.684462,18.7239 6.67584,3.92577 14.931536,3.96209 21.64132,0.0952 6.709833,-3.8669 10.848119,-11.04597 10.848006,-18.81907 V 72.912197 h -0.1079 C 98.534939,65.22924 94.511937,58.107432 87.935926,54.188789 81.26008,50.263026 73.004384,50.22672 66.294605,54.093618 Z"
               style="fill:#8ff0a4;fill-opacity:1;stroke:#26a269;stroke-width:2.09947;stroke-linecap:round;stroke-linejoin:bevel;stroke-miterlimit:4;stroke-dasharray:none;stroke-opacity:1"
               id="path1408"
               sodipodi:nodetypes="cccssccccc" />
            <path
               sodipodi:nodetypes="sssss"
               d="m 68.583792,59.100081 c -4.216396,2.212808 -4.137399,5.203559 -6.848888,5.069084 -2.435709,-0.1208 -0.148435,-4.190036 3.136594,-6.399604 3.442285,-2.31534 6.368359,-3.648691 8.550789,-3.051539 2.817041,0.770792 -3.335644,3.593347 -4.838495,4.382059 z"
               style="fill:#f6f5f4;fill-opacity:1;stroke:#f6f5f4;stroke-width:0.335388;stroke-linecap:round;stroke-linejoin:bevel;stroke-miterlimit:4;stroke-dasharray:none;stroke-opacity:1"
               id="path1410" />
          </g>
          <g
             style="display:inline"
             id="g1432"
             inkscape:label="Face">
            <g
               style="display:inline"
               transform="translate(-41.279426,-41.350028)"
               id="g1430">
              <path
                 style="fill:none;stroke:#000000;stroke-width:1.16297;stroke-linecap:butt;stroke-linejoin:bevel;stroke-miterlimit:4;stroke-dasharray:none;stroke-opacity:1;paint-order:markers fill stroke"
                 d="M 88.3184,79.872825 C 78.771705,88.309306 71.047988,79.603041 71.047988,79.603041"
                 id="path1414"
                 sodipodi:nodetypes="cc" />
              <g
                 id="g1428">
                <g
                   id="g1420">
                  <ellipse
                     cy="69.163048"
                     cx="73.014366"
                     id="ellipse1416"
                     style="fill:#f6f5f4;fill-opacity:1;stroke:#f6f5f4;stroke-width:1.45886;stroke-linecap:round;stroke-linejoin:bevel;stroke-miterlimit:4;stroke-dasharray:none;stroke-opacity:1"
                     rx="2.6593986"
                     ry="4.6437736" />
                  <circle
                     style="fill:#000000;fill-opacity:1;stroke:#000000;stroke-width:1.165;stroke-linecap:round;stroke-linejoin:bevel;stroke-miterlimit:4;stroke-dasharray:none;stroke-opacity:1"
                     id="circle1418"
                     cx="72.782333"
                     cy="66.842361"
                     r="2.80633" />
                </g>
                <g
                   id="g1426">
                  <ellipse
                     ry="4.6437736"
                     rx="2.6593986"
                     style="fill:#f6f5f4;fill-opacity:1;stroke:#f6f5f4;stroke-width:1.45886;stroke-linecap:round;stroke-linejoin:bevel;stroke-miterlimit:4;stroke-dasharray:none;stroke-opacity:1"
                     id="ellipse1422"
                     cx="87.131348"
                     cy="68.854378" />
                  <circle
                     style="fill:#0a0003;fill-opacity:1;stroke:#000000;stroke-width:1.165;stroke-linecap:round;stroke-linejoin:bevel;stroke-miterlimit:4;stroke-dasharray:none;stroke-opacity:1"
                     id="circle1424"
                     cx="86.905098"
                     cy="66.855827"
                     r="3.0067821" />
                </g>
              </g>
            </g>
          </g>
          <g
             id="g1434"
             inkscape:label="Shirt"
             style="display:inline"
             transform="translate(-38.136244,-44.878254)" />
          <g
             style="display:inline"
             id="g1436"
             inkscape:label="Pants"
             transform="translate(-38.136244,-44.878254)" />
          <g
             style="display:inline"
             inkscape:label="Hat"
             id="g1438" />
        </g>
        <path
           style="display:inline;fill:none;stroke:#e01b24;stroke-width:0.938977;stroke-linecap:round;stroke-linejoin:miter;stroke-miterlimit:4;stroke-dasharray:none;stroke-opacity:1"
           d="m 58.049777,61.666142 1.666219,2.645908 2.6495,0.006"
           id="path1442"
           sodipodi:nodetypes="ccc" />
      </g>
      <path
         id="path1234"
         d="m 40.392051,46.940394 v 4.422499 h 29.733925 v -4.422499 l -9.966068,0.12474 -1.571948,-1.758312 h -7.19468 l -1.692865,1.758312 z"
         style="fill:#33d17a;stroke:#1a6f48;stroke-width:0.264583px;stroke-linecap:butt;stroke-linejoin:miter;stroke-opacity:1" />
      <path
         sodipodi:nodetypes="ccccccccc"
         id="path1228"
         d="m 39.50158,51.545877 0.160018,4.179059 h 31.344289 v -4.241122 l -3.288543,0.02761 -1.209191,-1.670137 h -6.287785 l -1.330111,1.670137 z"
         style="fill:#3584e4;stroke:#14498b;stroke-width:0.264583px;stroke-linecap:butt;stroke-linejoin:miter;stroke-opacity:1" />
      <path
         id="path1222"
         d="m 39.04443,55.724936 v 4.4225 h 32.75068 v -4.4225 H 58.64842 l -1.390568,-1.832867 h -6.831923 l -1.511488,1.832867 z"
         style="fill:#ed333b;stroke:#c61119;stroke-width:0.264583px;stroke-linecap:butt;stroke-linejoin:miter;stroke-opacity:1" />
      <g
         transform="rotate(-13.282058,32.238389,127.54399)"
         id="g1402">
        <g
           transform="matrix(0.23474454,0,0,0.23474454,53.986263,51.16775)"
           id="g1396">
          <g
             transform="translate(-38.136244,-44.878254)"
             style="display:inline"
             id="g1368"
             inkscape:label="Body">
            <path
               style="fill:none;stroke:#be747c;stroke-width:4;stroke-linecap:round;stroke-linejoin:miter;stroke-miterlimit:4;stroke-dasharray:none;stroke-opacity:1"
               d="m 70.40808,131.1211 v 18.26757"
               id="path1360" />
            <path
               id="path1362"
               d="m 83.570994,131.1211 v 18.26757"
               style="fill:none;stroke:#be747c;stroke-width:4;stroke-linecap:round;stroke-linejoin:miter;stroke-miterlimit:4;stroke-dasharray:none;stroke-opacity:1" />
            <path
               sodipodi:nodetypes="cccssccccc"
               id="path1364"
               style="fill:#f88b7f;fill-opacity:1;stroke:#e01b24;stroke-width:2.09947;stroke-linecap:round;stroke-linejoin:bevel;stroke-miterlimit:4;stroke-dasharray:none;stroke-opacity:1"
               d="M 66.294605,54.093618 C 59.584927,57.960428 55.446669,65.139279 55.44661,72.912197 v 37.725093 c -1.26e-4,7.70526 4.066832,14.83237 10.684462,18.7239 6.67584,3.92577 14.931536,3.96209 21.64132,0.0952 6.709833,-3.8669 10.848119,-11.04597 10.848006,-18.81907 V 72.912197 h -0.1079 C 98.534939,65.22924 94.511937,58.107432 87.935926,54.188789 81.26008,50.263026 73.004384,50.22672 66.294605,54.093618 Z" />
            <path
               id="path1366"
               style="fill:#f6f5f4;fill-opacity:1;stroke:#f6f5f4;stroke-width:0.335388;stroke-linecap:round;stroke-linejoin:bevel;stroke-miterlimit:4;stroke-dasharray:none;stroke-opacity:1"
               d="m 68.583792,59.100081 c -4.216396,2.212808 -4.137399,5.203559 -6.848888,5.069084 -2.435709,-0.1208 -0.148435,-4.190036 3.136594,-6.399604 3.442285,-2.31534 6.368359,-3.648691 8.550789,-3.051539 2.817041,0.770792 -3.335644,3.593347 -4.838495,4.382059 z"
               sodipodi:nodetypes="sssss" />
          </g>
          <g
             inkscape:label="Face"
             id="g1388"
             style="display:inline">
            <g
               id="g1386"
               transform="translate(-41.279426,-41.350028)"
               style="display:inline">
              <path
                 sodipodi:nodetypes="cc"
                 id="path1370"
                 d="M 88.3184,79.872825 C 78.771705,88.309306 71.047988,79.603041 71.047988,79.603041"
                 style="fill:none;stroke:#000000;stroke-width:1.16297;stroke-linecap:butt;stroke-linejoin:bevel;stroke-miterlimit:4;stroke-dasharray:none;stroke-opacity:1;paint-order:markers fill stroke" />
              <g
                 id="g1384">
                <g
                   id="g1376">
                  <ellipse
                     ry="4.6437736"
                     rx="2.6593986"
                     style="fill:#f6f5f4;fill-opacity:1;stroke:#f6f5f4;stroke-width:1.45886;stroke-linecap:round;stroke-linejoin:bevel;stroke-miterlimit:4;stroke-dasharray:none;stroke-opacity:1"
                     id="ellipse1372"
                     cx="73.014366"
                     cy="69.163048" />
                  <circle
                     r="2.80633"
                     cy="69.163048"
                     cx="73.014366"
                     id="circle1374"
                     style="fill:#000000;fill-opacity:1;stroke:#000000;stroke-width:1.165;stroke-linecap:round;stroke-linejoin:bevel;stroke-miterlimit:4;stroke-dasharray:none;stroke-opacity:1" />
                </g>
                <g
                   id="g1382">
                  <ellipse
                     cy="68.854378"
                     cx="87.131348"
                     id="ellipse1378"
                     style="fill:#f6f5f4;fill-opacity:1;stroke:#f6f5f4;stroke-width:1.45886;stroke-linecap:round;stroke-linejoin:bevel;stroke-miterlimit:4;stroke-dasharray:none;stroke-opacity:1"
                     rx="2.6593986"
                     ry="4.6437736" />
                  <circle
                     r="3.0067821"
                     cy="69.047745"
                     cx="87.13855"
                     id="circle1380"
                     style="fill:#0a0003;fill-opacity:1;stroke:#000000;stroke-width:1.165;stroke-linecap:round;stroke-linejoin:bevel;stroke-miterlimit:4;stroke-dasharray:none;stroke-opacity:1" />
                </g>
              </g>
            </g>
          </g>
          <g
             transform="translate(-38.136244,-44.878254)"
             style="display:inline"
             inkscape:label="Shirt"
             id="g1390" />
          <g
             transform="translate(-38.136244,-44.878254)"
             inkscape:label="Pants"
             id="g1392"
             style="display:inline" />
          <g
             id="g1394"
             inkscape:label="Hat"
             style="display:inline" />
        </g>
        <path
           sodipodi:nodetypes="ccc"
           id="path1398"
           d="m 58.049777,61.666142 1.666219,2.645908 2.6495,0.006"
           style="display:inline;fill:none;stroke:#e01b24;stroke-width:0.938977;stroke-linecap:round;stroke-linejoin:miter;stroke-miterlimit:4;stroke-dasharray:none;stroke-opacity:1" />
        <path
           style="display:inline;fill:none;stroke:#e01b24;stroke-width:0.938977;stroke-linecap:round;stroke-linejoin:miter;stroke-miterlimit:4;stroke-dasharray:none;stroke-opacity:1"
           d="m 68.184588,61.730269 1.903318,-3.363394 0.473305,-4.471111"
           id="path1400"
           sodipodi:nodetypes="ccc" />
      </g>
      <path
         id="path1216"
         d="m 38.164519,60.147436 v 4.931801 H 72.675022 V 60.147436 H 49.273518 L 47.826171,57.640559 H 40.81287 l -1.571946,2.506877 z"
         style="fill:#f9f06b;stroke:#bda609;stroke-width:0.265;stroke-linecap:butt;stroke-linejoin:miter;stroke-miterlimit:4;stroke-dasharray:none;stroke-opacity:1" />
      <g
         id="g1358">
        <g
           id="g1316"
           transform="matrix(0.23474454,0,0,0.23474454,53.986263,51.16775)">
          <g
             inkscape:label="Body"
             id="layer1-4"
             style="display:inline"
             transform="translate(-38.136244,-44.878254)">
            <path
               id="path903"
               d="m 70.40808,131.1211 v 18.26757"
               style="fill:none;stroke:#be747c;stroke-width:4;stroke-linecap:round;stroke-linejoin:miter;stroke-miterlimit:4;stroke-dasharray:none;stroke-opacity:1" />
            <path
               style="fill:none;stroke:#be747c;stroke-width:4;stroke-linecap:round;stroke-linejoin:miter;stroke-miterlimit:4;stroke-dasharray:none;stroke-opacity:1"
               d="m 83.570994,131.1211 v 18.26757"
               id="path905" />
            <path
               d="M 66.294605,54.093618 C 59.584927,57.960428 55.446669,65.139279 55.44661,72.912197 v 37.725093 c -1.26e-4,7.70526 4.066832,14.83237 10.684462,18.7239 6.67584,3.92577 14.931536,3.96209 21.64132,0.0952 6.709833,-3.8669 10.848119,-11.04597 10.848006,-18.81907 V 72.912197 h -0.1079 C 98.534939,65.22924 94.511937,58.107432 87.935926,54.188789 81.26008,50.263026 73.004384,50.22672 66.294605,54.093618 Z"
               style="fill:#f8e45c;stroke:#e5a50a;stroke-width:2.09947;stroke-linecap:round;stroke-linejoin:bevel;stroke-miterlimit:4;stroke-dasharray:none;stroke-opacity:1"
               id="path1031"
               sodipodi:nodetypes="cccssccccc" />
            <path
               sodipodi:nodetypes="sssss"
               d="m 68.583792,59.100081 c -4.216396,2.212808 -4.137399,5.203559 -6.848888,5.069084 -2.435709,-0.1208 -0.148435,-4.190036 3.136594,-6.399604 3.442285,-2.31534 6.368359,-3.648691 8.550789,-3.051539 2.817041,0.770792 -3.335644,3.593347 -4.838495,4.382059 z"
               style="fill:#f6f5f4;fill-opacity:1;stroke:#f6f5f4;stroke-width:0.335388;stroke-linecap:round;stroke-linejoin:bevel;stroke-miterlimit:4;stroke-dasharray:none;stroke-opacity:1"
               id="path1061" />
          </g>
          <g
             style="display:inline"
             id="layer4"
             inkscape:label="Face">
            <g
               style="display:inline"
               transform="translate(-41.279426,-41.350028)"
               id="g1049">
              <path
                 style="fill:#000000;stroke:#000000;stroke-width:1.16297;stroke-linecap:butt;stroke-linejoin:bevel;stroke-miterlimit:4;stroke-dasharray:none;stroke-opacity:1;paint-order:markers fill stroke"
                 d="M 88.3184,79.872825 C 78.771705,88.309306 71.047988,79.603041 71.047988,79.603041 Z"
                 id="path1033" />
              <g
                 id="g1047">
                <g
                   id="g1039">
                  <ellipse
                     cy="69.163048"
                     cx="73.014366"
                     id="ellipse1035"
                     style="fill:#f6f5f4;fill-opacity:1;stroke:#f6f5f4;stroke-width:1.45886;stroke-linecap:round;stroke-linejoin:bevel;stroke-miterlimit:4;stroke-dasharray:none;stroke-opacity:1"
                     rx="2.6593986"
                     ry="4.6437736" />
                  <circle
                     style="fill:#000000;fill-opacity:1;stroke:#000000;stroke-width:1.165;stroke-linecap:round;stroke-linejoin:bevel;stroke-miterlimit:4;stroke-dasharray:none;stroke-opacity:1"
                     id="circle1037"
                     cx="73.014366"
                     cy="69.163048"
                     r="2.80633" />
                </g>
                <g
                   id="g1045">
                  <ellipse
                     ry="4.6437736"
                     rx="2.6593986"
                     style="fill:#f6f5f4;fill-opacity:1;stroke:#f6f5f4;stroke-width:1.45886;stroke-linecap:round;stroke-linejoin:bevel;stroke-miterlimit:4;stroke-dasharray:none;stroke-opacity:1"
                     id="ellipse1041"
                     cx="87.131348"
                     cy="68.854378" />
                  <circle
                     style="fill:#0a0003;fill-opacity:1;stroke:#000000;stroke-width:1.165;stroke-linecap:round;stroke-linejoin:bevel;stroke-miterlimit:4;stroke-dasharray:none;stroke-opacity:1"
                     id="circle1043"
                     cx="87.13855"
                     cy="69.047745"
                     r="3.0067821" />
                </g>
              </g>
            </g>
          </g>
          <g
             id="layer2"
             inkscape:label="Shirt"
             style="display:inline"
             transform="translate(-38.136244,-44.878254)" />
          <g
             style="display:inline"
             id="layer3"
             inkscape:label="Pants"
             transform="translate(-38.136244,-44.878254)" />
          <g
             style="display:inline"
             inkscape:label="Hat"
             id="layer5" />
        </g>
        <path
           style="display:inline;fill:none;stroke:#e5a50a;stroke-width:0.938977;stroke-linecap:round;stroke-linejoin:miter;stroke-miterlimit:4;stroke-dasharray:none;stroke-opacity:1"
           d="m 58.049777,61.666142 1.666219,2.645908 2.6495,0.006"
           id="path72-9"
           sodipodi:nodetypes="ccc" />
        <path
           sodipodi:nodetypes="ccc"
           id="path1333"
           d="m 68.184588,61.730269 -1.666219,2.645908 -2.6495,0.006"
           style="display:inline;fill:none;stroke:#e5a50a;stroke-width:0.938977;stroke-linecap:round;stroke-linejoin:miter;stroke-miterlimit:4;stroke-dasharray:none;stroke-opacity:1" />
      </g>
      <rect
         y="65.079239"
         x="37.117111"
         height="19.939419"
         width="36.766129"
         id="rect1114"
         style="fill:#403233;fill-opacity:1;fill-rule:evenodd;stroke:#201919;stroke-width:0.6106;stroke-linejoin:round;stroke-opacity:1" />
      <rect
         y="70.941643"
         x="45.710091"
         height="8.101572"
         width="20.19347"
         id="rect1335"
         style="fill:#f6f5f4;fill-opacity:1;fill-rule:evenodd;stroke:#f6f5f4;stroke-width:0.273;stroke-linecap:butt;stroke-linejoin:bevel;stroke-miterlimit:4;stroke-dasharray:none;stroke-opacity:1;paint-order:markers fill stroke" />
    </g>
  </g>
  <g
     transform="translate(-21.042617,-6.612748)"
     inkscape:groupmode="layer"
     id="layer6"
     inkscape:label="Charactr" />
</svg>
