<?xml version="1.0" encoding="UTF-8" standalone="no"?>
<svg
   xmlns:dc="http://purl.org/dc/elements/1.1/"
   xmlns:cc="http://creativecommons.org/ns#"
   xmlns:rdf="http://www.w3.org/1999/02/22-rdf-syntax-ns#"
   xmlns:svg="http://www.w3.org/2000/svg"
   xmlns="http://www.w3.org/2000/svg"
   xmlns:sodipodi="http://sodipodi.sourceforge.net/DTD/sodipodi-0.dtd"
   xmlns:inkscape="http://www.inkscape.org/namespaces/inkscape"
   inkscape:export-ydpi="300"
   inkscape:export-xdpi="300"
   inkscape:export-filename="C:\Users\johan\Bohne.png"
   sodipodi:docname="original.svg"
   inkscape:version="1.0 (4035a4fb49, 2020-05-01)"
   id="svg8"
   version="1.1"
   viewBox="0 0 77.706579 108.77032"
   height="411.1004"
   width="293.69418">
  <defs
     id="defs2">
    <clipPath
       clipPathUnits="userSpaceOnUse"
       id="clipPath906">
      <path
         sodipodi:nodetypes="ccccccscccccccccc"
         d="m 54.65875,94.176021 -11.658203,16.183509 8.232095,7.08151 2.974455,-9.42039 0.392741,6.7076 -0.03876,29.58373 c 0,0 14.972095,2.81016 22.395533,2.81016 7.423439,0 21.998657,-3.33933 21.998657,-3.33933 l 0.358117,-29.05456 0.392742,-6.7076 3.442693,8.85912 8.32513,-7.73632 L 99.254994,94.176021 H 97.477841 C 89.989106,95.248624 81.418508,96.65423 76.956614,96.795499 72.494718,96.65423 63.924639,95.248624 56.435902,94.176021 Z"
         style="fill:#241f31;stroke:#000000;stroke-width:1;stroke-linecap:butt;stroke-linejoin:miter;stroke-miterlimit:4;stroke-dasharray:none;stroke-opacity:1"
         id="path908" />
    </clipPath>
    <clipPath
       clipPathUnits="userSpaceOnUse"
       id="clipPath910">
      <path
         sodipodi:nodetypes="ccccccscccccccccc"
         d="m 54.65875,94.176021 -11.658203,16.183509 8.232095,7.08151 2.974455,-9.42039 0.392741,6.7076 -0.03876,29.58373 c 0,0 14.972095,2.81016 22.395533,2.81016 7.423439,0 21.998657,-3.33933 21.998657,-3.33933 l 0.358117,-29.05456 0.392742,-6.7076 3.442693,8.85912 8.32513,-7.73632 L 99.254994,94.176021 H 97.477841 C 89.989106,95.248624 81.418508,96.65423 76.956614,96.795499 72.494718,96.65423 63.924639,95.248624 56.435902,94.176021 Z"
         style="fill:#241f31;stroke:#000000;stroke-width:1;stroke-linecap:butt;stroke-linejoin:miter;stroke-miterlimit:4;stroke-dasharray:none;stroke-opacity:1"
         id="path912" />
    </clipPath>
    <clipPath
       clipPathUnits="userSpaceOnUse"
       id="clipPath914">
      <path
         sodipodi:nodetypes="ccccccscccccccccc"
         d="m 54.65875,94.176021 -11.658203,16.183509 8.232095,7.08151 2.974455,-9.42039 0.392741,6.7076 -0.03876,29.58373 c 0,0 14.972095,2.81016 22.395533,2.81016 7.423439,0 21.998657,-3.33933 21.998657,-3.33933 l 0.358117,-29.05456 0.392742,-6.7076 3.442693,8.85912 8.32513,-7.73632 L 99.254994,94.176021 H 97.477841 C 89.989106,95.248624 81.418508,96.65423 76.956614,96.795499 72.494718,96.65423 63.924639,95.248624 56.435902,94.176021 Z"
         style="fill:#241f31;stroke:#000000;stroke-width:1;stroke-linecap:butt;stroke-linejoin:miter;stroke-miterlimit:4;stroke-dasharray:none;stroke-opacity:1"
         id="path916" />
    </clipPath>
    <clipPath
       clipPathUnits="userSpaceOnUse"
       id="clipPath918">
      <path
         sodipodi:nodetypes="ccccccscccccccccc"
         d="m 54.65875,94.176021 -11.658203,16.183509 8.232095,7.08151 2.974455,-9.42039 0.392741,6.7076 -0.03876,29.58373 c 0,0 14.972095,2.81016 22.395533,2.81016 7.423439,0 21.998657,-3.33933 21.998657,-3.33933 l 0.358117,-29.05456 0.392742,-6.7076 3.442693,8.85912 8.32513,-7.73632 L 99.254994,94.176021 H 97.477841 C 89.989106,95.248624 81.418508,96.65423 76.956614,96.795499 72.494718,96.65423 63.924639,95.248624 56.435902,94.176021 Z"
         style="fill:#241f31;stroke:#000000;stroke-width:1;stroke-linecap:butt;stroke-linejoin:miter;stroke-miterlimit:4;stroke-dasharray:none;stroke-opacity:1"
         id="path920" />
    </clipPath>
    <clipPath
       clipPathUnits="userSpaceOnUse"
       id="clipPath922">
      <path
         sodipodi:nodetypes="ccccccscccccccccc"
         d="m 54.65875,94.176021 -11.658203,16.183509 8.232095,7.08151 2.974455,-9.42039 0.392741,6.7076 -0.03876,29.58373 c 0,0 14.972095,2.81016 22.395533,2.81016 7.423439,0 21.998657,-3.33933 21.998657,-3.33933 l 0.358117,-29.05456 0.392742,-6.7076 3.442693,8.85912 8.32513,-7.73632 L 99.254994,94.176021 H 97.477841 C 89.989106,95.248624 81.418508,96.65423 76.956614,96.795499 72.494718,96.65423 63.924639,95.248624 56.435902,94.176021 Z"
         style="fill:#241f31;stroke:#000000;stroke-width:1;stroke-linecap:butt;stroke-linejoin:miter;stroke-miterlimit:4;stroke-dasharray:none;stroke-opacity:1"
         id="path924" />
    </clipPath>
    <clipPath
       clipPathUnits="userSpaceOnUse"
       id="clipPath926">
      <path
         sodipodi:nodetypes="ccccccscccccccccc"
         d="m 54.65875,94.176021 -11.658203,16.183509 8.232095,7.08151 2.974455,-9.42039 0.392741,6.7076 -0.03876,29.58373 c 0,0 14.972095,2.81016 22.395533,2.81016 7.423439,0 21.998657,-3.33933 21.998657,-3.33933 l 0.358117,-29.05456 0.392742,-6.7076 3.442693,8.85912 8.32513,-7.73632 L 99.254994,94.176021 H 97.477841 C 89.989106,95.248624 81.418508,96.65423 76.956614,96.795499 72.494718,96.65423 63.924639,95.248624 56.435902,94.176021 Z"
         style="fill:#241f31;stroke:#000000;stroke-width:1;stroke-linecap:butt;stroke-linejoin:miter;stroke-miterlimit:4;stroke-dasharray:none;stroke-opacity:1"
         id="path928" />
    </clipPath>
  </defs>
  <sodipodi:namedview
     inkscape:snap-object-midpoints="true"
     units="px"
     fit-margin-bottom="20"
     fit-margin-right="20"
     fit-margin-left="20"
     fit-margin-top="20"
     lock-margins="false"
     inkscape:window-maximized="1"
     inkscape:window-y="-8"
     inkscape:window-x="-8"
     inkscape:window-height="1017"
     inkscape:window-width="1920"
     inkscape:snap-nodes="true"
     inkscape:object-paths="true"
     inkscape:snap-smooth-nodes="true"
     showgrid="false"
     inkscape:document-rotation="0"
     inkscape:current-layer="layer2"
     inkscape:document-units="mm"
     inkscape:cy="264.03315"
     inkscape:cx="30.647066"
     inkscape:zoom="1.4142136"
     inkscape:pageshadow="2"
     inkscape:pageopacity="0.0"
     borderopacity="1.0"
     bordercolor="#666666"
     pagecolor="#ffffff"
     id="base"
     showguides="true"
     inkscape:guide-bbox="true">
    <sodipodi:guide
       position="7.5406243,38.920321"
       orientation="0,-1"
       id="guide899" />
    <sodipodi:guide
       id="guide881"
       orientation="1,0"
       position="38.820489,102.42969" />
    <sodipodi:guide
       position="38.820486,59.472453"
       orientation="0,-1"
       id="guide884" />
  </sodipodi:namedview>
  <metadata
     id="metadata5">
    <rdf:RDF>
      <cc:Work
         rdf:about="">
        <dc:format>image/svg+xml</dc:format>
        <dc:type
           rdf:resource="http://purl.org/dc/dcmitype/StillImage" />
        <dc:title />
      </cc:Work>
    </rdf:RDF>
  </metadata>
  <g
     transform="translate(-38.136244,-44.878254)"
     style="display:inline"
     id="layer1"
     inkscape:groupmode="layer"
     inkscape:label="Body">
    <path
       style="fill:#be747c;stroke:#be747c;stroke-width:4;stroke-linecap:round;stroke-linejoin:miter;stroke-miterlimit:4;stroke-dasharray:none;stroke-opacity:1"
       d="m 55.975777,95.281378 -5.149454,9.723432 -5.149454,9.72344"
       id="path72"
       sodipodi:nodetypes="ccc" />
    <path
       sodipodi:nodetypes="ccc"
       id="path897"
       d="m 97.93211,95.281375 5.14947,9.723435 5.14948,9.72344"
       style="fill:#be747c;stroke:#be747c;stroke-width:4;stroke-linecap:round;stroke-linejoin:miter;stroke-miterlimit:4;stroke-dasharray:none;stroke-opacity:1" />
    <path
       style="fill:none;stroke:#be747c;stroke-width:4;stroke-linecap:round;stroke-linejoin:miter;stroke-miterlimit:4;stroke-dasharray:none;stroke-opacity:1"
       d="m 70.40808,131.1211 v 18.26757"
       id="path903" />
    <path
       id="path905"
       d="m 83.570994,131.1211 v 18.26757"
       style="fill:none;stroke:#be747c;stroke-width:4;stroke-linecap:round;stroke-linejoin:miter;stroke-miterlimit:4;stroke-dasharray:none;stroke-opacity:1" />
    <path
       sodipodi:nodetypes="cccssccccc"
       id="path1031"
       style="fill:#d8acb2;stroke:#be747c;stroke-width:2.09947;stroke-linecap:round;stroke-linejoin:bevel;stroke-miterlimit:4;stroke-dasharray:none;stroke-opacity:1"
       d="M 66.294605,54.093618 C 59.584927,57.960428 55.446669,65.139279 55.44661,72.912197 v 37.725093 c -1.26e-4,7.70526 4.066832,14.83237 10.684462,18.7239 6.67584,3.92577 14.931536,3.96209 21.64132,0.0952 6.709833,-3.8669 10.848119,-11.04597 10.848006,-18.81907 V 72.912197 h -0.1079 C 98.534939,65.22924 94.511937,58.107432 87.935926,54.188789 81.26008,50.263026 73.004384,50.22672 66.294605,54.093618 Z" />
    <path
       id="path1061"
       style="fill:#e5c8cb;fill-opacity:1;stroke:none;stroke-width:0.335388;stroke-linecap:round;stroke-linejoin:bevel;stroke-miterlimit:4;stroke-dasharray:none;stroke-opacity:1"
       d="m 68.583792,59.100081 c -4.216396,2.212808 -4.137399,5.203559 -6.848888,5.069084 -2.435709,-0.1208 -0.148435,-4.190036 3.136594,-6.399604 3.442285,-2.31534 6.368359,-3.648691 8.550789,-3.051539 2.817041,0.770792 -3.335644,3.593347 -4.838495,4.382059 z"
       sodipodi:nodetypes="sssss" />
  </g>
  <g
     inkscape:label="Face"
     id="layer4"
     inkscape:groupmode="layer"
     style="display:inline">
    <g
       id="g1049"
       transform="translate(-41.279426,-41.350028)"
       style="display:inline">
      <path
         id="path1033"
         d="m 71.047988,79.603041 c 0,0 7.723717,8.706265 17.270412,0.269784"
         style="fill:none;stroke:#000000;stroke-width:1.165;stroke-linecap:round;stroke-linejoin:miter;stroke-miterlimit:4;stroke-dasharray:none;stroke-opacity:1" />
      <g
         id="g1047">
        <g
           id="g1039">
          <ellipse
             ry="4.6437736"
             rx="2.6593986"
             style="fill:#e5c8cb;fill-opacity:1;stroke:#e5c8cb;stroke-width:1.45886;stroke-linecap:round;stroke-linejoin:bevel;stroke-miterlimit:4;stroke-dasharray:none;stroke-opacity:1"
             id="ellipse1035"
             cx="73.014366"
             cy="69.163048" />
          <circle
             r="2.80633"
             cy="71.147423"
             cx="73.014366"
             id="circle1037"
             style="fill:#000000;fill-opacity:1;stroke:#000000;stroke-width:1.165;stroke-linecap:round;stroke-linejoin:bevel;stroke-miterlimit:4;stroke-dasharray:none;stroke-opacity:1" />
        </g>
        <g
           id="g1045">
          <ellipse
             cy="68.854378"
             cx="87.131348"
             id="ellipse1041"
             style="fill:#e5c8cb;fill-opacity:1;stroke:#e5c8cb;stroke-width:1.45886;stroke-linecap:round;stroke-linejoin:bevel;stroke-miterlimit:4;stroke-dasharray:none;stroke-opacity:1"
             rx="2.6593986"
             ry="4.6437736" />
          <circle
             r="3.0067821"
             cy="70.593071"
             cx="87.13855"
             id="circle1043"
             style="fill:#0a0003;fill-opacity:1;stroke:#000000;stroke-width:1.165;stroke-linecap:round;stroke-linejoin:bevel;stroke-miterlimit:4;stroke-dasharray:none;stroke-opacity:1" />
        </g>
      </g>
    </g>
  </g>
  <g
     transform="translate(-38.136244,-44.878254)"
     style="display:inline"
     inkscape:label="Shirt"
     id="layer2"
     inkscape:groupmode="layer">
    <g
       id="g1547"
       style="display:inline"
       transform="translate(-1.2708333e-6)">
      <path
         transform="matrix(0.26458333,0,0,0.26458333,38.136244,44.878254)"
         sodipodi:nodetypes="ccccccscccccccccc"
         d="m 62.447266,186.32227 -44.0625,61.16601 31.113432,26.76477 L 60.740234,238.64844 62.224609,264 62.078125,375.8125 c 0,0 56.587445,10.62109 84.644535,10.62109 28.05709,0 83.14453,-12.62109 83.14453,-12.62109 L 231.2207,264 l 1.48438,-25.35156 13.01175,33.48329 31.46504,-29.23964 L 231,186.32227 h -6.7168 c -28.30388,4.05393 -60.69669,9.36646 -77.56054,9.90039 -16.86386,-0.53393 -49.25471,-5.84646 -77.558598,-9.90039 z"
         style="fill:#241f31;stroke:#000000;stroke-width:3.77953;stroke-linecap:butt;stroke-linejoin:miter;stroke-miterlimit:4;stroke-dasharray:none;stroke-opacity:1;paint-order:markers stroke fill"
         id="path887" />
      <path
         clip-path="url(#clipPath926)"
         sodipodi:nodetypes="cssssc"
         id="path892"
         d="m 59.930535,148.65472 c 0,0 0.130924,0.0188 3.546795,-6.30603 3.415872,-6.32477 -3.648228,-7.39 -4.01571,-11.66587 -0.367482,-4.27586 5.699508,-8.25907 5.980141,-11.0654 0.280633,-2.80633 -5.917938,-13.35998 -2.830973,-18.22429 3.294045,-5.190617 4.166601,-3.730503 6.481705,-7.217015"
         style="fill:none;stroke:#5e5c64;stroke-width:1.065;stroke-linecap:butt;stroke-linejoin:miter;stroke-miterlimit:4;stroke-dasharray:none;stroke-opacity:1" />
      <path
         clip-path="url(#clipPath922)"
         sodipodi:nodetypes="ccsssc"
         style="fill:none;stroke:#5e5c64;stroke-width:1.065;stroke-linecap:butt;stroke-linejoin:miter;stroke-miterlimit:4;stroke-dasharray:none;stroke-opacity:1"
         d="m 95.203042,147.60206 c 0,0 -0.130924,0.0188 -3.546795,-6.30603 -3.415872,-6.32477 3.648228,-7.39 4.01571,-11.66587 0.367482,-4.27586 -5.699508,-8.25907 -5.980141,-11.0654 -0.280633,-2.80633 4.909942,-10.75012 1.309619,-15.24773 -4.171724,-5.211423 -3.189671,-12.268986 -3.189671,-12.268986"
         id="path894" />
      <path
         clip-path="url(#clipPath918)"
         sodipodi:nodetypes="csccc"
         id="path896"
         d="m 67.494785,149.67409 c 0,0 -11.950461,-14.23743 -9.156218,-22.50515 2.794241,-8.2677 3.754411,-6.28661 0.387223,-12.74117 -5.38937,-6.75951 2.839317,-9.02721 1.238578,-13.65629 -0.529166,-1.322915 -3.571874,-3.930316 -1.719791,-6.595365"
         style="fill:none;stroke:#77767b;stroke-width:0.965;stroke-linecap:butt;stroke-linejoin:miter;stroke-miterlimit:4;stroke-dasharray:none;stroke-opacity:1" />
      <path
         clip-path="url(#clipPath914)"
         sodipodi:nodetypes="cssssc"
         style="fill:none;stroke:#77767b;stroke-width:0.965;stroke-linecap:butt;stroke-linejoin:miter;stroke-miterlimit:4;stroke-dasharray:none;stroke-opacity:1"
         d="m 92.921375,148.86521 c 0,0 6.548535,-6.86725 3.754292,-15.13497 -2.794241,-8.2677 -3.754411,-6.28661 -0.387223,-12.74117 3.367188,-6.45456 2.842826,-4.92187 -0.374179,-10.7576 -4.094851,-7.42816 -11.277501,-1.98551 -13.592605,-6.21884 -2.315105,-4.233336 -1.389063,-9.836515 -1.389063,-9.836515"
         id="path898" />
      <path
         clip-path="url(#clipPath910)"
         style="fill:none;stroke:#5e5c64;stroke-width:1.065;stroke-linecap:butt;stroke-linejoin:miter;stroke-miterlimit:4;stroke-dasharray:none;stroke-opacity:1"
         d="m 73.954875,146.56092 c 0,0 -0.130924,0.0188 -3.546795,-6.30604 -3.415872,-6.32477 3.648228,-7.38999 4.01571,-11.66586 0.367482,-4.27586 -5.699508,-8.25907 -5.980141,-11.0654 -0.280633,-2.80633 5.917938,-13.35998 2.830973,-18.224295 -3.294045,-5.19062 -4.166601,-3.730506 -6.481705,-7.217018"
         id="path900"
         sodipodi:nodetypes="cssssc" />
      <path
         clip-path="url(#clipPath906)"
         style="fill:none;stroke:#77767b;stroke-width:0.965;stroke-linecap:butt;stroke-linejoin:miter;stroke-miterlimit:4;stroke-dasharray:none;stroke-opacity:1"
         d="m 74.414776,153.62625 c 0,0 11.950461,-14.23743 9.156218,-22.50515 -2.794241,-8.2677 -3.754411,-6.28661 -0.387223,-12.74117 5.38937,-6.75951 -2.839317,-9.02721 -1.238578,-13.65629 0.529166,-1.32292 3.247432,-5.859102 1.395349,-8.52415"
         id="path902"
         sodipodi:nodetypes="csccc" />
    </g>
  </g>
  <g
     transform="translate(-38.136244,-44.878254)"
     inkscape:label="Pants"
     id="layer3"
     inkscape:groupmode="layer"
     style="display:inline" />
  <g
     inkscape:groupmode="layer"
     id="layer5"
     inkscape:label="Hat"
     style="display:inline" />
</svg>
