<?xml version="1.0" encoding="UTF-8" standalone="no"?>
<svg
   xmlns:dc="http://purl.org/dc/elements/1.1/"
   xmlns:cc="http://creativecommons.org/ns#"
   xmlns:rdf="http://www.w3.org/1999/02/22-rdf-syntax-ns#"
   xmlns:svg="http://www.w3.org/2000/svg"
   xmlns="http://www.w3.org/2000/svg"
   xmlns:sodipodi="http://sodipodi.sourceforge.net/DTD/sodipodi-0.dtd"
   xmlns:inkscape="http://www.inkscape.org/namespaces/inkscape"
   inkscape:export-ydpi="300"
   inkscape:export-xdpi="300"
   inkscape:export-filename="C:\Users\johan\Bohne.png"
   sodipodi:docname="original.svg"
   inkscape:version="1.0 (4035a4fb49, 2020-05-01)"
   id="svg8"
   version="1.1"
   viewBox="0 0 77.706579 108.77032"
   height="411.1004"
   width="293.69418">
  <defs
     id="defs2" />
  <sodipodi:namedview
     inkscape:guide-bbox="true"
     showguides="true"
     id="base"
     pagecolor="#ffffff"
     bordercolor="#666666"
     borderopacity="1.0"
     inkscape:pageopacity="0.0"
     inkscape:pageshadow="2"
     inkscape:zoom="1.7307818"
     inkscape:cx="32.162847"
     inkscape:cy="203.95387"
     inkscape:document-units="mm"
     inkscape:current-layer="layer3"
     inkscape:document-rotation="0"
     showgrid="false"
     inkscape:snap-smooth-nodes="true"
     inkscape:object-paths="true"
     inkscape:snap-nodes="true"
     inkscape:window-width="1920"
     inkscape:window-height="1017"
     inkscape:window-x="-8"
     inkscape:window-y="-8"
     inkscape:window-maximized="1"
     lock-margins="false"
     fit-margin-top="20"
     fit-margin-left="20"
     fit-margin-right="20"
     fit-margin-bottom="20"
     units="px"
     inkscape:snap-object-midpoints="true">
    <sodipodi:guide
       id="guide899"
       orientation="0,-1"
       position="7.5406243,38.920321" />
    <sodipodi:guide
       position="38.820489,102.42969"
       orientation="1,0"
       id="guide881" />
    <sodipodi:guide
       id="guide887"
       orientation="0,-1"
       position="17.839531,58.367194" />
  </sodipodi:namedview>
  <metadata
     id="metadata5">
    <rdf:RDF>
      <cc:Work
         rdf:about="">
        <dc:format>image/svg+xml</dc:format>
        <dc:type
           rdf:resource="http://purl.org/dc/dcmitype/StillImage" />
        <dc:title></dc:title>
      </cc:Work>
    </rdf:RDF>
  </metadata>
  <g
     inkscape:label="Body"
     inkscape:groupmode="layer"
     id="layer1"
     style="display:inline"
     transform="translate(-38.136244,-44.878254)">
    <g
       id="g906">
      <path
         style="fill:#be747c;stroke:#4a2529;stroke-width:4;stroke-linecap:round;stroke-linejoin:miter;stroke-miterlimit:4;stroke-dasharray:none;stroke-opacity:1"
         d="m 55.975777,95.281378 -5.149454,9.723432 -5.149454,9.72344"
         id="path72"
         sodipodi:nodetypes="ccc" />
      <path
         sodipodi:nodetypes="ccc"
         id="path897"
         d="m 97.93211,95.281375 5.14947,9.723435 5.14948,9.72344"
         style="fill:#be747c;stroke:#4a2529;stroke-width:4;stroke-linecap:round;stroke-linejoin:miter;stroke-miterlimit:4;stroke-dasharray:none;stroke-opacity:1" />
      <path
         style="fill:none;stroke:#4a2529;stroke-width:4;stroke-linecap:round;stroke-linejoin:miter;stroke-miterlimit:4;stroke-dasharray:none;stroke-opacity:1"
         d="m 70.40808,131.1211 v 18.26757"
         id="path903" />
      <path
         id="path905"
         d="m 83.570994,131.1211 v 18.26757"
         style="fill:none;stroke:#4a2529;stroke-width:4;stroke-linecap:round;stroke-linejoin:miter;stroke-miterlimit:4;stroke-dasharray:none;stroke-opacity:1" />
      <path
         sodipodi:nodetypes="cccssccccc"
         id="path1031"
         style="fill:#9c8e90;fill-opacity:1;stroke:#4a2529;stroke-width:2.09947;stroke-linecap:round;stroke-linejoin:bevel;stroke-miterlimit:4;stroke-dasharray:none;stroke-opacity:1"
         d="M 66.294605,54.093618 C 59.584927,57.960428 55.446669,65.139279 55.44661,72.912197 v 37.725093 c -1.26e-4,7.70526 4.066832,14.83237 10.684462,18.7239 6.67584,3.92577 14.931536,3.96209 21.64132,0.0952 6.709833,-3.8669 10.848119,-11.04597 10.848006,-18.81907 V 72.912197 h -0.1079 C 98.534939,65.22924 94.511937,58.107432 87.935926,54.188789 81.26008,50.263026 73.004384,50.22672 66.294605,54.093618 Z" />
      <path
         id="path1061"
         style="fill:#e5c8cb;fill-opacity:1;stroke:none;stroke-width:0.335388;stroke-linecap:round;stroke-linejoin:bevel;stroke-miterlimit:4;stroke-dasharray:none;stroke-opacity:1"
         d="m 68.583792,59.100081 c -4.216396,2.212808 -4.137399,5.203559 -6.848888,5.069084 -2.435709,-0.1208 -0.148435,-4.190036 3.136594,-6.399604 3.442285,-2.31534 6.368359,-3.648691 8.550789,-3.051539 2.817041,0.770792 -3.335644,3.593347 -4.838495,4.382059 z"
         sodipodi:nodetypes="sssss" />
    </g>
  </g>
  <g
     style="display:inline"
     inkscape:label="Hat"
     id="layer5"
     inkscape:groupmode="layer">
    <g
       transform="translate(-38.136245,-44.878255)"
       style="display:inline"
       id="g1687">
      <path
         sodipodi:nodetypes="ccscccscc"
         transform="rotate(179.81291)"
         id="path1664"
         d="m -54.263441,-70.813238 c 0,0.536242 -0.946145,1.068859 -1.003028,1.602335 -0.992606,9.309093 -10.44829,17.96812 -21.479625,17.988247 -11.663506,0.02128 -21.071995,-8.038122 -21.121094,-17.931641 l -1.253626,-0.983864 0.118312,0.924543 c 0.05199,10.476714 10.166031,18.938846 22.258361,18.916784 12.092331,-0.02206 22.321083,-8.740804 22.321084,-19.217616 z"
         style="color:#000000;font-style:normal;font-variant:normal;font-weight:normal;font-stretch:normal;font-size:medium;line-height:normal;font-family:sans-serif;font-variant-ligatures:normal;font-variant-position:normal;font-variant-caps:normal;font-variant-numeric:normal;font-variant-alternates:normal;font-variant-east-asian:normal;font-feature-settings:normal;font-variation-settings:normal;text-indent:0;text-align:start;text-decoration:none;text-decoration-line:none;text-decoration-style:solid;text-decoration-color:#000000;letter-spacing:normal;word-spacing:normal;text-transform:none;writing-mode:lr-tb;direction:ltr;text-orientation:mixed;dominant-baseline:auto;baseline-shift:baseline;text-anchor:start;white-space:normal;shape-padding:0;shape-margin:0;inline-size:0;clip-rule:nonzero;display:inline;overflow:visible;visibility:visible;opacity:1;isolation:auto;mix-blend-mode:normal;color-interpolation:sRGB;color-interpolation-filters:linearRGB;solid-color:#000000;solid-opacity:1;vector-effect:none;fill:#ea8585;fill-opacity:1;fill-rule:nonzero;stroke:none;stroke-width:0.926633;stroke-linecap:butt;stroke-linejoin:miter;stroke-miterlimit:4;stroke-dasharray:none;stroke-dashoffset:0;stroke-opacity:1;color-rendering:auto;image-rendering:auto;shape-rendering:auto;text-rendering:auto;enable-background:accumulate;stop-color:#000000;stop-opacity:1" />
      <g
         id="g1672">
        <path
           sodipodi:nodetypes="cscc"
           id="path1666"
           d="m 55.763388,63.382952 c 0,0 -4.803637,-7.513884 -1.041157,-15.794148 0.67563,-1.48689 11.763868,4.798272 11.763868,4.798272 z"
           style="fill:#ea8585;fill-opacity:1;stroke:none;stroke-width:0.899999;stroke-opacity:1" />
        <path
           sodipodi:nodetypes="cscc"
           id="path1668"
           d="m 57.294347,60.407007 c 0,0 -3.019142,-4.722564 -0.654379,-9.926807 0.424641,-0.934527 7.393728,3.01577 7.393728,3.01577 z"
           style="fill:#f6cbcb;fill-opacity:1;stroke:none;stroke-width:0.56566;stroke-opacity:1" />
      </g>
      <g
         transform="matrix(-1,0,0,1,154.78227,0.12381086)"
         id="g1678">
        <path
           sodipodi:nodetypes="cscc"
           id="path1674"
           d="m 56.493028,63.436999 c 0,0 -5.533277,-7.567931 -1.770797,-15.848195 0.67563,-1.48689 11.790892,4.987438 11.790892,4.987438 -3.783388,3.403944 -7.279358,6.948116 -10.020095,10.860757 z"
           style="fill:#ea8585;fill-opacity:1;stroke:none;stroke-width:0.899999;stroke-opacity:1" />
        <path
           sodipodi:nodetypes="cscc"
           id="path1676"
           d="m 57.294347,60.407007 c 0,0 -3.019142,-4.722564 -0.654379,-9.926807 0.424641,-0.934527 7.393728,3.01577 7.393728,3.01577 z"
           style="fill:#f6cbcb;fill-opacity:1;stroke:none;stroke-width:0.56566;stroke-opacity:1" />
      </g>
    </g>
  </g>
  <g
     style="display:inline"
     inkscape:groupmode="layer"
     id="layer4"
     inkscape:label="Face">
    <g
       style="display:inline"
       transform="translate(-41.279426,-41.350028)"
       id="g1049">
      <path
         style="fill:none;stroke:#000000;stroke-width:1.165;stroke-linecap:round;stroke-linejoin:miter;stroke-miterlimit:4;stroke-dasharray:none;stroke-opacity:1"
         d="m 71.047988,79.603041 c 0,0 7.723717,8.706265 17.270412,0.269784"
         id="path1033" />
      <g
         id="g1047">
        <g
           id="g1039">
          <ellipse
             cy="69.163048"
             cx="73.014366"
             id="ellipse1035"
             style="fill:#e5c8cb;fill-opacity:1;stroke:#e5c8cb;stroke-width:1.45886;stroke-linecap:round;stroke-linejoin:bevel;stroke-miterlimit:4;stroke-dasharray:none;stroke-opacity:1"
             rx="2.6593986"
             ry="4.6437736" />
          <circle
             style="fill:#000000;fill-opacity:1;stroke:#000000;stroke-width:1.165;stroke-linecap:round;stroke-linejoin:bevel;stroke-miterlimit:4;stroke-dasharray:none;stroke-opacity:1"
             id="circle1037"
             cx="73.014366"
             cy="71.147423"
             r="2.80633" />
        </g>
        <g
           id="g1045">
          <ellipse
             ry="4.6437736"
             rx="2.6593986"
             style="fill:#e5c8cb;fill-opacity:1;stroke:#e5c8cb;stroke-width:1.45886;stroke-linecap:round;stroke-linejoin:bevel;stroke-miterlimit:4;stroke-dasharray:none;stroke-opacity:1"
             id="ellipse1041"
             cx="87.131348"
             cy="68.854378" />
          <circle
             style="fill:#0a0003;fill-opacity:1;stroke:#000000;stroke-width:1.165;stroke-linecap:round;stroke-linejoin:bevel;stroke-miterlimit:4;stroke-dasharray:none;stroke-opacity:1"
             id="circle1043"
             cx="87.13855"
             cy="70.593071"
             r="3.0067821" />
        </g>
      </g>
    </g>
  </g>
  <g
     inkscape:groupmode="layer"
     id="layer2"
     inkscape:label="Shirt"
     style="display:inline"
     transform="translate(-38.136244,-44.878254)">
    <g
       transform="translate(-1.2708333e-6)"
       style="display:inline"
       id="g1433">
      <g
         transform="translate(1.2084408e-4,-0.1023004)"
         id="g1415">
        <path
           sodipodi:nodetypes="ccccccccccccccccc"
           transform="matrix(0.26458333,0,0,0.26458333,38.136244,44.878254)"
           d="m 63.015952,173.44141 -1.744468,16.07031 -36.785156,69.0293 10.867188,5.45898 26.873046,-49.02344 0.0332,18.96875 C 61.736559,256.22129 62.014423,254.5033 64.455078,264 h 82.267582 82.8668 c 2.44065,-9.49671 2.81839,-5.30764 2.29519,-27.58361 l -0.6659,-21.43983 26.875,49.02344 10.86523,-5.45898 -36.78515,-69.0293 -1.13684,-16.07031 h -84.31433 z"
           style="fill:#aeeac2;stroke:#8de2aa;stroke-width:3.40157"
           id="path889" />
        <path
           id="path899"
           d="M 54.347657,95.019896 H 99.565569"
           style="fill:#aeeac2;stroke:#8de2aa;stroke-width:0.899999" />
        <g
           id="g1372">
          <path
             id="path1352"
             d="m 60.5523,90.768 -0.7851,4.5134"
             style="fill:#aeeac2;stroke:#8de2aa;stroke-width:0.899999px" />
          <path
             id="path1354"
             d="m 64.1693,90.768 -0.6107,4.5134"
             style="fill:#aeeac2;stroke:#8de2aa;stroke-width:0.899999px" />
          <path
             id="path1356"
             d="M 67.7862,90.768 67.35,95.2814"
             style="fill:#aeeac2;stroke:#8de2aa;stroke-width:0.899999px" />
          <path
             id="path1358"
             d="m 71.4031,90.768 -0.2617,4.5134"
             style="fill:#aeeac2;stroke:#8de2aa;stroke-width:0.899999px" />
          <path
             id="path1360"
             d="m 75.0201,90.768 -0.0873,4.5134"
             style="fill:#aeeac2;stroke:#8de2aa;stroke-width:0.899999px" />
          <path
             id="path1362"
             d="m 78.637,90.768 0.0872,4.5134"
             style="fill:#aeeac2;stroke:#8de2aa;stroke-width:0.899999px" />
          <path
             id="path1364"
             d="m 82.2539,90.768 0.2617,4.5134"
             style="fill:#aeeac2;stroke:#8de2aa;stroke-width:0.899999px" />
          <path
             id="path1366"
             d="m 85.8708,90.768 0.4362,4.5134"
             style="fill:#aeeac2;stroke:#8de2aa;stroke-width:0.899999px" />
          <path
             id="path1368"
             d="m 89.4878,90.768 0.6107,4.5134"
             style="fill:#aeeac2;stroke:#8de2aa;stroke-width:0.899999px" />
          <path
             id="path1370"
             d="m 93.1047,90.768 0.7852,4.5134"
             style="fill:#aeeac2;stroke:#8de2aa;stroke-width:0.899999px" />
        </g>
      </g>
      <path
         id="path901"
         d="m 56.935418,90.76796 -0.959643,4.513413"
         style="fill:#aeeac2;stroke:#8de2aa;stroke-width:0.899999" />
      <path
         id="path1257"
         d="m 96.721634,90.76796 0.959643,4.513413"
         style="fill:#aeeac2;stroke:#8de2aa;stroke-width:0.899999" />
    </g>
  </g>
  <g
     style="display:inline"
     inkscape:groupmode="layer"
     id="layer3"
     inkscape:label="Pants"
     transform="translate(-38.136244,-44.878254)">
    <g
       id="g1651">
      <g
         id="g1629">
        <path
           sodipodi:nodetypes="csccccccccscc"
           d="m 54.53783,110.39262 c -2.488048,5.77967 -7.609995,15.33068 -6.811991,21.57233 0.434554,3.3989 6.605215,1.88873 9.974188,2.50115 2.021889,-0.0163 4.145217,-2.0856 5.663354,0.40221 2.286221,1.56617 4.435828,-1.45568 6.759677,-0.37595 2.010574,0.45292 4.336732,0.0421 6.059958,-1.04585 0.658493,-0.27537 0.822834,-0.49015 1.717559,-0.11353 1.821931,0.72844 4.09775,1.30968 6.04471,0.51829 2.294319,-0.37406 4.805929,2.34242 6.811695,0.0433 1.834883,-2.21376 4.114057,1.22241 6.353064,-0.10499 2.897616,-0.76549 8.506206,0.69833 8.693906,-2.29285 0.39409,-6.2801 -6.098022,-21.02115 -6.098022,-21.02115 -15.370937,0.28198 -31.229693,-0.0835 -45.168098,-0.083 z"
           style="display:inline;fill:#f0a8a8;fill-opacity:1;stroke:#ea8585;stroke-width:0.899999;stroke-opacity:1"
           id="path1545" />
        <g
           id="g1619">
          <path
             id="path1563"
             d="m 61.185295,133.65532 5.928023,-15.65674 -3.749937,16.86973 z"
             style="fill:#ea8585;fill-opacity:1;stroke:none;stroke-width:0.899999;stroke-opacity:1" />
          <path
             sodipodi:nodetypes="cccc"
             id="path1567"
             d="m 90.756979,133.89457 -5.960547,-14.73433 1.21724,14.95867 c 1.84603,0.98727 3.439878,0.96358 4.743307,-0.22434 z"
             style="fill:#ea8585;fill-opacity:1;stroke:none;stroke-width:0.899999;stroke-opacity:1" />
          <path
             sodipodi:nodetypes="cccc"
             id="path1569"
             d="m 69.149059,134.25588 4.159803,-10.96528 2.874153,10.15591 c -2.304081,1.26235 -4.645481,1.6117 -7.033956,0.80937 z"
             style="fill:#ea8585;fill-opacity:1;stroke:none;stroke-width:0.899999;stroke-opacity:1" />
          <path
             id="path1571"
             d="m 48.847442,133.62545 9.496256,-12.13232 -3.413965,12.8016 z"
             style="fill:#ea8585;fill-opacity:1;stroke:none;stroke-width:0.899999;stroke-opacity:1" />
          <path
             id="path1573"
             d="m 93.541975,133.41912 -1.985941,-6.73029 5.554009,7.10075 z"
             style="fill:#ea8585;fill-opacity:1;stroke:none;stroke-width:0.899999;stroke-opacity:1" />
          <path
             id="path1575"
             d="m 101.5752,133.50993 -2.380008,-12.33081 5.096018,12.01966 z"
             style="fill:#ea8585;fill-opacity:1;stroke:none;stroke-width:0.899999;stroke-opacity:1" />
        </g>
      </g>
      <g
         id="g1611">
        <g
           id="g1599">
          <path
             sodipodi:nodetypes="ccccc"
             id="path1555"
             d="m 59.021399,114.72825 -4.099126,-24.070658 2.760334,0.0081 4.069928,24.062588 z"
             style="fill:#ea8585;fill-opacity:1;stroke:#ea8585;stroke-width:0.899999;stroke-opacity:1" />
          <path
             sodipodi:nodetypes="ccccc"
             id="path1557"
             d="M 95.077036,114.72825 99.15196,90.665659 H 96.415828 L 92.3459,114.72825 Z"
             style="fill:#ea8585;fill-opacity:1;stroke:#ea8585;stroke-width:0.899999;stroke-opacity:1" />
        </g>
        <g
           id="g1595">
          <g
             id="g1587">
            <circle
               r="1.421052"
               cy="113.15315"
               cx="93.930115"
               id="path1559"
               style="fill:#ffce47;fill-opacity:1;stroke:none;stroke-width:1.4654;stroke-opacity:1" />
            <circle
               r="0.39427596"
               cy="113.15315"
               cx="93.930115"
               id="circle1577"
               style="fill:#ea8585;fill-opacity:1;stroke:none;stroke-width:0.40658;stroke-opacity:1" />
          </g>
          <g
             id="g1583">
            <circle
               r="1.421052"
               cy="113.3072"
               cx="60.165035"
               id="circle1561"
               style="fill:#ffce47;fill-opacity:1;stroke:none;stroke-width:1.4654;stroke-opacity:1" />
            <circle
               r="0.39427596"
               cy="113.3072"
               cx="60.165035"
               id="circle1579"
               style="fill:#ea8585;fill-opacity:1;stroke:none;stroke-width:0.40658;stroke-opacity:1" />
          </g>
        </g>
      </g>
    </g>
  </g>
</svg>
